<svg width="1080" height="768" viewBox="0 0 1440 1024" fill="none" xmlns="http://www.w3.org/2000/svg">
    <g clip-path="url(#clip0_580_1642)">
        <path
            d="M1183.95 593.773C1182.81 600.213 1181.45 606.889 1179.79 614.202C1178.65 619.27 1174.3 623.012 1168.73 623.756C1148.37 626.471 1131.36 640.115 1124.35 659.38C1123.24 662.425 1122.39 665.565 1121.84 668.716C1118.91 685.34 1123.96 702.732 1135.36 715.252C1138.22 718.396 1139.52 722.576 1138.84 726.446C1138.63 727.628 1138.25 728.759 1137.7 729.829C1131.4 741.909 1124.5 753.841 1117.19 765.296C1114.38 769.705 1108.96 771.755 1103.4 770.531C1083.34 766.121 1062.7 773.133 1049.52 788.834C1043.31 796.238 1039.14 805.149 1037.47 814.613C1035.66 824.874 1036.79 835.401 1040.73 845.031C1041.75 847.526 1042.05 850.189 1041.61 852.73C1041.13 855.399 1039.86 857.743 1037.91 859.511C1027.94 868.598 1017.33 877.451 1006.39 885.816C1002.24 888.975 996.47 889.064 991.682 886.047C974.365 875.124 952.622 874.681 934.93 884.894C920.798 893.054 911.079 906.938 908.247 923C907.567 926.86 907.299 930.794 907.454 934.7C907.493 935.742 907.423 936.776 907.244 937.79C906.471 942.173 903.718 945.749 899.876 947.326C887.334 952.517 874.349 957.223 861.296 961.339C856.308 962.907 850.845 961.009 847.362 956.516C834.829 940.294 814.526 932.429 794.394 935.977C774.231 939.529 757.817 953.836 751.56 973.316C749.829 978.697 745.351 982.324 740.165 982.537C726.374 983.121 712.517 983.105 698.967 982.493C693.779 982.258 689.321 978.629 687.598 973.258C681.359 953.758 664.985 939.448 644.876 935.902C624.766 932.356 604.462 940.159 591.913 956.275C588.449 960.72 583.012 962.585 578.067 961.032C565.032 956.927 551.98 952.168 539.283 946.893C534.496 944.901 531.537 939.973 531.749 934.334C532.528 913.909 522.041 894.889 504.393 884.699C486.716 874.495 465.003 874.86 447.714 885.662C442.91 888.663 437.142 888.55 433.021 885.376C422.058 876.944 411.446 868.026 401.457 858.852C398.407 856.05 397.042 851.758 397.813 847.385C397.99 846.381 398.276 845.395 398.658 844.437C400.112 840.855 401.191 837.095 401.863 833.284C404.687 817.271 400.324 800.956 389.894 788.526C376.83 772.951 356.36 765.858 336.476 770.019C330.962 771.169 325.601 769.096 322.815 764.736C315.371 753.056 308.406 741.014 302.117 728.938C300.903 726.612 300.515 723.975 300.984 721.316C301.427 718.804 302.608 716.423 304.391 714.433C311.289 706.754 315.885 697.329 317.676 687.175C319.334 677.771 318.474 668.023 315.191 658.996C308.227 639.866 291.386 626.194 271.26 623.315C265.664 622.511 261.335 618.732 260.217 613.671C257.261 600.315 254.863 586.62 253.087 572.965C252.93 571.779 252.958 570.586 253.165 569.414C253.84 565.583 256.464 562.106 260.183 560.132C275 552.235 285.571 537.72 288.465 521.303C289.019 518.162 289.303 514.942 289.302 511.723C289.305 491.374 278.165 472.777 260.238 463.189C255.329 460.566 252.574 455.572 253.22 450.467C254.157 443.138 255.145 436.499 256.258 430.186C257.371 423.874 258.775 416.952 260.465 409.553C261.604 404.535 265.91 400.786 271.428 400.012C291.57 397.156 308.398 383.552 315.334 364.487C316.44 361.442 317.288 358.302 317.844 355.15C320.747 338.684 315.801 321.413 304.628 308.933C301.82 305.798 300.552 301.645 301.228 297.814C301.434 296.642 301.818 295.501 302.371 294.441C308.716 282.238 315.672 270.203 323.039 258.657C325.83 254.285 331.201 252.216 336.721 253.392C356.64 257.616 377.112 250.584 390.161 235.033C396.382 227.621 400.543 218.708 402.212 209.244C403.999 199.11 402.919 188.705 399.096 179.176C398.101 176.696 397.814 174.066 398.256 171.555C398.727 168.886 400.003 166.542 401.94 164.771C411.986 155.596 422.658 146.674 433.666 138.258C437.785 135.115 443.532 135.001 448.318 137.978C465.573 148.727 487.196 149.108 504.752 138.973C518.894 130.814 528.626 116.913 531.458 100.851C532.123 97.0789 532.396 93.2278 532.265 89.4173C532.232 88.396 532.299 87.3823 532.475 86.3876C533.247 82.0052 535.999 78.4388 539.833 76.8504C552.398 71.6432 565.43 66.8941 578.569 62.7527C583.537 61.1816 588.993 63.0676 592.481 67.5311C605.015 83.6323 625.258 91.4359 645.296 87.9018C665.428 84.3537 681.846 70.0779 688.126 50.6432C689.865 45.2736 694.33 41.664 699.507 41.4397C713.261 40.8388 727.14 40.849 740.752 41.4519C745.94 41.6864 750.399 45.3057 752.133 50.6783C758.388 70.1402 774.746 84.4277 794.826 87.9684C814.906 91.5091 835.311 83.7039 847.866 67.5587C851.332 63.1029 856.76 61.227 861.704 62.7892C874.674 66.8632 887.69 71.5953 900.39 76.8506C905.199 78.8357 908.154 83.7841 907.94 89.4327C907.135 109.894 917.624 128.955 935.319 139.173C953.059 149.419 974.844 148.995 992.172 138.079C996.982 135.048 1002.76 135.153 1006.9 138.33C1017.79 146.687 1028.37 155.569 1038.34 164.71C1041.4 167.514 1042.76 171.806 1041.99 176.189C1041.81 177.213 1041.52 178.218 1041.12 179.192C1039.62 182.838 1038.51 186.653 1037.83 190.543C1035 206.566 1039.37 222.903 1049.81 235.345C1062.96 251.027 1083.56 258.081 1103.56 253.768C1109.1 252.572 1114.48 254.638 1117.29 259.033C1124.7 270.635 1131.63 282.59 1137.87 294.557C1139.09 296.883 1139.49 299.522 1139.02 302.181C1138.55 304.84 1137.37 307.131 1135.55 309.134C1128.52 316.861 1123.84 326.372 1122.02 336.664C1120.36 346.078 1121.22 355.836 1124.51 364.874C1131.54 384.168 1148.53 397.856 1168.87 400.6C1174.51 401.362 1178.88 405.148 1180.01 410.252C1182.95 423.503 1185.33 437.072 1187.1 450.606C1187.26 451.791 1187.23 452.985 1187.03 454.157C1186.34 458.027 1183.69 461.519 1179.91 463.492C1164.89 471.343 1154.17 485.953 1151.24 502.557C1150.68 505.699 1150.4 508.928 1150.4 512.138C1150.41 532.67 1161.69 551.354 1179.87 560.886C1184.86 563.501 1187.64 568.612 1186.96 573.905C1186.04 581.064 1185.06 587.562 1183.97 593.766L1183.95 593.773Z"
            fill="#F2F2F2" fill-opacity="0.2" />
        <mask id="path-2-inside-1_580_1642" fill="white">
            <path
                d="M257.242 430.37C258.383 423.9 259.753 417.166 261.43 409.785C262.476 405.177 266.454 401.735 271.557 401.01C292.073 398.109 309.199 384.252 316.267 364.845C317.391 361.753 318.249 358.553 318.817 355.333C321.773 338.571 316.741 320.98 305.355 308.27C302.75 305.364 301.57 301.52 302.191 297.995C302.381 296.921 302.736 295.887 303.243 294.91C309.573 282.735 316.516 270.718 323.867 259.199C326.434 255.184 331.389 253.286 336.506 254.381C356.788 258.678 377.628 251.518 390.919 235.686C397.246 228.139 401.497 219.06 403.195 209.428C405.015 199.108 403.916 188.526 400.023 178.812C399.1 176.507 398.83 174.063 399.24 171.739C399.67 169.297 400.841 167.147 402.611 165.52C412.634 156.361 423.28 147.465 434.266 139.065C438.045 136.177 443.351 136.087 447.78 138.838C465.358 149.777 487.375 150.166 505.249 139.843C519.64 131.535 529.549 117.381 532.433 101.023C533.11 97.1826 533.385 93.2608 533.248 89.3779C533.212 88.4273 533.279 87.4743 533.44 86.5585C534.154 82.5109 536.682 79.23 540.199 77.7686C552.731 72.5759 565.741 67.8431 578.86 63.6982C583.429 62.2598 588.453 63.9987 591.683 68.1424C604.45 84.5385 625.052 92.4868 645.458 88.8855C665.957 85.2702 682.666 70.7307 689.067 50.9519C690.674 45.9855 694.786 42.6488 699.544 42.442C713.276 41.8474 727.126 41.8524 740.708 42.4501C745.474 42.6609 749.584 46.0155 751.177 50.9774C757.542 70.7939 774.2 85.3374 794.644 88.9423C815.089 92.5473 835.866 84.5942 848.643 68.1634C851.846 64.0471 856.856 62.3005 861.396 63.7307C874.336 67.7995 887.333 72.5282 900.005 77.7683C904.426 79.5936 907.145 84.1551 906.933 89.3878C906.113 110.222 916.794 129.632 934.811 140.038C952.875 150.463 975.056 150.039 992.704 138.924C997.148 136.124 1002.49 136.202 1006.29 139.116C1017.15 147.46 1027.71 156.317 1037.66 165.444C1040.47 168.02 1041.71 171.966 1041 176.004C1040.83 176.949 1040.55 177.895 1040.19 178.796C1038.66 182.507 1037.54 186.402 1036.84 190.36C1033.97 206.679 1038.42 223.304 1049.05 235.983C1062.44 251.941 1083.41 259.131 1103.77 254.74C1108.9 253.634 1113.87 255.526 1116.44 259.565C1123.83 271.132 1130.74 283.064 1136.98 295.019C1138.1 297.146 1138.45 299.564 1138.02 302.006C1137.59 304.449 1136.49 306.6 1134.79 308.454C1127.63 316.319 1122.87 326.01 1121.03 336.479C1119.34 346.071 1120.22 356.004 1123.57 365.207C1130.72 384.856 1148.03 398.794 1168.74 401.583C1173.95 402.289 1178 405.765 1179.04 410.457C1181.97 423.677 1184.35 437.225 1186.12 450.727C1186.26 451.809 1186.23 452.91 1186.04 453.974C1185.41 457.539 1182.95 460.769 1179.45 462.599C1164.14 470.594 1153.24 485.465 1150.26 502.374C1149.69 505.575 1149.41 508.856 1149.41 512.135C1149.41 533.043 1160.91 552.059 1179.41 561.77C1184.02 564.187 1186.6 568.896 1185.97 573.781C1185.05 580.921 1184.07 587.399 1182.98 593.593C1181.89 599.788 1180.49 606.67 1178.84 613.974C1177.79 618.621 1173.77 622.076 1168.61 622.76C1147.87 625.522 1130.57 639.418 1123.42 659.035C1122.3 662.127 1121.44 665.327 1120.87 668.547C1117.89 685.476 1123.03 703.188 1134.64 715.928C1137.3 718.843 1138.51 722.712 1137.88 726.267C1137.69 727.34 1137.33 728.384 1136.83 729.361C1130.54 741.422 1123.65 753.328 1116.36 764.754C1113.78 768.798 1108.78 770.689 1103.63 769.547C1083.21 765.053 1062.19 772.192 1048.77 788.184C1042.45 795.721 1038.21 804.802 1036.51 814.433C1034.67 824.882 1035.81 835.594 1039.82 845.409C1040.77 847.73 1041.06 850.207 1040.64 852.56C1040.23 854.914 1039.04 857.162 1037.26 858.778C1027.31 867.848 1016.73 876.675 1005.8 885.024C1002 887.928 996.678 888.005 992.237 885.201C974.611 874.081 952.463 873.628 934.453 884.029C920.072 892.338 910.167 906.473 907.284 922.82C906.591 926.75 906.322 930.754 906.474 934.731C906.516 935.703 906.447 936.665 906.281 937.611C905.567 941.658 903.039 944.939 899.522 946.401C887.003 951.576 874.05 956.278 861.03 960.379C856.449 961.826 851.408 960.064 848.194 955.892C835.428 939.374 814.765 931.364 794.256 934.978C773.735 938.6 757.021 953.169 750.64 973.002C749.042 977.98 744.917 981.335 740.15 981.53C726.4 982.111 712.572 982.1 699.044 981.481C694.28 981.261 690.18 977.908 688.579 972.934C682.221 953.078 665.547 938.512 645.073 934.901C624.599 931.291 603.926 939.232 591.152 955.643C587.948 959.76 582.941 961.496 578.402 960.056C565.396 955.956 552.372 951.212 539.703 945.952C535.303 944.13 532.583 939.569 532.782 934.354C533.575 913.556 522.897 894.187 504.926 883.809C486.927 873.416 464.816 873.792 447.208 884.791C442.758 887.571 437.444 887.477 433.652 884.564C422.716 876.157 412.121 867.252 402.158 858.103C399.363 855.529 398.109 851.581 398.821 847.543C398.986 846.608 399.25 845.689 399.61 844.798C401.086 841.149 402.187 837.322 402.871 833.442C405.747 817.134 401.303 800.53 390.681 787.863C377.373 772.001 356.54 764.784 336.288 769.011C331.185 770.081 326.231 768.172 323.678 764.168C316.247 752.521 309.299 740.502 303.026 728.449C301.918 726.325 301.563 723.906 301.994 721.464C302.405 719.13 303.495 716.925 305.161 715.077C312.185 707.258 316.864 697.654 318.686 687.324C320.374 677.751 319.493 667.828 316.15 658.627C309.055 639.149 291.923 625.223 271.419 622.298C266.249 621.559 262.232 618.079 261.204 613.429C258.253 600.105 255.859 586.441 254.09 572.807C253.946 571.725 253.975 570.634 254.165 569.561C254.788 566.025 257.222 562.819 260.664 560.979C275.748 552.946 286.519 538.162 289.467 521.44C290.032 518.239 290.314 514.968 290.313 511.689C290.31 490.973 278.976 472.038 260.725 462.27C256.187 459.845 253.638 455.242 254.231 450.554C255.164 443.245 256.159 436.627 257.272 430.315M255.272 430.023C254.076 436.808 253.083 443.589 252.226 450.353C251.503 456.064 254.68 461.366 259.766 464.081C276.756 473.169 288.297 491.106 288.304 511.74C288.307 514.95 288.027 518.089 287.489 521.142C284.57 537.696 274.073 551.615 259.718 559.258C255.762 561.364 252.931 565.038 252.188 569.253C251.969 570.494 251.934 571.787 252.1 573.096C253.887 586.855 256.27 600.466 259.243 613.896C260.499 619.56 265.381 623.488 271.126 624.308C290.212 627.033 307.199 639.939 314.268 659.341C317.613 668.532 318.294 678.024 316.711 687.006C314.959 696.943 310.426 706.237 303.666 713.767C301.757 715.898 300.491 718.467 300.019 721.146C299.533 723.904 299.889 726.779 301.255 729.396C307.642 741.662 314.57 753.626 321.99 765.272C325.109 770.158 331.027 772.186 336.699 771.003C355.549 767.066 375.89 773.385 389.15 789.177C399.797 801.869 403.574 818 400.908 833.116C400.25 836.849 399.196 840.522 397.759 844.066C397.345 845.09 397.037 846.142 396.85 847.206C396.053 851.726 397.331 856.399 400.799 859.59C410.919 868.888 421.481 877.747 432.425 886.165C437.04 889.71 443.326 889.59 448.258 886.5C464.643 876.269 486.001 875.212 503.906 885.559C521.822 895.907 531.499 914.967 530.772 934.294C530.551 940.094 533.553 945.589 538.918 947.814C551.567 953.07 564.532 957.804 577.779 961.977C583.309 963.724 589.151 961.464 592.71 956.883C604.602 941.616 624.319 933.283 644.714 936.879C665.109 940.475 680.763 955.126 686.663 973.551C688.43 979.082 693.142 983.223 698.945 983.484C712.797 984.109 726.566 984.11 740.224 983.533C746.034 983.288 750.754 979.155 752.534 973.61C758.468 955.16 774.164 940.544 794.589 936.946C815.016 933.338 834.751 941.773 846.597 957.113C850.169 961.734 856.048 964.04 861.618 962.28C874.734 958.155 887.633 953.474 900.284 948.241C904.642 946.441 907.453 942.478 908.252 937.948C908.441 936.875 908.516 935.761 908.479 934.648C908.326 930.792 908.599 926.941 909.264 923.17C911.94 907.994 921.065 894.077 935.468 885.761C953.419 875.401 974.812 876.564 991.187 886.894C996.112 890.007 1002.4 890.151 1007.04 886.612C1017.93 878.287 1028.48 869.507 1038.62 860.257C1040.81 858.267 1042.13 855.677 1042.62 852.909C1043.11 850.142 1042.78 847.332 1041.68 844.66C1037.81 835.205 1036.71 824.826 1038.48 814.791C1040.07 805.76 1043.99 797.017 1050.31 789.481C1063.67 773.559 1084.25 767.348 1103.2 771.513C1108.91 772.773 1114.9 770.763 1118.05 765.834C1125.38 754.343 1132.25 742.485 1138.6 730.283C1139.22 729.102 1139.63 727.865 1139.85 726.614C1140.6 722.369 1139.16 717.912 1136.12 714.574C1125.07 702.441 1119.9 685.596 1122.84 668.884C1123.39 665.812 1124.2 662.747 1125.3 659.712C1132.41 640.18 1149.63 627.304 1168.87 624.736C1174.62 623.973 1179.5 620.071 1180.78 614.408C1182.32 607.652 1183.74 600.834 1184.95 593.931C1186.17 587.027 1187.1 580.642 1187.95 574.018C1188.69 568.169 1185.55 562.721 1180.34 559.984C1163.12 550.957 1151.4 532.917 1151.4 512.121C1151.4 508.912 1151.68 505.763 1152.22 502.71C1155.16 485.998 1165.82 471.956 1180.36 464.355C1184.37 462.259 1187.25 458.564 1188.01 454.309C1188.23 453.059 1188.26 451.765 1188.09 450.455C1186.3 436.817 1183.93 423.332 1180.98 410.017C1179.72 404.311 1174.78 400.374 1169 399.598C1149.73 397.003 1132.55 384.063 1125.45 364.522C1122.1 355.322 1121.41 345.808 1123 336.826C1124.77 326.771 1129.38 317.37 1136.27 309.801C1138.22 307.657 1139.51 305.062 1139.99 302.354C1140.47 299.645 1140.12 296.711 1138.75 294.092C1132.39 281.924 1125.5 270.047 1118.12 258.489C1114.98 253.58 1109.03 251.566 1103.33 252.785C1084.39 256.867 1063.89 250.581 1050.56 234.696C1039.91 221.993 1036.13 205.842 1038.8 190.716C1039.47 186.914 1040.55 183.174 1042.03 179.566C1042.45 178.525 1042.77 177.443 1042.96 176.359C1043.76 171.829 1042.48 167.156 1039 163.974C1028.91 154.722 1018.39 145.911 1007.49 137.541C1002.86 133.982 996.555 134.13 991.62 137.241C975.206 147.577 953.776 148.693 935.796 138.313C917.843 127.948 908.156 108.826 908.918 89.4738C909.152 83.656 906.133 78.1481 900.758 75.9209C888.133 70.6992 875.205 65.9827 861.986 61.8242C856.454 60.0871 850.611 62.3569 847.051 66.9384C835.164 82.2367 815.395 90.5806 794.98 86.9808C774.565 83.3811 758.993 68.7853 753.071 50.3672C751.295 44.8347 746.591 40.705 740.786 40.4533C726.913 39.8348 713.132 39.842 699.45 40.4452C693.649 40.6916 688.951 44.8185 687.164 50.3422C681.208 68.7475 665.508 83.3227 645.115 86.916C624.772 90.5081 605.135 82.1512 593.269 66.9194C589.692 62.3284 583.829 60.0457 578.271 61.7971C565.099 65.953 552.146 70.6551 539.449 75.9202C535.1 77.7224 532.289 81.6845 531.49 86.2146C531.304 87.2684 531.225 88.3511 531.264 89.4546C531.391 93.224 531.123 96.9946 530.471 100.688C527.796 115.864 518.657 129.798 504.254 138.114C486.415 148.412 465.184 147.309 448.842 137.137C443.919 134.075 437.666 133.947 433.054 137.47C422.09 145.864 411.472 154.714 401.267 164.044C399.088 166.036 397.758 168.624 397.27 171.392C396.8 174.06 397.11 176.908 398.167 179.551C401.92 188.905 402.974 199.164 401.226 209.081C399.633 218.112 395.714 226.864 389.389 234.4C376.134 250.199 355.773 256.428 336.922 252.423C331.245 251.219 325.306 253.228 322.187 258.131C314.792 269.723 307.88 281.685 301.474 294C300.86 295.181 300.45 296.408 300.23 297.659C299.488 301.864 300.892 306.285 303.869 309.613C314.722 321.721 319.768 338.421 316.848 354.986C316.306 358.058 315.491 361.123 314.388 364.158C307.339 383.518 290.355 396.333 271.277 399.031C265.571 399.833 260.762 403.727 259.488 409.341C257.939 416.166 256.501 423.051 255.272 430.023Z" />
        </mask>
        <path
            d="M261.43 409.785L262.405 410.006L262.405 410.006L261.43 409.785ZM271.557 401.01L271.417 400.02L271.417 400.02L271.557 401.01ZM316.267 364.845L317.206 365.187L317.207 365.186L316.267 364.845ZM305.355 308.27L306.1 307.603L306.1 307.603L305.355 308.27ZM303.243 294.91L302.356 294.449L302.355 294.45L303.243 294.91ZM323.867 259.199L323.025 258.661L323.024 258.661L323.867 259.199ZM336.506 254.381L336.297 255.359L336.299 255.359L336.506 254.381ZM390.919 235.686L391.685 236.328L391.685 236.328L390.919 235.686ZM400.023 178.812L399.095 179.184L399.095 179.184L400.023 178.812ZM402.611 165.52L401.936 164.782L401.934 164.784L402.611 165.52ZM434.266 139.065L433.659 138.27L433.658 138.27L434.266 139.065ZM447.78 138.838L448.309 137.989L448.308 137.989L447.78 138.838ZM505.249 139.843L504.749 138.977L504.749 138.977L505.249 139.843ZM533.248 89.3779L534.247 89.3424L534.247 89.3406L533.248 89.3779ZM540.199 77.7686L539.816 76.8448L539.815 76.8451L540.199 77.7686ZM578.86 63.6982L578.559 62.7443L578.558 62.7446L578.86 63.6982ZM591.683 68.1424L592.472 67.5281L592.472 67.5277L591.683 68.1424ZM645.458 88.8855L645.284 87.9007L645.284 87.9007L645.458 88.8855ZM689.067 50.9519L690.019 51.2598L690.019 51.2597L689.067 50.9519ZM699.544 42.442L699.501 41.4429L699.501 41.4429L699.544 42.442ZM740.708 42.4501L740.752 41.4511L740.752 41.4511L740.708 42.4501ZM751.177 50.9774L750.224 51.283L750.224 51.2833L751.177 50.9774ZM848.643 68.1634L847.854 67.5492L847.854 67.5495L848.643 68.1634ZM861.396 63.7307L861.096 64.6845L861.096 64.6847L861.396 63.7307ZM900.005 77.7683L899.623 78.6924L899.624 78.6926L900.005 77.7683ZM906.933 89.3878L905.934 89.3473L905.934 89.3485L906.933 89.3878ZM934.811 140.038L934.311 140.904L934.311 140.904L934.811 140.038ZM992.704 138.924L993.237 139.771L993.237 139.77L992.704 138.924ZM1006.29 139.116L1006.9 138.323L1006.9 138.322L1006.29 139.116ZM1037.66 165.444L1038.34 164.708L1038.34 164.707L1037.66 165.444ZM1040.19 178.796L1041.12 179.177L1041.12 179.169L1040.19 178.796ZM1049.05 235.983L1048.28 236.625L1048.28 236.625L1049.05 235.983ZM1103.77 254.74L1103.56 253.763L1103.56 253.763L1103.77 254.74ZM1116.44 259.565L1115.6 260.103L1115.6 260.103L1116.44 259.565ZM1136.98 295.019L1136.09 295.482L1136.1 295.484L1136.98 295.019ZM1134.79 308.454L1134.06 307.778L1134.05 307.78L1134.79 308.454ZM1123.57 365.207L1124.51 364.865L1124.51 364.864L1123.57 365.207ZM1168.74 401.583L1168.87 400.592L1168.87 400.592L1168.74 401.583ZM1179.04 410.457L1180.02 410.241L1180.02 410.241L1179.04 410.457ZM1186.12 450.727L1185.13 450.858L1185.13 450.86L1186.12 450.727ZM1179.45 462.599L1179.91 463.485L1179.91 463.485L1179.45 462.599ZM1149.41 512.135L1150.41 512.136L1150.41 512.135L1149.41 512.135ZM1179.41 561.77L1178.95 562.656L1178.95 562.656L1179.41 561.77ZM1185.97 573.781L1184.98 573.653L1184.98 573.654L1185.97 573.781ZM1178.84 613.974L1179.82 614.195L1179.82 614.194L1178.84 613.974ZM1168.61 622.76L1168.48 621.769L1168.48 621.769L1168.61 622.76ZM1123.42 659.035L1122.48 658.693L1122.48 658.694L1123.42 659.035ZM1134.64 715.928L1135.38 715.255L1135.38 715.254L1134.64 715.928ZM1136.83 729.361L1137.71 729.823L1137.71 729.822L1136.83 729.361ZM1116.36 764.754L1117.2 765.293L1117.2 765.293L1116.36 764.754ZM1103.63 769.547L1103.85 768.571L1103.85 768.571L1103.63 769.547ZM1048.77 788.184L1049.54 788.827L1049.54 788.827L1048.77 788.184ZM1039.82 845.409L1038.89 845.787L1038.89 845.788L1039.82 845.409ZM1037.26 858.778L1036.59 858.038L1036.59 858.039L1037.26 858.778ZM1005.8 885.024L1006.41 885.819L1006.41 885.819L1005.8 885.024ZM992.237 885.201L992.771 884.355L992.771 884.355L992.237 885.201ZM934.453 884.029L933.953 883.163L933.953 883.163L934.453 884.029ZM906.474 934.731L905.474 934.769L905.475 934.774L906.474 934.731ZM899.522 946.401L899.904 947.325L899.905 947.324L899.522 946.401ZM861.03 960.379L860.729 959.425L860.728 959.425L861.03 960.379ZM848.194 955.892L848.986 955.282L848.985 955.28L848.194 955.892ZM794.256 934.978L794.082 933.993L794.082 933.993L794.256 934.978ZM750.64 973.002L749.689 972.696L749.688 972.696L750.64 973.002ZM740.15 981.53L740.109 980.531L740.108 980.531L740.15 981.53ZM699.044 981.481L698.998 982.48L698.999 982.48L699.044 981.481ZM688.579 972.934L687.627 973.239L687.628 973.24L688.579 972.934ZM591.152 955.643L590.363 955.029L590.363 955.029L591.152 955.643ZM578.402 960.056L578.704 959.103L578.703 959.103L578.402 960.056ZM539.703 945.952L540.086 945.029L540.086 945.028L539.703 945.952ZM532.782 934.354L531.783 934.316L531.783 934.316L532.782 934.354ZM504.926 883.809L505.426 882.943L505.426 882.943L504.926 883.809ZM447.208 884.791L447.738 885.64L447.738 885.639L447.208 884.791ZM433.652 884.564L433.042 885.357L433.043 885.357L433.652 884.564ZM402.158 858.103L401.481 858.839L401.482 858.84L402.158 858.103ZM399.61 844.798L398.683 844.423L398.683 844.424L399.61 844.798ZM390.681 787.863L391.447 787.22L391.447 787.22L390.681 787.863ZM336.288 769.011L336.084 768.032L336.083 768.033L336.288 769.011ZM323.678 764.168L324.521 763.63L324.521 763.63L323.678 764.168ZM303.026 728.449L303.913 727.988L303.913 727.987L303.026 728.449ZM305.161 715.077L305.904 715.746L305.905 715.745L305.161 715.077ZM316.15 658.627L317.09 658.286L317.09 658.285L316.15 658.627ZM271.419 622.298L271.278 623.288L271.278 623.288L271.419 622.298ZM261.204 613.429L262.18 613.214L262.18 613.213L261.204 613.429ZM254.09 572.807L255.082 572.678L255.081 572.675L254.09 572.807ZM260.664 560.979L260.194 560.096L260.192 560.097L260.664 560.979ZM290.313 511.689L291.313 511.688L290.313 511.689ZM260.725 462.27L261.197 461.388L261.197 461.388L260.725 462.27ZM254.231 450.554L253.239 450.428L253.239 450.429L254.231 450.554ZM252.226 450.353L251.233 450.227L251.233 450.227L252.226 450.353ZM259.766 464.081L260.238 463.199L260.237 463.199L259.766 464.081ZM288.304 511.74L287.304 511.741L287.304 511.741L288.304 511.74ZM259.718 559.258L260.188 560.141L260.188 560.141L259.718 559.258ZM252.1 573.096L251.107 573.221L251.108 573.225L252.1 573.096ZM259.243 613.896L258.267 614.112L258.267 614.112L259.243 613.896ZM271.126 624.308L271.267 623.318L271.267 623.318L271.126 624.308ZM314.268 659.341L315.207 658.999L315.207 658.999L314.268 659.341ZM303.666 713.767L302.921 713.099L302.921 713.1L303.666 713.767ZM301.255 729.396L302.142 728.934L302.141 728.933L301.255 729.396ZM321.99 765.272L321.147 765.809L321.147 765.81L321.99 765.272ZM336.699 771.003L336.903 771.982L336.903 771.982L336.699 771.003ZM389.15 789.177L389.916 788.534L389.915 788.534L389.15 789.177ZM397.759 844.066L396.832 843.69L396.832 843.691L397.759 844.066ZM400.799 859.59L400.122 860.326L400.123 860.326L400.799 859.59ZM432.425 886.165L431.815 886.958L431.816 886.958L432.425 886.165ZM448.258 886.5L447.728 885.651L447.727 885.652L448.258 886.5ZM503.906 885.559L503.406 886.424L503.406 886.425L503.906 885.559ZM530.772 934.294L531.771 934.332L531.771 934.332L530.772 934.294ZM538.918 947.814L539.302 946.891L539.301 946.89L538.918 947.814ZM577.779 961.977L578.08 961.024L578.079 961.024L577.779 961.977ZM592.71 956.883L591.921 956.268L591.921 956.269L592.71 956.883ZM686.663 973.551L687.616 973.247L687.616 973.246L686.663 973.551ZM698.945 983.484L698.99 982.485L698.99 982.485L698.945 983.484ZM740.224 983.533L740.181 982.534L740.181 982.534L740.224 983.533ZM752.534 973.61L751.582 973.304L751.582 973.304L752.534 973.61ZM794.589 936.946L794.763 937.931L794.763 937.931L794.589 936.946ZM846.597 957.113L845.806 957.725L845.806 957.725L846.597 957.113ZM861.618 962.28L861.318 961.326L861.317 961.327L861.618 962.28ZM900.284 948.241L899.902 947.317L899.901 947.317L900.284 948.241ZM908.479 934.648L909.478 934.614L909.478 934.608L908.479 934.648ZM935.468 885.761L934.968 884.895L934.968 884.895L935.468 885.761ZM991.187 886.894L991.722 886.049L991.721 886.049L991.187 886.894ZM1007.04 886.612L1007.64 887.407L1007.64 887.407L1007.04 886.612ZM1038.62 860.257L1037.95 859.517L1037.95 859.518L1038.62 860.257ZM1041.68 844.66L1040.75 845.039L1040.75 845.042L1041.68 844.66ZM1050.31 789.481L1051.08 790.124L1051.08 790.124L1050.31 789.481ZM1103.2 771.513L1103.42 770.537L1103.42 770.536L1103.2 771.513ZM1118.05 765.834L1117.2 765.296L1117.2 765.296L1118.05 765.834ZM1138.6 730.283L1139.49 730.745L1139.49 730.745L1138.6 730.283ZM1136.12 714.574L1136.86 713.901L1136.86 713.901L1136.12 714.574ZM1125.3 659.712L1124.37 659.37L1124.36 659.37L1125.3 659.712ZM1168.87 624.736L1168.74 623.745L1168.74 623.745L1168.87 624.736ZM1180.78 614.408L1179.81 614.186L1179.81 614.187L1180.78 614.408ZM1187.95 574.018L1186.96 573.891L1186.96 573.892L1187.95 574.018ZM1180.34 559.984L1180.8 559.098L1180.8 559.098L1180.34 559.984ZM1151.4 512.121L1152.4 512.121L1152.4 512.12L1151.4 512.121ZM1180.36 464.355L1180.83 465.242L1180.83 465.241L1180.36 464.355ZM1188.09 450.455L1187.09 450.585L1187.09 450.587L1188.09 450.455ZM1180.98 410.017L1180 410.232L1180 410.233L1180.98 410.017ZM1169 399.598L1168.86 400.589L1168.86 400.589L1169 399.598ZM1125.45 364.522L1124.51 364.864L1124.51 364.864L1125.45 364.522ZM1136.27 309.801L1135.53 309.128L1135.53 309.128L1136.27 309.801ZM1138.75 294.092L1137.86 294.555L1137.86 294.557L1138.75 294.092ZM1118.12 258.489L1117.27 259.027L1117.27 259.027L1118.12 258.489ZM1103.33 252.785L1103.12 251.807L1103.12 251.807L1103.33 252.785ZM1050.56 234.696L1051.33 234.054L1051.33 234.054L1050.56 234.696ZM1042.03 179.566L1041.1 179.187L1041.1 179.187L1042.03 179.566ZM1039 163.974L1038.32 164.711L1038.32 164.712L1039 163.974ZM1007.49 137.541L1006.88 138.334L1006.88 138.334L1007.49 137.541ZM991.62 137.241L992.153 138.087L992.153 138.087L991.62 137.241ZM935.796 138.313L935.296 139.179L935.296 139.179L935.796 138.313ZM908.918 89.4738L907.919 89.4337L907.919 89.4345L908.918 89.4738ZM900.758 75.9209L901.14 74.997L901.14 74.9968L900.758 75.9209ZM861.986 61.8242L862.287 60.8702L862.286 60.8701L861.986 61.8242ZM847.051 66.9384L847.841 67.552L847.841 67.552L847.051 66.9384ZM753.071 50.3672L752.119 50.6729L752.119 50.6733L753.071 50.3672ZM740.786 40.4533L740.742 41.4523L740.743 41.4523L740.786 40.4533ZM699.45 40.4452L699.492 41.4443L699.494 41.4442L699.45 40.4452ZM687.164 50.3422L688.116 50.6501L688.116 50.6499L687.164 50.3422ZM645.115 86.916L644.941 85.9312L644.941 85.9312L645.115 86.916ZM593.269 66.9194L594.058 66.3048L594.058 66.3047L593.269 66.9194ZM578.271 61.7971L577.97 60.8433L577.97 60.8434L578.271 61.7971ZM539.449 75.9202L539.831 76.844L539.832 76.8439L539.449 75.9202ZM531.264 89.4546L532.264 89.4208L532.263 89.4193L531.264 89.4546ZM504.254 138.114L504.754 138.98L504.754 138.98L504.254 138.114ZM448.842 137.137L449.37 136.288L449.37 136.287L448.842 137.137ZM433.054 137.47L432.447 136.675L432.446 136.676L433.054 137.47ZM401.267 164.044L401.942 164.782L401.942 164.782L401.267 164.044ZM398.167 179.551L397.238 179.923L397.239 179.924L398.167 179.551ZM389.389 234.4L388.623 233.757L388.623 233.758L389.389 234.4ZM336.922 252.423L337.13 251.445L337.13 251.445L336.922 252.423ZM322.187 258.131L323.03 258.669L323.031 258.668L322.187 258.131ZM301.474 294L302.361 294.461L302.361 294.461L301.474 294ZM303.869 309.613L303.124 310.279L303.125 310.28L303.869 309.613ZM314.388 364.158L315.327 364.5L315.327 364.5L314.388 364.158ZM271.277 399.031L271.416 400.022L271.417 400.022L271.277 399.031ZM259.488 409.341L258.512 409.119L258.512 409.12L259.488 409.341ZM258.226 430.544C259.364 424.092 260.731 417.374 262.405 410.006L260.455 409.563C258.775 416.958 257.401 423.708 256.257 430.197L258.226 430.544ZM262.405 410.006C263.349 405.85 266.955 402.674 271.698 402L271.417 400.02C265.953 400.796 261.603 404.503 260.455 409.564L262.405 410.006ZM271.698 402C292.577 399.047 310.012 384.943 317.206 365.187L315.327 364.502C308.387 383.562 291.569 397.17 271.417 400.02L271.698 402ZM317.207 365.186C318.35 362.04 319.224 358.785 319.802 355.507L317.832 355.159C317.275 358.322 316.431 361.465 315.327 364.503L317.207 365.186ZM319.802 355.507C322.811 338.442 317.69 320.541 306.1 307.603L304.61 308.937C315.792 321.42 320.734 338.701 317.832 355.159L319.802 355.507ZM306.1 307.603C303.679 304.902 302.613 301.362 303.176 298.168L301.207 297.821C300.526 301.678 301.821 305.826 304.61 308.938L306.1 307.603ZM303.176 298.168C303.347 297.198 303.668 296.261 304.13 295.371L302.355 294.45C301.803 295.514 301.414 296.644 301.207 297.821L303.176 298.168ZM304.13 295.372C310.447 283.222 317.374 271.231 324.71 259.737L323.024 258.661C315.657 270.205 308.7 282.247 302.356 294.449L304.13 295.372ZM324.71 259.738C327.025 256.115 331.537 254.34 336.297 255.359L336.715 253.403C331.24 252.231 325.842 254.253 323.025 258.661L324.71 259.738ZM336.299 255.359C356.941 259.733 378.155 252.445 391.685 236.328L390.153 235.043C377.1 250.591 356.635 257.623 336.713 253.403L336.299 255.359ZM391.685 236.328C398.123 228.649 402.451 219.408 404.18 209.602L402.21 209.255C400.543 218.712 396.368 227.63 390.153 235.043L391.685 236.328ZM404.18 209.602C406.032 199.098 404.913 188.327 400.952 178.441L399.095 179.184C402.918 188.725 403.998 199.118 402.21 209.255L404.18 209.602ZM400.952 178.441C400.094 176.299 399.849 174.044 400.225 171.913L398.255 171.565C397.811 174.082 398.106 176.715 399.095 179.184L400.952 178.441ZM400.225 171.913C400.618 169.681 401.684 167.731 403.288 166.256L401.934 164.784C399.999 166.563 398.723 168.912 398.255 171.565L400.225 171.913ZM403.286 166.258C413.286 157.119 423.91 148.242 434.873 139.859L433.658 138.27C422.65 146.688 411.981 155.603 401.936 164.782L403.286 166.258ZM434.873 139.859C438.282 137.254 443.132 137.128 447.253 139.688L448.308 137.989C443.57 135.046 437.807 135.1 433.659 138.27L434.873 139.859ZM447.252 139.687C465.142 150.82 487.554 151.217 505.749 140.709L504.749 138.977C487.196 149.114 465.574 148.733 448.309 137.989L447.252 139.687ZM505.749 140.709C520.396 132.254 530.482 117.846 533.418 101.197L531.448 100.85C528.615 116.916 518.884 130.817 504.749 138.977L505.749 140.709ZM533.418 101.197C534.107 97.2877 534.387 93.2958 534.247 89.3424L532.248 89.4133C532.383 93.2258 532.113 97.0774 531.448 100.85L533.418 101.197ZM534.247 89.3406C534.214 88.4605 534.276 87.5783 534.425 86.7321L532.455 86.3848C532.281 87.3704 532.21 88.394 532.248 89.4152L534.247 89.3406ZM534.425 86.7321C535.085 82.9903 537.408 80.0111 540.583 78.6921L539.815 76.8451C535.955 78.449 533.223 82.0315 532.455 86.3848L534.425 86.7321ZM540.582 78.6924C553.087 73.511 566.069 68.788 579.161 64.6517L578.558 62.7446C565.412 66.8981 552.376 71.6408 539.816 76.8448L540.582 78.6924ZM579.16 64.652C583.283 63.354 587.889 64.9013 590.894 68.7572L592.472 67.5277C589.018 63.0961 583.575 61.1655 578.559 62.7443L579.16 64.652ZM590.894 68.7568C603.887 85.444 624.86 93.5362 645.632 89.8702L645.284 87.9007C625.245 91.4374 605.012 83.6329 592.472 67.5281L590.894 68.7568ZM645.631 89.8703C666.495 86.1908 683.503 71.3912 690.019 51.2598L688.116 50.644C681.828 70.0703 665.419 84.3496 645.284 87.9007L645.631 89.8703ZM690.019 51.2597C691.513 46.6412 695.297 43.6276 699.588 43.441L699.501 41.4429C694.276 41.6701 689.835 45.3297 688.116 50.6441L690.019 51.2597ZM699.588 43.441C713.29 42.8478 727.111 42.8528 740.664 43.4492L740.752 41.4511C727.14 40.8521 713.262 40.8471 699.501 41.4429L699.588 43.441ZM740.664 43.4491C744.962 43.6392 748.744 46.6693 750.224 51.283L752.129 50.6718C750.424 45.3616 745.986 41.6826 740.752 41.4511L740.664 43.4491ZM750.224 51.2833C756.703 71.452 773.66 86.2576 794.471 89.9271L794.818 87.9575C774.74 84.4172 758.381 70.1357 752.129 50.6716L750.224 51.2833ZM794.471 89.9271C815.279 93.5962 836.427 85.5016 849.432 68.7773L847.854 67.5495C835.305 83.6869 814.899 91.4983 794.818 87.9575L794.471 89.9271ZM849.432 68.7776C852.412 64.9482 857.003 63.3954 861.096 64.6845L861.697 62.7769C856.708 61.2056 851.281 63.146 847.854 67.5492L849.432 68.7776ZM861.096 64.6847C874.008 68.7446 886.977 73.4632 899.623 78.6924L900.388 76.8442C887.689 71.5931 874.665 66.8545 861.696 62.7767L861.096 64.6847ZM899.624 78.6926C903.609 80.3385 906.131 84.4812 905.934 89.3473L907.932 89.4283C908.159 83.829 905.242 78.8488 900.387 76.844L899.624 78.6926ZM905.934 89.3485C905.099 110.552 915.972 130.311 934.311 140.904L935.311 139.172C917.617 128.952 907.126 109.891 907.932 89.4271L905.934 89.3485ZM934.311 140.904C952.697 151.515 975.275 151.083 993.237 139.771L992.171 138.078C974.837 148.995 953.054 149.412 935.311 139.172L934.311 140.904ZM993.237 139.77C997.371 137.165 1002.25 137.28 1005.68 139.91L1006.9 138.322C1002.72 135.123 996.924 135.082 992.171 138.078L993.237 139.77ZM1005.68 139.909C1016.52 148.235 1027.05 157.074 1036.99 166.181L1038.34 164.707C1028.36 155.56 1017.79 146.684 1006.9 138.323L1005.68 139.909ZM1036.99 166.181C1039.52 168.505 1040.67 172.097 1040.01 175.83L1041.98 176.178C1042.75 171.836 1041.42 167.536 1038.34 164.708L1036.99 166.181ZM1040.01 175.83C1039.86 176.702 1039.6 177.581 1039.26 178.423L1041.12 179.169C1041.51 178.21 1041.8 177.197 1041.98 176.178L1040.01 175.83ZM1039.27 178.416C1037.71 182.194 1036.57 186.158 1035.86 190.187L1037.83 190.534C1038.51 186.645 1039.62 182.82 1041.12 179.177L1039.27 178.416ZM1035.86 190.187C1032.93 206.796 1037.46 223.72 1048.28 236.625L1049.81 235.34C1039.37 222.888 1035 206.562 1037.83 190.534L1035.86 190.187ZM1048.28 236.625C1061.91 252.867 1083.26 260.187 1103.98 255.718L1103.56 253.763C1083.56 258.075 1062.97 251.014 1049.81 235.34L1048.28 236.625ZM1103.98 255.718C1108.75 254.689 1113.28 256.458 1115.6 260.103L1117.29 259.027C1114.46 254.593 1109.05 252.58 1103.56 253.763L1103.98 255.718ZM1115.6 260.103C1122.97 271.647 1129.87 283.553 1136.09 295.482L1137.87 294.556C1131.61 282.575 1124.69 270.618 1117.29 259.027L1115.6 260.103ZM1136.1 295.484C1137.11 297.406 1137.43 299.598 1137.04 301.833L1139.01 302.18C1139.48 299.53 1139.09 296.885 1137.87 294.554L1136.1 295.484ZM1137.04 301.833C1136.64 304.076 1135.63 306.056 1134.06 307.778L1135.53 309.129C1137.35 307.144 1138.54 304.821 1139.01 302.18L1137.04 301.833ZM1134.05 307.78C1126.76 315.786 1121.92 325.651 1120.04 336.305L1122.01 336.653C1123.83 326.37 1128.5 316.852 1135.53 309.127L1134.05 307.78ZM1120.04 336.305C1118.32 346.071 1119.22 356.183 1122.63 365.549L1124.51 364.864C1121.21 355.826 1120.35 346.071 1122.01 336.653L1120.04 336.305ZM1122.63 365.548C1129.9 385.547 1147.53 399.735 1168.6 402.574L1168.87 400.592C1148.53 397.853 1131.53 384.165 1124.51 364.865L1122.63 365.548ZM1168.6 402.574C1173.46 403.231 1177.13 406.442 1178.07 410.674L1180.02 410.241C1178.88 405.088 1174.45 401.347 1168.87 400.592L1168.6 402.574ZM1178.07 410.673C1180.99 423.864 1183.36 437.383 1185.13 450.858L1187.11 450.597C1185.33 437.066 1182.96 423.489 1180.02 410.241L1178.07 410.673ZM1185.13 450.86C1185.26 451.835 1185.23 452.833 1185.06 453.8L1187.03 454.147C1187.23 452.988 1187.27 451.783 1187.11 450.595L1185.13 450.86ZM1185.06 453.8C1184.49 457.029 1182.24 460.012 1178.98 461.713L1179.91 463.485C1183.66 461.526 1186.34 458.048 1187.03 454.147L1185.06 453.8ZM1178.98 461.713C1163.41 469.85 1152.31 484.984 1149.27 502.201L1151.24 502.548C1154.17 485.946 1164.88 471.337 1179.91 463.485L1178.98 461.713ZM1149.27 502.201C1148.7 505.46 1148.41 508.798 1148.41 512.136L1150.41 512.135C1150.41 508.913 1150.69 505.691 1151.24 502.548L1149.27 502.201ZM1148.41 512.135C1148.41 533.415 1160.12 552.772 1178.95 562.656L1179.88 560.885C1161.7 551.347 1150.41 532.671 1150.41 512.136L1148.41 512.135ZM1178.95 562.656C1183.22 564.894 1185.55 569.214 1184.98 573.653L1186.96 573.908C1187.65 568.577 1184.83 563.481 1179.88 560.885L1178.95 562.656ZM1184.98 573.654C1184.06 580.78 1183.09 587.242 1182 593.42L1183.97 593.767C1185.06 587.555 1186.04 581.061 1186.96 573.908L1184.98 573.654ZM1182 593.42C1180.91 599.596 1179.52 606.462 1177.87 613.753L1179.82 614.194C1181.47 606.877 1182.87 599.979 1183.97 593.767L1182 593.42ZM1177.87 613.753C1176.92 617.945 1173.27 621.133 1168.48 621.769L1168.74 623.752C1174.26 623.018 1178.66 619.297 1179.82 614.195L1177.87 613.753ZM1168.48 621.769C1147.37 624.58 1129.76 638.725 1122.48 658.693L1124.36 659.377C1131.38 640.111 1148.37 626.464 1168.74 623.752L1168.48 621.769ZM1122.48 658.694C1121.34 661.839 1120.47 665.095 1119.89 668.373L1121.86 668.72C1122.42 665.558 1123.26 662.415 1124.36 659.377L1122.48 658.694ZM1119.89 668.373C1116.85 685.608 1122.08 703.633 1133.91 716.602L1135.38 715.254C1123.98 702.743 1118.93 685.343 1121.86 668.72L1119.89 668.373ZM1133.91 716.601C1136.37 719.311 1137.46 722.873 1136.89 726.093L1138.86 726.44C1139.55 722.55 1138.23 718.376 1135.38 715.255L1133.91 716.601ZM1136.89 726.093C1136.72 727.064 1136.4 728.011 1135.94 728.9L1137.71 729.822C1138.27 728.757 1138.66 727.616 1138.86 726.44L1136.89 726.093ZM1135.94 728.898C1129.66 740.934 1122.79 752.814 1115.52 764.216L1117.2 765.293C1124.51 753.841 1131.41 741.91 1137.71 729.823L1135.94 728.898ZM1115.52 764.216C1113.19 767.863 1108.64 769.633 1103.85 768.571L1103.42 770.524C1108.93 771.745 1114.37 769.732 1117.2 765.293L1115.52 764.216ZM1103.85 768.571C1083.07 763.997 1061.67 771.263 1048.01 787.542L1049.54 788.827C1062.72 773.121 1083.36 766.11 1103.42 770.524L1103.85 768.571ZM1048.01 787.541C1041.57 795.211 1037.25 804.455 1035.52 814.26L1037.49 814.607C1039.16 805.149 1043.33 796.23 1049.54 788.827L1048.01 787.541ZM1035.52 814.26C1033.65 824.894 1034.82 835.798 1038.89 845.787L1040.75 845.031C1036.81 835.391 1035.68 824.87 1037.49 814.607L1035.52 814.26ZM1038.89 845.788C1039.78 847.943 1040.04 850.229 1039.66 852.387L1041.63 852.734C1042.08 850.184 1041.76 847.516 1040.75 845.03L1038.89 845.788ZM1039.66 852.387C1039.28 854.534 1038.19 856.579 1036.59 858.038L1037.93 859.518C1039.88 857.744 1041.17 855.293 1041.63 852.734L1039.66 852.387ZM1036.59 858.039C1026.66 867.089 1016.1 875.897 1005.2 884.23L1006.41 885.819C1017.36 877.452 1027.97 868.607 1037.93 859.516L1036.59 858.039ZM1005.2 884.229C1001.77 886.85 996.902 886.963 992.771 884.355L991.704 886.046C996.454 889.046 1002.24 889.006 1006.41 885.819L1005.2 884.229ZM992.771 884.355C974.831 873.038 952.285 872.576 933.953 883.163L934.953 884.895C952.64 874.681 974.39 875.124 991.704 886.047L992.771 884.355ZM933.953 883.163C919.316 891.62 909.233 906.008 906.299 922.647L908.269 922.994C911.1 906.938 920.827 893.056 934.953 884.895L933.953 883.163ZM906.299 922.647C905.594 926.647 905.32 930.722 905.474 934.769L907.473 934.693C907.324 930.786 907.589 926.853 908.269 922.994L906.299 922.647ZM905.475 934.774C905.513 935.67 905.45 936.56 905.296 937.437L907.265 937.785C907.444 936.771 907.518 935.735 907.473 934.688L905.475 934.774ZM905.296 937.437C904.636 941.179 902.312 944.158 899.138 945.477L899.905 947.324C903.765 945.72 906.498 942.138 907.265 937.785L905.296 937.437ZM899.14 945.477C886.648 950.64 873.722 955.332 860.729 959.425L861.33 961.333C874.377 957.223 887.358 952.511 899.904 947.325L899.14 945.477ZM860.728 959.425C856.597 960.73 851.977 959.163 848.986 955.282L847.402 956.502C850.84 960.964 856.301 962.921 861.331 961.333L860.728 959.425ZM848.985 955.28C835.993 938.47 814.958 930.315 794.082 933.993L794.429 935.963C814.571 932.414 834.863 940.279 847.402 956.503L848.985 955.28ZM794.082 933.993C773.196 937.679 756.183 952.509 749.689 972.696L751.592 973.308C757.86 953.828 774.274 939.52 794.43 935.963L794.082 933.993ZM749.688 972.696C748.202 977.326 744.406 980.355 740.109 980.531L740.191 982.529C745.428 982.315 749.882 978.634 751.593 973.308L749.688 972.696ZM740.108 980.531C726.387 981.111 712.588 981.099 699.09 980.482L698.999 982.48C712.557 983.1 726.414 983.111 740.193 982.529L740.108 980.531ZM699.09 980.482C694.794 980.283 691.021 977.255 689.531 972.628L687.628 973.24C689.34 978.56 693.766 982.238 698.998 982.48L699.09 980.482ZM689.532 972.629C683.06 952.421 666.087 937.591 645.246 933.917L644.899 935.886C665.007 939.432 681.381 953.736 687.627 973.239L689.532 972.629ZM645.246 933.917C624.408 930.242 603.364 938.325 590.363 955.029L591.941 956.258C604.487 940.139 624.789 932.34 644.899 935.886L645.246 933.917ZM590.363 955.029C587.383 958.857 582.795 960.401 578.704 959.103L578.099 961.01C583.086 962.592 588.513 960.662 591.941 956.257L590.363 955.029ZM578.703 959.103C565.725 955.011 552.728 950.277 540.086 945.029L539.32 946.876C552.016 952.147 565.068 956.901 578.101 961.01L578.703 959.103ZM540.086 945.028C536.119 943.386 533.596 939.242 533.781 934.392L531.783 934.316C531.57 939.895 534.486 944.875 539.321 946.876L540.086 945.028ZM533.781 934.392C534.589 913.225 523.719 893.507 505.426 882.943L504.426 884.675C522.074 894.867 532.562 913.887 531.783 934.316L533.781 934.392ZM505.426 882.943C487.107 872.365 464.6 872.748 446.678 883.943L447.738 885.639C465.032 874.836 486.747 874.466 504.426 884.675L505.426 882.943ZM446.679 883.943C442.538 886.529 437.683 886.399 434.261 883.771L433.043 885.357C437.205 888.554 442.978 888.613 447.738 885.64L446.679 883.943ZM434.261 883.771C423.348 875.382 412.776 866.496 402.835 857.367L401.482 858.84C411.466 868.009 422.083 876.932 433.042 885.357L434.261 883.771ZM402.836 857.368C400.312 855.044 399.148 851.449 399.806 847.717L397.836 847.37C397.071 851.713 398.413 856.013 401.481 858.839L402.836 857.368ZM399.806 847.717C399.959 846.851 400.203 846 400.537 845.173L398.683 844.424C398.297 845.379 398.014 846.365 397.836 847.37L399.806 847.717ZM400.537 845.173C402.039 841.46 403.16 837.565 403.856 833.616L401.887 833.269C401.215 837.079 400.133 840.839 398.683 844.423L400.537 845.173ZM403.856 833.616C406.783 817.017 402.259 800.114 391.447 787.22L389.915 788.505C400.346 800.946 404.711 817.251 401.887 833.269L403.856 833.616ZM391.447 787.22C377.903 771.076 356.696 763.73 336.084 768.032L336.492 769.99C356.383 765.838 376.844 772.926 389.915 788.506L391.447 787.22ZM336.083 768.033C331.336 769.028 326.824 767.242 324.521 763.63L322.834 764.706C325.638 769.102 331.033 771.135 336.493 769.99L336.083 768.033ZM324.521 763.63C317.106 752.007 310.172 740.013 303.913 727.988L302.139 728.911C308.425 740.99 315.389 753.034 322.835 764.706L324.521 763.63ZM303.913 727.987C302.911 726.066 302.585 723.872 302.978 721.637L301.009 721.29C300.542 723.94 300.926 726.584 302.14 728.912L303.913 727.987ZM302.978 721.637C303.356 719.496 304.357 717.462 305.904 715.746L304.418 714.407C302.632 716.389 301.454 718.763 301.009 721.29L302.978 721.637ZM305.905 715.745C313.054 707.787 317.816 698.012 319.67 687.497L317.701 687.15C315.912 697.296 311.317 706.728 304.417 714.408L305.905 715.745ZM319.67 687.497C321.389 677.751 320.493 667.649 317.09 658.286L315.21 658.969C318.494 668.006 319.358 677.752 317.701 687.15L319.67 687.497ZM317.09 658.285C309.868 638.461 292.43 624.285 271.56 621.308L271.278 623.288C291.415 626.161 308.241 639.837 315.211 658.97L317.09 658.285ZM271.561 621.308C266.749 620.62 263.107 617.405 262.18 613.214L260.228 613.645C261.357 618.752 265.749 622.498 271.278 623.288L271.561 621.308ZM262.18 613.213C259.236 599.917 256.847 586.283 255.082 572.678L253.098 572.936C254.871 586.599 257.27 600.292 260.228 613.646L262.18 613.213ZM255.081 572.675C254.951 571.699 254.977 570.711 255.15 569.734L253.18 569.387C252.974 570.557 252.94 571.752 253.099 572.939L255.081 572.675ZM255.15 569.734C255.714 566.532 257.936 563.571 261.135 561.861L260.192 560.097C256.508 562.067 253.862 565.519 253.18 569.387L255.15 569.734ZM261.134 561.861C276.487 553.685 287.45 538.641 290.452 521.613L288.482 521.266C285.588 537.683 275.008 552.207 260.194 560.096L261.134 561.861ZM290.452 521.613C291.027 518.354 291.314 515.026 291.313 511.688L289.313 511.689C289.314 514.911 289.036 518.124 288.482 521.266L290.452 521.613ZM291.313 511.688C291.31 490.605 279.774 471.33 261.197 461.388L260.253 463.152C278.179 472.745 289.31 491.342 289.313 511.689L291.313 511.688ZM261.197 461.388C256.982 459.136 254.688 454.911 255.223 450.68L253.239 450.429C252.588 455.574 255.393 460.554 260.254 463.152L261.197 461.388ZM255.223 450.681C256.155 443.385 257.147 436.783 258.257 430.488L256.287 430.141C255.171 436.471 254.174 443.105 253.239 450.428L255.223 450.681ZM254.287 429.849C253.087 436.654 252.093 443.451 251.233 450.227L253.218 450.479C254.074 443.727 255.064 436.963 256.257 430.197L254.287 429.849ZM251.233 450.227C250.452 456.406 253.896 462.081 259.295 464.963L260.237 463.199C255.465 460.652 252.554 455.722 253.218 450.478L251.233 450.227ZM259.295 464.963C275.971 473.883 287.297 491.488 287.304 511.741L289.304 511.74C289.297 490.724 277.541 472.455 260.238 463.199L259.295 464.963ZM287.304 511.741C287.307 514.892 287.032 517.973 286.504 520.968L288.474 521.315C289.022 518.205 289.307 515.008 289.304 511.74L287.304 511.741ZM286.504 520.968C283.64 537.211 273.34 550.873 259.248 558.376L260.188 560.141C274.807 552.357 285.5 538.182 288.474 521.315L286.504 520.968ZM259.248 558.376C255.048 560.611 252.005 564.532 251.203 569.079L253.173 569.426C253.858 565.544 256.477 562.116 260.188 560.141L259.248 558.376ZM251.203 569.079C250.967 570.419 250.93 571.813 251.107 573.221L253.092 572.97C252.939 571.761 252.972 570.568 253.173 569.426L251.203 569.079ZM251.108 573.225C252.899 587.013 255.287 600.653 258.267 614.112L260.22 613.68C257.253 600.279 254.875 586.697 253.091 572.967L251.108 573.225ZM258.267 614.112C259.626 620.244 264.893 624.428 270.984 625.298L271.267 623.318C265.869 622.547 261.371 618.876 260.219 613.68L258.267 614.112ZM270.984 625.298C289.719 627.973 306.391 640.641 313.328 659.684L315.207 658.999C308.008 639.238 290.706 626.094 271.267 623.318L270.984 625.298ZM313.328 659.683C316.611 668.705 317.28 678.019 315.726 686.832L317.696 687.18C319.309 678.03 318.614 668.359 315.207 658.999L313.328 659.683ZM315.726 686.832C314.006 696.584 309.558 705.707 302.921 713.099L304.41 714.435C311.294 706.766 315.911 697.301 317.696 687.18L315.726 686.832ZM302.921 713.1C300.893 715.363 299.54 718.102 299.034 720.972L301.004 721.32C301.442 718.833 302.62 716.433 304.41 714.434L302.921 713.1ZM299.034 720.972C298.512 723.931 298.893 727.033 300.369 729.859L302.141 728.933C300.884 726.525 300.553 723.876 301.004 721.32L299.034 720.972ZM300.368 729.858C306.769 742.15 313.711 754.14 321.147 765.809L322.834 764.734C315.428 753.113 308.515 741.173 302.142 728.934L300.368 729.858ZM321.147 765.81C324.523 771.097 330.887 773.237 336.903 771.982L336.494 770.024C331.166 771.135 325.696 769.218 322.833 764.734L321.147 765.81ZM336.903 771.982C355.406 768.118 375.37 774.32 388.384 789.82L389.915 788.534C376.411 772.449 355.691 766.015 336.494 770.024L336.903 771.982ZM388.383 789.82C398.833 802.275 402.54 818.104 399.923 832.943L401.893 833.29C404.608 817.895 400.762 801.462 389.916 788.534L388.383 789.82ZM399.923 832.943C399.277 836.606 398.243 840.211 396.832 843.69L398.686 844.442C400.149 840.832 401.223 837.092 401.893 833.29L399.923 832.943ZM396.832 843.691C396.393 844.776 396.065 845.896 395.865 847.032L397.835 847.379C398.009 846.389 398.297 845.403 398.686 844.441L396.832 843.691ZM395.865 847.032C395.017 851.844 396.371 856.875 400.122 860.326L401.476 858.854C398.29 855.923 397.089 851.608 397.835 847.379L395.865 847.032ZM400.123 860.326C410.264 869.645 420.849 878.522 431.815 886.958L433.035 885.373C422.113 876.971 411.573 868.131 401.476 858.853L400.123 860.326ZM431.816 886.958C436.809 890.794 443.557 890.626 448.789 887.347L447.727 885.652C443.095 888.554 437.27 888.626 433.034 885.372L431.816 886.958ZM448.787 887.348C464.871 877.306 485.833 876.27 503.406 886.424L504.407 884.693C486.169 874.154 464.415 875.233 447.728 885.651L448.787 887.348ZM503.406 886.425C520.987 896.579 530.486 915.283 529.772 934.256L531.771 934.332C532.512 914.65 522.657 895.234 504.407 884.693L503.406 886.425ZM529.772 934.256C529.539 940.408 532.726 946.328 538.535 948.738L539.301 946.89C534.38 944.849 531.564 939.78 531.771 934.332L529.772 934.256ZM538.534 948.737C551.211 954.005 564.203 958.749 577.478 962.931L578.079 961.024C564.861 956.859 551.924 952.136 539.302 946.891L538.534 948.737ZM577.478 962.931C583.465 964.822 589.723 962.358 593.5 957.496L591.921 956.269C588.579 960.571 583.154 962.627 578.08 961.024L577.478 962.931ZM593.499 957.497C605.172 942.511 624.523 934.334 644.54 937.864L644.888 935.894C624.114 932.231 604.032 940.72 591.921 956.268L593.499 957.497ZM644.54 937.864C664.555 941.393 679.919 955.77 685.711 973.856L687.616 973.246C681.607 954.483 665.664 939.558 644.888 935.894L644.54 937.864ZM685.711 973.855C687.585 979.723 692.618 984.2 698.9 984.483L698.99 982.485C693.666 982.245 689.274 978.44 687.616 973.247L685.711 973.855ZM698.9 984.483C712.781 985.11 726.58 985.111 740.266 984.532L740.181 982.534C726.552 983.11 712.812 983.109 698.99 982.485L698.9 984.483ZM740.266 984.532C746.556 984.267 751.598 979.798 753.486 973.916L751.582 973.304C749.91 978.512 745.512 982.309 740.181 982.534L740.266 984.532ZM753.486 973.916C759.31 955.806 774.717 941.462 794.763 937.931L794.416 935.961C773.612 939.626 757.625 954.514 751.582 973.304L753.486 973.916ZM794.763 937.931C814.808 934.39 834.177 942.666 845.806 957.725L847.389 956.502C835.325 940.88 815.224 932.286 794.415 935.961L794.763 937.931ZM845.806 957.725C849.594 962.624 855.889 965.139 861.92 963.234L861.317 961.327C856.207 962.941 850.745 960.843 847.388 956.502L845.806 957.725ZM861.918 963.234C875.061 959.1 887.988 954.409 900.666 949.165L899.901 947.317C887.278 952.538 874.406 957.21 861.318 961.326L861.918 963.234ZM900.665 949.165C905.381 947.218 908.387 942.944 909.237 938.122L907.267 937.775C906.52 942.013 903.904 945.664 899.902 947.317L900.665 949.165ZM909.237 938.122C909.439 936.977 909.517 935.794 909.478 934.614L907.479 934.681C907.514 935.728 907.444 936.773 907.267 937.775L909.237 938.122ZM909.478 934.608C909.328 930.826 909.595 927.047 910.248 923.343L908.279 922.996C907.602 926.836 907.324 930.759 907.479 934.687L909.478 934.608ZM910.248 923.343C912.875 908.447 921.831 894.789 935.968 886.628L934.968 884.895C920.299 893.364 911.004 907.541 908.279 922.996L910.248 923.343ZM935.967 886.628C953.584 876.461 974.58 877.599 990.654 887.74L991.721 886.049C975.045 875.528 953.254 874.342 934.968 884.895L935.967 886.628ZM990.653 887.74C995.877 891.042 1002.63 891.236 1007.64 887.407L1006.43 885.818C1002.18 889.066 996.346 888.972 991.722 886.049L990.653 887.74ZM1007.64 887.407C1018.56 879.065 1029.13 870.266 1039.3 860.996L1037.95 859.518C1027.83 868.747 1017.3 877.509 1006.43 885.818L1007.64 887.407ZM1039.3 860.997C1041.66 858.846 1043.08 856.051 1043.61 853.083L1041.64 852.736C1041.18 855.302 1039.96 857.687 1037.95 859.517L1039.3 860.997ZM1043.61 853.083C1044.13 850.121 1043.77 847.119 1042.6 844.279L1040.75 845.042C1041.79 847.546 1042.09 850.163 1041.64 852.736L1043.61 853.083ZM1042.6 844.282C1038.81 835.002 1037.72 824.814 1039.46 814.964L1037.49 814.617C1035.69 824.838 1036.81 835.409 1040.75 845.039L1042.6 844.282ZM1039.46 814.964C1041.02 806.102 1044.87 797.522 1051.08 790.124L1049.55 788.838C1043.1 796.512 1039.11 805.418 1037.49 814.617L1039.46 814.964ZM1051.08 790.124C1064.19 774.499 1084.38 768.401 1102.99 772.49L1103.42 770.536C1084.12 766.295 1063.15 772.619 1049.55 788.838L1051.08 790.124ZM1102.99 772.49C1109.04 773.826 1115.49 771.707 1118.89 766.372L1117.2 765.296C1114.32 769.819 1108.78 771.72 1103.42 770.537L1102.99 772.49ZM1118.89 766.372C1126.24 754.857 1133.12 742.973 1139.49 730.745L1137.72 729.821C1131.37 741.997 1124.52 753.83 1117.2 765.296L1118.89 766.372ZM1139.49 730.745C1140.15 729.472 1140.6 728.137 1140.83 726.788L1138.86 726.44C1138.66 727.593 1138.28 728.733 1137.71 729.822L1139.49 730.745ZM1140.83 726.788C1141.64 722.207 1140.08 717.444 1136.86 713.901L1135.38 715.247C1138.23 718.38 1139.55 722.532 1138.86 726.44L1140.83 726.788ZM1136.86 713.901C1126.01 701.991 1120.94 685.458 1123.83 669.058L1121.86 668.711C1118.86 685.735 1124.13 702.89 1135.38 715.247L1136.86 713.901ZM1123.83 669.058C1124.36 666.042 1125.16 663.033 1126.24 660.054L1124.36 659.37C1123.24 662.46 1122.41 665.581 1121.86 668.711L1123.83 669.058ZM1126.24 660.054C1133.22 640.887 1150.12 628.248 1169 625.727L1168.74 623.745C1149.15 626.36 1131.61 639.473 1124.37 659.37L1126.24 660.054ZM1169 625.727C1175.1 624.917 1180.37 620.757 1181.76 614.629L1179.81 614.187C1178.63 619.385 1174.14 623.028 1168.74 623.745L1169 625.727ZM1181.76 614.63C1183.3 607.862 1184.72 601.027 1185.94 594.104L1183.97 593.757C1182.76 600.641 1181.34 607.442 1179.81 614.186L1181.76 614.63ZM1185.94 594.104C1187.16 587.182 1188.09 580.781 1188.94 574.144L1186.96 573.892C1186.11 580.503 1185.18 586.872 1183.97 593.757L1185.94 594.104ZM1188.94 574.145C1189.74 567.843 1186.35 562.011 1180.8 559.098L1179.87 560.869C1184.75 563.43 1187.64 568.495 1186.96 573.891L1188.94 574.145ZM1180.8 559.098C1163.91 550.238 1152.4 532.531 1152.4 512.121L1150.4 512.121C1150.4 533.303 1162.34 551.677 1179.87 560.869L1180.8 559.098ZM1152.4 512.12C1152.4 508.97 1152.67 505.88 1153.2 502.884L1151.23 502.537C1150.68 505.647 1150.4 508.854 1150.4 512.122L1152.4 512.12ZM1153.2 502.884C1156.09 486.485 1166.55 472.702 1180.83 465.242L1179.9 463.469C1165.09 471.209 1154.23 485.511 1151.23 502.537L1153.2 502.884ZM1180.83 465.241C1185.08 463.017 1188.18 459.075 1188.99 454.483L1187.02 454.136C1186.33 458.053 1183.66 461.501 1179.9 463.469L1180.83 465.241ZM1188.99 454.483C1189.23 453.133 1189.27 451.737 1189.08 450.322L1187.09 450.587C1187.26 451.794 1187.22 452.984 1187.02 454.136L1188.99 454.483ZM1189.08 450.325C1187.28 436.659 1184.92 423.144 1181.96 409.8L1180 410.233C1182.95 423.519 1185.31 436.975 1187.09 450.585L1189.08 450.325ZM1181.96 409.801C1180.59 403.624 1175.26 399.429 1169.13 398.606L1168.86 400.589C1174.3 401.318 1178.85 404.999 1180 410.232L1181.96 409.801ZM1169.13 398.606C1150.22 396.06 1133.36 383.358 1126.39 364.18L1124.51 364.864C1131.74 384.767 1149.25 397.947 1168.86 400.589L1169.13 398.606ZM1126.39 364.181C1123.1 355.149 1122.43 345.813 1123.98 337L1122.01 336.653C1120.4 345.803 1121.1 355.495 1124.51 364.864L1126.39 364.181ZM1123.98 337C1125.72 327.131 1130.25 317.903 1137.01 310.474L1135.53 309.128C1128.52 316.836 1123.82 326.411 1122.01 336.653L1123.98 337ZM1137.01 310.474C1139.09 308.197 1140.47 305.43 1140.98 302.527L1139.01 302.18C1138.56 304.693 1137.36 307.117 1135.53 309.128L1137.01 310.474ZM1140.98 302.527C1141.49 299.62 1141.12 296.458 1139.63 293.627L1137.86 294.557C1139.13 296.963 1139.45 299.671 1139.01 302.18L1140.98 302.527ZM1139.63 293.629C1133.27 281.435 1126.36 269.532 1118.96 257.95L1117.27 259.027C1124.64 270.561 1131.52 282.413 1137.86 294.555L1139.63 293.629ZM1118.96 257.95C1115.57 252.637 1109.17 250.514 1103.12 251.807L1103.54 253.763C1108.9 252.617 1114.4 254.522 1117.27 259.027L1118.96 257.95ZM1103.12 251.807C1084.52 255.814 1064.41 249.644 1051.33 234.054L1049.8 235.339C1063.37 251.519 1084.25 257.919 1103.54 253.762L1103.12 251.807ZM1051.33 234.054C1040.87 221.587 1037.17 205.738 1039.79 190.889L1037.82 190.542C1035.1 205.947 1038.94 222.399 1049.8 235.339L1051.33 234.054ZM1039.79 190.889C1040.44 187.158 1041.5 183.487 1042.95 179.946L1041.1 179.187C1039.59 182.862 1038.5 186.671 1037.82 190.542L1039.79 190.889ZM1042.95 179.946C1043.41 178.838 1043.74 177.687 1043.94 176.533L1041.97 176.186C1041.79 177.198 1041.5 178.211 1041.1 179.187L1042.95 179.946ZM1043.94 176.533C1044.79 171.712 1043.44 166.679 1039.67 163.236L1038.32 164.712C1041.52 167.634 1042.72 171.947 1041.97 176.186L1043.94 176.533ZM1039.67 163.237C1029.56 153.964 1019.02 145.135 1008.1 136.748L1006.88 138.334C1017.76 146.687 1028.26 155.479 1038.32 164.711L1039.67 163.237ZM1008.1 136.748C1003.08 132.896 996.32 133.096 991.087 136.395L992.153 138.087C996.79 135.164 1002.63 135.068 1006.88 138.334L1008.1 136.748ZM991.087 136.394C974.975 146.541 953.943 147.634 936.296 137.447L935.296 139.179C953.61 149.752 975.437 148.614 992.153 138.087L991.087 136.394ZM936.296 137.447C918.678 127.276 909.169 108.51 909.917 89.5132L907.919 89.4345C907.143 109.141 917.007 128.62 935.296 139.179L936.296 137.447ZM909.917 89.514C910.165 83.3416 906.959 77.4079 901.14 74.997L900.375 76.8447C905.306 78.8882 908.139 83.9705 907.919 89.4337L909.917 89.514ZM901.14 74.9968C888.488 69.7643 875.534 65.0378 862.287 60.8702L861.686 62.7781C874.877 66.9277 887.777 71.6342 900.375 76.845L901.14 74.9968ZM862.286 60.8701C856.297 58.9897 850.038 61.4642 846.262 66.3249L847.841 67.552C851.184 63.2497 856.611 61.1845 861.687 62.7782L862.286 60.8701ZM846.262 66.3248C834.594 81.3408 815.191 89.5291 795.154 85.996L794.806 87.9656C815.599 91.632 835.735 83.1325 847.841 67.552L846.262 66.3248ZM795.154 85.996C775.12 82.4636 759.837 68.142 754.023 50.0611L752.119 50.6733C758.149 69.4285 774.01 84.2987 794.806 87.9656L795.154 85.996ZM754.023 50.0615C752.139 44.1925 747.114 39.7268 740.829 39.4542L740.743 41.4523C746.068 41.6833 750.451 45.4769 752.119 50.6729L754.023 50.0615ZM740.831 39.4543C726.928 38.8344 713.117 38.8416 699.406 39.4461L699.494 41.4442C713.147 40.8423 726.898 40.8351 740.742 41.4523L740.831 39.4543ZM699.407 39.4461C693.125 39.7129 688.107 44.1765 686.213 50.0345L688.116 50.6499C689.794 45.4605 694.172 41.6703 699.492 41.4443L699.407 39.4461ZM686.213 50.0343C680.366 68.1004 664.957 82.4045 644.941 85.9312L645.288 87.9008C666.06 84.241 682.049 69.3946 688.116 50.6501L686.213 50.0343ZM644.941 85.9312C624.979 89.4561 605.706 81.2574 594.058 66.3048L592.48 67.5339C604.563 83.0449 624.565 91.5601 645.288 87.9008L644.941 85.9312ZM594.058 66.3047C590.265 61.4361 583.986 58.9478 577.97 60.8433L578.571 62.7509C583.673 61.1436 589.12 63.2208 592.48 67.534L594.058 66.3047ZM577.97 60.8434C564.771 65.0078 551.79 69.7198 539.066 74.9965L539.832 76.8439C552.501 71.5903 565.427 66.8981 578.572 62.7508L577.97 60.8434ZM539.066 74.9964C534.361 76.946 531.355 81.2194 530.505 86.041L532.475 86.3883C533.222 82.1496 535.838 78.4988 539.831 76.844L539.066 74.9964ZM530.505 86.041C530.308 87.1625 530.223 88.3152 530.265 89.4899L532.263 89.4193C532.227 88.3869 532.301 87.3743 532.475 86.3883L530.505 86.041ZM530.265 89.4884C530.39 93.188 530.126 96.889 529.487 100.514L531.456 100.861C532.119 97.1001 532.393 93.26 532.264 89.4208L530.265 89.4884ZM529.487 100.514C526.86 115.41 517.891 129.086 503.754 137.248L504.754 138.98C519.423 130.511 528.731 116.317 531.456 100.861L529.487 100.514ZM503.754 137.248C486.249 147.354 465.413 146.274 449.37 136.288L448.314 137.986C464.955 148.344 486.581 149.471 504.754 138.98L503.754 137.248ZM449.37 136.287C444.149 133.04 437.438 132.864 432.447 136.675L433.661 138.265C437.894 135.031 443.689 135.11 448.314 137.986L449.37 136.287ZM432.446 136.676C421.46 145.087 410.82 153.956 400.592 163.306L401.942 164.782C412.124 155.473 422.72 146.641 433.662 138.264L432.446 136.676ZM400.592 163.306C398.24 165.456 396.809 168.248 396.285 171.218L398.255 171.565C398.707 169.001 399.936 166.616 401.942 164.782L400.592 163.306ZM396.285 171.218C395.781 174.079 396.116 177.114 397.238 179.923L399.095 179.18C398.104 176.701 397.818 174.042 398.255 171.565L396.285 171.218ZM397.239 179.924C400.922 189.104 401.957 199.173 400.241 208.907L402.21 209.255C403.991 199.155 402.917 188.706 399.095 179.179L397.239 179.924ZM400.241 208.907C398.678 217.77 394.832 226.359 388.623 233.757L390.155 235.043C396.596 227.369 400.588 218.454 402.21 209.255L400.241 208.907ZM388.623 233.758C375.616 249.261 355.635 255.376 337.13 251.445L336.715 253.402C355.912 257.479 376.653 251.137 390.155 235.043L388.623 233.758ZM337.13 251.445C331.11 250.168 324.72 252.286 321.344 257.595L323.031 258.668C325.892 254.171 331.38 252.27 336.715 253.402L337.13 251.445ZM321.344 257.594C313.933 269.21 307.006 281.197 300.587 293.538L302.361 294.461C308.754 282.172 315.651 270.236 323.03 258.669L321.344 257.594ZM300.587 293.538C299.925 294.811 299.483 296.135 299.245 297.485L301.215 297.833C301.418 296.681 301.794 295.551 302.361 294.461L300.587 293.538ZM299.245 297.485C298.445 302.023 299.964 306.747 303.124 310.279L304.615 308.946C301.82 305.823 300.532 301.706 301.215 297.833L299.245 297.485ZM303.125 310.28C313.777 322.165 318.729 338.556 315.863 354.812L317.832 355.159C320.808 338.286 315.667 321.277 304.614 308.945L303.125 310.28ZM315.863 354.812C315.331 357.828 314.531 360.836 313.448 363.816L315.327 364.5C316.451 361.41 317.281 358.289 317.832 355.159L315.863 354.812ZM313.448 363.816C306.531 382.814 289.865 395.393 271.137 398.041L271.417 400.022C290.845 397.274 308.146 384.222 315.327 364.5L313.448 363.816ZM271.138 398.041C265.079 398.892 259.891 403.045 258.512 409.119L260.463 409.562C261.632 404.408 266.063 400.774 271.416 400.022L271.138 398.041ZM258.512 409.12C256.961 415.955 255.52 422.857 254.287 429.849L256.257 430.197C257.483 423.244 258.917 416.376 260.463 409.562L258.512 409.12Z"
            fill="#777777" mask="url(#path-2-inside-1_580_1642)" />
        <path
            d="M1129.78 584.252C1169.67 357.992 1018.59 142.23 792.333 102.335C566.073 62.4389 350.311 213.517 310.415 439.777C270.52 666.037 421.598 881.799 647.858 921.695C874.118 961.59 1089.88 810.512 1129.78 584.252Z"
            stroke="#777777" stroke-width="2" stroke-miterlimit="10" />
        <path opacity="0.6"
            d="M580.89 558.497C587.181 577.295 597.222 594.581 610.27 609.321C615.52 615.253 615.621 624.125 610.542 630.185L467.628 800.486C461.664 807.588 450.969 808.119 444.259 801.717C388.617 748.658 349.292 680.575 331.228 606.056C329.039 597.049 334.85 588.052 343.978 586.442L562.958 547.841C570.743 546.473 578.376 550.986 580.891 558.487L580.89 558.497Z"
            fill="#191919" />
        <path opacity="0.6"
            d="M458.747 705.034L450.956 709.54C449.487 710.388 447.957 710.595 446.37 710.153C444.783 709.71 443.587 708.779 442.753 707.342L437.837 698.829C437.34 697.96 437.08 697.02 437.06 695.981C437.038 694.951 437.269 693.987 437.723 693.082C438.684 690.855 439.112 688.544 439.006 686.149C438.899 683.765 438.238 681.526 437.041 679.446C435.843 677.367 434.193 675.614 432.176 674.324C430.16 673.034 427.959 672.27 425.574 672.032C424.511 671.896 423.543 671.573 422.678 671.065C421.813 670.557 421.138 669.89 420.663 669.075L415.746 660.562C414.899 659.092 414.679 657.571 415.099 656C415.518 654.429 416.463 653.214 417.942 652.369L425.733 647.863C426.469 647.434 427.228 647.334 428.013 647.544C428.799 647.754 429.406 648.226 429.825 648.96L437.323 661.95C437.752 662.685 437.852 663.444 437.642 664.23C437.432 665.015 436.96 665.622 436.226 666.041L432.913 667.955C434.868 668.848 436.634 670.002 438.209 671.438C439.785 672.863 441.126 674.531 442.221 676.44C443.294 678.305 444.051 680.286 444.49 682.405C444.931 684.513 445.042 686.645 444.838 688.782L448.218 686.829C448.954 686.401 449.713 686.301 450.498 686.51C451.284 686.72 451.891 687.193 452.31 687.927L459.808 700.916C460.237 701.652 460.337 702.41 460.127 703.196C459.918 703.982 459.445 704.589 458.711 705.008L458.747 705.034ZM434.448 680.959C435.396 682.609 435.916 684.386 436.016 686.292C436.107 688.197 435.771 690.047 435.003 691.81C434.347 693.167 434.026 694.583 434.031 696.056C434.037 697.519 434.421 698.907 435.167 700.206C433.019 700.183 430.584 698.901 427.884 696.363C425.174 693.824 423.038 691.193 421.457 688.467C419.887 685.743 418.668 682.573 417.834 678.954C416.989 675.342 417.097 672.599 418.148 670.723C418.871 671.978 419.871 672.987 421.148 673.75C422.425 674.513 423.82 674.952 425.323 675.065C427.257 675.213 429.019 675.818 430.6 676.869C432.182 677.919 433.465 679.283 434.447 680.969L434.448 680.959ZM438.652 706.243C439.904 708.414 440.203 710.69 439.569 713.076C438.935 715.462 437.527 717.286 435.357 718.538C433.186 719.79 430.864 720.122 428.491 719.47C426.118 718.818 424.316 717.403 423.062 715.243C421.808 713.082 421.469 710.748 422.097 708.391C422.726 706.035 424.152 704.225 426.357 702.948C428.528 701.696 430.796 701.385 433.176 701.998C435.556 702.61 437.377 704.028 438.654 706.233L438.652 706.243ZM414.656 664.675C415.908 666.845 416.207 669.122 415.573 671.508C414.939 673.894 413.531 675.717 411.361 676.969C409.19 678.221 406.867 678.553 404.494 677.901C402.122 677.249 400.32 675.835 399.066 673.674C397.812 671.514 397.472 669.179 398.101 666.823C398.73 664.466 400.156 662.656 402.361 661.38C404.566 660.103 406.8 659.817 409.18 660.429C411.558 661.052 413.381 662.46 414.657 664.665L414.656 664.675ZM418.859 689.959C420.111 692.129 420.41 694.406 419.776 696.792C419.142 699.178 417.734 701.001 415.564 702.253C413.359 703.53 411.071 703.837 408.698 703.185C406.325 702.533 404.523 701.119 403.269 698.958C402.015 696.798 401.676 694.463 402.304 692.107C402.933 689.75 404.359 687.94 406.564 686.664C408.735 685.412 411.003 685.101 413.383 685.713C415.761 686.336 417.584 687.744 418.861 689.949L418.859 689.959Z"
            fill="#777777" />
        <path opacity="0.6"
            d="M694.615 656.524C695.885 656.748 697.159 656.953 698.434 657.147C706.288 658.329 712.125 665.024 712.124 672.975L712.135 895.375C712.135 904.646 704.282 911.923 695.033 911.338C618.513 906.487 544.644 879.571 482.728 833.997C475.259 828.496 473.924 817.873 479.888 810.771L622.758 640.483C627.888 634.371 636.685 633.028 643.485 637.192C658.725 646.53 675.946 653.212 694.618 656.505L694.615 656.524Z"
            fill="#191919" />
        <path opacity="0.6"
            d="M565.159 831.128C566.34 827.884 568.036 825.005 570.256 822.492C572.476 819.98 575.01 817.878 577.855 816.196C578.657 815.738 579.494 815.653 580.353 815.906C581.221 816.17 581.86 816.75 582.27 817.645C582.662 818.476 582.677 819.311 582.318 820.141C581.958 820.971 581.403 821.645 580.622 822.157C578.56 823.428 576.745 825.028 575.166 826.953C573.588 828.878 572.364 831.038 571.485 833.432C570.616 835.827 570.169 838.247 570.164 840.693C570.15 843.137 570.524 845.508 571.286 847.806C571.593 848.713 571.61 849.599 571.317 850.451C571.035 851.305 570.465 851.946 569.616 852.385C568.766 852.824 567.906 852.866 567.051 852.532C566.196 852.199 565.602 851.596 565.278 850.727C564.173 847.607 563.585 844.376 563.506 841.022C563.427 837.667 563.968 834.371 565.149 831.127L565.159 831.128ZM577.993 835.798C578.543 834.291 579.301 832.932 580.276 831.722C581.252 830.503 582.37 829.462 583.649 828.601C584.42 828.087 585.253 827.97 586.125 828.266C587.006 828.563 587.654 829.155 588.064 830.05C588.456 830.88 588.497 831.74 588.211 832.614C587.914 833.496 587.415 834.251 586.702 834.897C586.233 835.311 585.803 835.794 585.421 836.346C585.039 836.898 584.72 837.502 584.482 838.161C584.244 838.819 584.096 839.484 584.039 840.154C583.981 840.824 583.985 841.495 584.071 842.16C584.206 843.118 584.101 844.003 583.769 844.849C583.439 845.684 582.853 846.301 582.024 846.683C581.128 847.104 580.248 847.142 579.384 846.797C578.521 846.452 577.958 845.845 577.7 844.946C577.282 843.461 577.092 841.945 577.123 840.387C577.154 838.828 577.445 837.296 577.993 835.798ZM608.736 834.212C611.837 835.338 614.092 837.411 615.49 840.42C616.899 843.43 617.03 846.489 615.904 849.591C614.778 852.692 612.705 854.947 609.697 856.345C606.686 857.754 603.627 857.885 600.526 856.759C597.424 855.633 595.17 853.561 593.771 850.552C592.362 847.542 592.232 844.482 593.357 841.381C594.483 838.279 596.556 836.025 599.564 834.626C602.575 833.217 605.634 833.087 608.736 834.212ZM637.444 825.505L636.62 827.756C636.053 829.301 635.13 830.621 633.835 831.692C632.539 832.764 631.056 833.396 629.397 833.591C626.553 833.942 623.478 833.989 620.161 833.739C616.844 833.489 613.378 832.705 609.762 831.388C606.146 830.07 602.989 828.447 600.287 826.498C597.582 824.559 595.257 822.544 593.312 820.445C592.156 819.226 591.435 817.788 591.126 816.14C590.82 814.481 590.96 812.881 591.517 811.335L592.34 809.083C592.907 807.538 593.939 806.41 595.445 805.701C596.951 804.992 598.475 804.926 600.03 805.494L633.856 817.805C635.401 818.372 636.529 819.404 637.239 820.91C637.938 822.414 638.014 823.94 637.445 825.495L637.444 825.505Z"
            fill="#777777" />
        <path opacity="0.6"
            d="M817.443 640.449L960.416 810.845C966.374 817.947 965.049 828.569 957.593 834.057C926.933 856.657 893.181 874.73 856.951 887.919C820.71 901.107 783.237 908.959 745.234 911.356C735.992 911.94 728.147 904.657 728.147 895.386L728.133 673.005C728.137 665.096 733.905 658.355 741.725 657.195C761.475 654.26 780.184 647.324 796.83 637.109C803.583 632.959 812.359 634.384 817.451 640.461L817.443 640.449Z"
            fill="#191919" />
        <path opacity="0.6"
            d="M838.971 842.923C839.491 842.741 839.974 842.826 840.427 843.19C840.881 843.555 841.051 844.031 840.94 844.601L837.889 861.904C837.757 862.652 837.408 863.19 836.894 863.516C836.38 863.841 835.719 863.958 834.944 863.862C831.175 863.584 827.563 862.591 824.125 860.898C820.688 859.196 817.682 856.95 815.129 854.154C814.674 853.627 814.514 853.091 814.654 852.527C814.794 851.962 815.199 851.567 815.861 851.328L838.973 842.914L838.971 842.923ZM847.791 835.807L861.58 847.387C862.177 847.858 862.49 848.441 862.524 849.117C862.557 849.793 862.363 850.429 861.937 851.004C860.262 853.42 858.223 855.599 855.819 857.541C853.415 859.483 850.657 861.018 847.554 862.146C846.849 862.397 846.063 862.655 845.189 862.886C844.314 863.128 843.584 863.294 842.985 863.412C842.289 863.553 841.753 863.428 841.375 863.036C840.998 862.645 840.86 862.103 840.989 861.425L845.318 836.701C845.419 836.13 845.751 835.742 846.294 835.543C846.837 835.344 847.329 835.431 847.781 835.805L847.791 835.807ZM861.043 818.932C861.564 818.739 862.09 818.751 862.644 818.95C863.198 819.149 863.616 819.487 863.895 819.973C864.175 820.459 864.446 820.994 864.684 821.605C864.922 822.215 865.196 822.903 865.491 823.707C866.573 826.67 867.16 829.789 867.261 833.076C867.362 836.364 866.887 839.692 865.826 843.059C865.545 843.903 865.073 844.449 864.388 844.704C863.704 844.959 863.052 844.793 862.422 844.225L843.065 827.886C842.611 827.521 842.451 827.047 842.585 826.461C842.719 825.875 843.049 825.497 843.561 825.303L861.041 818.941L861.043 818.932ZM839.663 804.043C843.313 804.422 846.902 805.431 850.422 807.067C853.949 808.715 856.968 810.943 859.479 813.751C859.934 814.278 860.082 814.822 859.91 815.391C859.739 815.96 859.334 816.356 858.673 816.595L835.702 824.953C835.183 825.135 834.7 825.05 834.247 824.686C833.793 824.322 833.623 823.845 833.734 823.275L836.681 806.157C836.833 805.412 837.157 804.84 837.652 804.45C838.147 804.06 838.811 803.923 839.654 804.041L839.663 804.043ZM827.032 805.766C827.694 805.527 828.446 805.294 829.288 805.067C830.14 804.841 830.883 804.658 831.526 804.527C832.221 804.386 832.769 804.503 833.168 804.888C833.567 805.273 833.717 805.807 833.597 806.487L829.354 831.012C829.253 831.584 828.856 831.991 828.204 832.231C827.553 832.472 826.996 832.404 826.542 832.04L812.969 820.619C812.45 820.223 812.136 819.701 812.039 819.044C811.932 818.385 812.116 817.687 812.585 816.927C814.162 814.544 816.225 812.349 818.779 810.362C821.323 808.374 824.081 806.84 827.044 805.758L827.032 805.766ZM811.918 823.643L831.462 840.076C831.915 840.44 832.075 840.915 831.942 841.501C831.808 842.087 831.477 842.465 830.966 842.659L813.561 848.993C813.042 849.176 812.514 849.174 811.96 848.975C811.406 848.776 810.989 848.438 810.709 847.952C810.429 847.466 810.158 846.931 809.92 846.32C809.683 845.71 809.408 845.022 809.113 844.218C808.031 841.255 807.437 838.115 807.316 834.773C807.193 831.441 807.668 828.113 808.751 824.79C808.938 824.133 809.385 823.673 810.074 823.389C810.774 823.106 811.388 823.194 811.92 823.633L811.918 823.643Z"
            fill="#777777" />
        <path opacity="0.6"
            d="M877.234 547.835L1096.2 586.444C1105.33 588.054 1111.13 597.058 1108.94 606.066C1090.81 680.782 1051.52 748.884 996.022 801.78C989.31 808.172 978.62 807.638 972.661 800.545L829.704 630.173C824.602 624.094 824.738 615.203 830.009 609.268C842.849 594.787 852.941 577.629 859.301 558.493C861.791 550.991 869.443 546.471 877.232 547.845L877.234 547.835Z"
            fill="#191919" />
        <path opacity="0.6"
            d="M1017.96 641.861L1025.76 646.364C1027.24 647.213 1028.18 648.435 1028.58 650.028C1028.99 651.624 1028.78 653.131 1027.95 654.559L1023.04 663.065C1022.54 663.931 1021.85 664.632 1020.96 665.156C1020.08 665.681 1019.13 665.981 1018.12 666.026C1015.7 666.31 1013.5 667.089 1011.48 668.378C1009.47 669.668 1007.86 671.355 1006.66 673.428C1005.46 675.502 1004.77 677.807 1004.66 680.193C1004.55 682.581 1004.99 684.872 1005.97 687.056C1006.39 688.043 1006.59 689.043 1006.58 690.047C1006.58 691.052 1006.34 691.973 1005.87 692.794L1000.95 701.301C1000.1 702.776 998.892 703.719 997.325 704.144C995.758 704.568 994.232 704.35 992.757 703.501L984.961 698.998C984.223 698.574 983.75 697.973 983.544 697.185C983.338 696.397 983.44 695.644 983.865 694.906L991.365 681.911C991.79 681.174 992.391 680.701 993.179 680.494C993.966 680.288 994.72 680.391 995.458 680.815L998.766 682.729C998.554 680.589 998.682 678.479 999.131 676.396C999.579 674.312 1000.36 672.327 1001.45 670.418C1002.53 668.558 1003.87 666.905 1005.48 665.473C1007.1 664.032 1008.88 662.873 1010.83 661.979L1007.46 660.033C1006.72 659.609 1006.25 659.008 1006.04 658.22C1005.84 657.432 1005.94 656.678 1006.36 655.941L1013.86 642.946C1014.29 642.208 1014.89 641.736 1015.68 641.529C1016.46 641.323 1017.22 641.425 1017.96 641.85L1017.96 641.861ZM1009.26 674.942C1010.21 673.292 1011.49 671.954 1013.09 670.917C1014.7 669.88 1016.46 669.257 1018.38 669.037C1019.89 668.928 1021.28 668.502 1022.54 667.759C1023.8 667.018 1024.81 665.996 1025.56 664.698C1026.61 666.579 1026.72 669.319 1025.88 672.928C1025.04 676.537 1023.83 679.715 1022.25 682.443C1020.67 685.17 1018.54 687.799 1015.83 690.338C1013.13 692.877 1010.7 694.155 1008.55 694.181C1009.27 692.928 1009.65 691.552 1009.67 690.063C1009.69 688.574 1009.37 687.147 1008.71 685.793C1007.88 684.041 1007.52 682.211 1007.63 680.321C1007.74 678.421 1008.28 676.628 1009.26 674.942ZM1029.05 658.663C1030.31 656.498 1032.12 655.091 1034.52 654.457C1036.91 653.812 1039.19 654.123 1041.35 655.368C1043.57 656.642 1044.98 658.475 1045.6 660.848C1046.21 663.221 1045.9 665.502 1044.65 667.667C1043.39 669.832 1041.56 671.296 1039.21 671.927C1036.85 672.557 1034.57 672.237 1032.36 670.963C1030.19 669.708 1028.79 667.906 1028.13 665.536C1027.48 663.167 1027.78 660.875 1029.06 658.674L1029.05 658.663ZM1005.05 700.226C1006.31 698.061 1008.12 696.654 1010.52 696.021C1012.9 695.376 1015.18 695.687 1017.35 696.932C1019.56 698.205 1020.98 700.039 1021.59 702.412C1022.21 704.785 1021.9 707.066 1020.65 709.231C1019.39 711.396 1017.56 712.86 1015.2 713.49C1012.85 714.121 1010.57 713.8 1008.36 712.527C1006.14 711.253 1004.78 709.47 1004.13 707.099C1003.48 704.731 1003.78 702.439 1005.06 700.238L1005.05 700.226ZM1024.85 683.947C1026.11 681.782 1027.92 680.375 1030.31 679.741C1032.7 679.096 1034.98 679.407 1037.15 680.652C1039.36 681.926 1040.77 683.759 1041.39 686.132C1042.01 688.506 1041.7 690.786 1040.44 692.951C1039.19 695.116 1037.36 696.58 1035 697.211C1032.65 697.841 1030.37 697.521 1028.15 696.247C1025.94 694.974 1024.58 693.19 1023.92 690.82C1023.27 688.451 1023.58 686.159 1024.86 683.958L1024.85 683.947Z"
            fill="#777777" />
        <path opacity="0.6"
            d="M1078.48 334.073C1112.54 402.771 1126.17 480.195 1117.65 556.606C1116.63 565.818 1108.09 572.295 1098.96 570.685L880.011 532.078C872.222 530.704 866.576 523.85 866.801 515.949C867.372 495.782 863.747 476.205 856.634 458.206C853.721 450.828 856.624 442.425 863.497 438.458L1056.1 327.254C1064.13 322.618 1074.37 325.773 1078.48 334.083L1078.48 334.073Z"
            fill="#191919" />
        <path opacity="0.6"
            d="M1073.94 486.654C1070.55 487.254 1067.2 487.222 1063.91 486.56C1060.61 485.898 1057.54 484.756 1054.67 483.123C1053.87 482.658 1053.37 481.981 1053.16 481.101C1052.96 480.223 1053.14 479.381 1053.71 478.568C1054.24 477.818 1054.95 477.384 1055.85 477.279C1056.74 477.173 1057.61 477.325 1058.44 477.736C1060.57 478.884 1062.86 479.663 1065.32 480.066C1067.78 480.469 1070.26 480.449 1072.77 480.009C1075.29 479.569 1077.59 478.738 1079.72 477.528C1081.84 476.318 1083.7 474.808 1085.32 473.002C1085.95 472.281 1086.71 471.826 1087.6 471.647C1088.48 471.468 1089.33 471.637 1090.13 472.154C1090.93 472.671 1091.4 473.394 1091.54 474.301C1091.67 475.209 1091.45 476.032 1090.86 476.741C1088.71 479.256 1086.21 481.383 1083.35 483.134C1080.48 484.882 1077.35 486.056 1073.95 486.656L1073.94 486.654ZM1071.57 473.208C1070 473.489 1068.44 473.509 1066.9 473.268C1065.36 473.027 1063.9 472.575 1062.51 471.905C1061.68 471.494 1061.17 470.835 1060.98 469.929C1060.8 469.023 1060.99 468.163 1061.56 467.35C1062.09 466.6 1062.8 466.127 1063.71 465.942C1064.61 465.756 1065.53 465.816 1066.44 466.109C1067.03 466.305 1067.66 466.436 1068.34 466.495C1069.02 466.554 1069.69 466.519 1070.38 466.397C1071.07 466.275 1071.71 466.074 1072.32 465.786C1072.93 465.497 1073.51 465.162 1074.05 464.76C1074.8 464.171 1075.63 463.809 1076.52 463.673C1077.41 463.545 1078.24 463.742 1078.99 464.27C1079.8 464.84 1080.27 465.582 1080.41 466.491C1080.55 467.408 1080.3 468.197 1079.65 468.875C1078.57 469.974 1077.35 470.906 1075.99 471.652C1074.62 472.395 1073.16 472.919 1071.58 473.188L1071.57 473.208ZM1054.83 447.379C1054.26 444.13 1054.93 441.141 1056.83 438.42C1058.73 435.698 1061.32 434.052 1064.57 433.478C1067.82 432.903 1070.8 433.572 1073.53 435.474C1076.25 437.375 1077.89 439.96 1078.47 443.209C1079.04 446.459 1078.37 449.448 1076.47 452.169C1074.57 454.89 1071.98 456.536 1068.74 457.111C1065.49 457.685 1062.5 457.016 1059.78 455.115C1057.06 453.213 1055.41 450.628 1054.83 447.379ZM1032.93 426.864L1035.3 426.449C1036.93 426.167 1038.53 426.307 1040.11 426.9C1041.68 427.482 1042.97 428.451 1043.97 429.796C1045.69 432.079 1047.28 434.724 1048.72 437.72C1050.16 440.716 1051.22 444.111 1051.89 447.905C1052.56 451.7 1052.73 455.243 1052.4 458.555C1052.07 461.859 1051.48 464.883 1050.65 467.619C1050.17 469.231 1049.29 470.579 1048 471.662C1046.73 472.746 1045.27 473.435 1043.65 473.727L1041.28 474.142C1039.66 474.424 1038.16 474.1 1036.81 473.14C1035.45 472.18 1034.62 470.897 1034.33 469.271L1028.08 433.818C1027.8 432.194 1028.13 430.698 1029.09 429.344C1030.04 427.978 1031.33 427.16 1032.95 426.868L1032.93 426.864Z"
            fill="#777777" />
        <path opacity="0.6"
            d="M858.743 154.499C861.913 145.797 871.777 141.626 880.261 145.336C915.153 160.587 947.69 180.784 977.225 205.569C1006.77 230.366 1032.31 258.885 1053.39 290.606C1058.51 298.323 1056.13 308.757 1048.1 313.384L855.47 424.604C848.609 428.562 839.884 426.902 834.946 420.701C822.797 405.409 807.599 392.493 790.044 382.98C783.092 379.216 779.968 370.907 782.67 363.473L858.734 154.497L858.743 154.499Z"
            fill="#191919" />
        <path opacity="0.6"
            d="M947.26 243.633C946.835 243.284 946.673 242.819 946.766 242.236C946.866 241.665 947.179 241.273 947.73 241.086L964.237 235.061C964.959 234.823 965.595 234.844 966.134 235.131C966.672 235.419 967.101 235.921 967.41 236.646C969.053 240.053 969.999 243.672 970.249 247.494C970.498 251.325 970.045 255.043 968.91 258.661C968.682 259.321 968.295 259.73 967.739 259.886C967.184 260.042 966.641 259.896 966.101 259.445L947.26 243.633ZM936.678 239.554L939.805 221.817C939.918 221.065 940.262 220.497 940.834 220.13C941.406 219.764 942.052 219.614 942.768 219.7C945.701 219.943 948.608 220.618 951.487 221.735C954.367 222.852 957.078 224.467 959.608 226.588C960.182 227.076 960.795 227.63 961.435 228.261C962.075 228.892 962.596 229.451 962.993 229.907C963.468 230.437 963.629 230.963 963.476 231.485C963.322 232.016 962.93 232.394 962.269 232.632L938.696 241.24C938.145 241.427 937.653 241.34 937.209 240.978C936.765 240.615 936.595 240.138 936.688 239.555L936.678 239.554ZM915.444 236.51C915.02 236.151 914.756 235.688 914.655 235.112C914.553 234.536 914.637 234.002 914.915 233.523C915.192 233.044 915.526 232.534 915.93 232.026C916.334 231.519 916.803 230.932 917.346 230.276C919.376 227.862 921.782 225.788 924.575 224.057C927.368 222.325 930.494 221.069 933.939 220.306C934.814 220.125 935.521 220.26 936.077 220.733C936.633 221.207 936.825 221.85 936.647 222.682L932.17 247.613C932.069 248.185 931.748 248.565 931.18 248.738C930.611 248.912 930.109 248.824 929.693 248.476L915.442 236.52L915.444 236.51ZM913.242 262.472C911.741 259.121 910.823 255.517 910.482 251.638C910.14 247.76 910.563 244.037 911.742 240.457C911.971 239.797 912.366 239.4 912.939 239.257C913.512 239.114 914.063 239.272 914.603 239.723L933.33 255.434C933.756 255.783 933.917 256.248 933.825 256.831C933.724 257.402 933.411 257.794 932.86 257.981L916.561 263.982C915.838 264.22 915.177 264.225 914.589 263.989C914.001 263.754 913.552 263.248 913.234 262.461L913.242 262.472ZM921.043 272.54C920.503 272.089 919.927 271.551 919.305 270.934C918.683 270.316 918.152 269.756 917.721 269.263C917.246 268.733 917.075 268.205 917.212 267.66C917.348 267.116 917.732 266.727 918.382 266.496L941.749 257.903C942.3 257.716 942.846 257.843 943.376 258.292C943.906 258.74 944.13 259.257 944.039 259.83L940.939 277.297C940.855 277.942 940.558 278.479 940.038 278.895C939.527 279.313 938.824 279.503 937.934 279.478C935.082 279.3 932.157 278.612 929.152 277.402C926.156 276.193 923.445 274.578 921.031 272.548L921.043 272.54ZM944.089 276.705L948.544 251.557C948.645 250.985 948.966 250.605 949.535 250.432C950.103 250.258 950.606 250.346 951.022 250.694L965.21 262.598C965.636 262.948 965.898 263.42 965.999 263.997C966.101 264.573 966.017 265.107 965.739 265.586C965.46 266.075 965.128 266.575 964.724 267.082C964.32 267.59 963.851 268.177 963.308 268.833C961.278 271.247 958.858 273.339 956.027 275.114C953.196 276.889 950.082 278.137 946.664 278.865C946.004 279.033 945.381 278.882 944.784 278.412C944.194 277.952 943.962 277.373 944.071 276.692L944.089 276.705Z"
            fill="#777777" />
        <g filter="url(#filter0_d_580_1642)">
            <path
                d="M860.277 105.06L773.973 342.147C770.891 350.612 762.07 355.496 753.239 353.708C751.815 353.423 750.389 353.148 748.948 352.894C727.755 349.157 706.802 349.61 686.935 353.64C678.07 355.441 669.202 350.594 666.117 342.09L579.878 105.116C576.276 95.2308 581.821 84.4245 591.917 81.4587C675.614 56.9017 764.79 56.8676 848.244 81.3856C858.33 84.3505 863.878 95.1547 860.281 105.037L860.277 105.06Z"
                fill="#614589" />
        </g>
        <path
            d="M672.479 169.493L672.482 156.523C672.474 154.077 673.335 152.018 675.019 150.354C676.718 148.692 678.752 147.865 681.122 147.873L695.293 147.868C696.727 147.872 698.098 148.231 699.407 148.945C700.699 149.67 701.745 150.631 702.537 151.868C704.632 154.682 707.201 156.877 710.275 158.459C713.334 160.037 716.605 160.834 720.058 160.842C723.587 160.835 726.886 160.056 729.949 158.458C733.01 156.875 735.55 154.674 737.567 151.868C738.501 150.641 739.61 149.666 740.863 148.95C742.117 148.234 743.44 147.867 744.815 147.875L758.986 147.871C761.432 147.863 763.496 148.695 765.149 150.363C766.804 152.016 767.64 154.081 767.634 156.525L767.631 169.494C767.633 170.724 767.218 171.749 766.386 172.569C765.551 173.402 764.528 173.807 763.298 173.81L741.678 173.804C740.447 173.806 739.423 173.392 738.603 172.559C737.784 171.727 737.365 170.701 737.362 169.471L737.369 163.953C734.842 165.747 732.124 167.128 729.208 168.062C726.291 168.997 723.236 169.469 720.074 169.468C716.972 169.462 713.952 168.988 710.991 168.012C708.031 167.036 705.304 165.648 702.78 163.856L702.784 169.478C702.786 170.708 702.372 171.733 701.539 172.553C700.704 173.386 699.681 173.791 698.451 173.794L676.831 173.788C675.6 173.79 674.576 173.376 673.756 172.543C672.937 171.711 672.518 170.685 672.515 169.455L672.479 169.493ZM720.058 156.524C717.321 156.524 714.724 155.891 712.266 154.638C709.811 153.37 707.76 151.633 706.106 149.394C704.885 147.598 703.351 146.171 701.514 145.13C699.678 144.089 697.678 143.56 695.511 143.559C697.094 140.896 700.453 138.78 705.57 137.237C710.69 135.681 715.525 134.908 720.062 134.918C724.601 134.913 729.426 135.691 734.555 137.239C739.669 138.785 743.029 140.9 744.609 143.565C742.516 143.562 740.534 144.09 738.666 145.137C736.798 146.184 735.244 147.608 734.019 149.412C732.426 151.722 730.416 153.49 727.961 154.712C725.505 155.933 722.878 156.553 720.067 156.555L720.058 156.524ZM685.457 143.543C681.857 143.537 678.785 142.278 676.273 139.757C673.746 137.233 672.486 134.17 672.491 130.57C672.497 126.97 673.756 123.811 676.273 121.327C678.79 118.843 681.864 117.599 685.466 117.59C689.14 117.593 692.228 118.841 694.706 121.312C697.195 123.801 698.439 126.874 698.432 130.562C698.427 134.163 697.185 137.223 694.703 139.757C692.222 142.291 689.131 143.546 685.457 143.543ZM754.656 143.536C751.056 143.53 747.984 142.271 745.472 139.75C742.945 137.225 741.685 134.163 741.69 130.563C741.695 126.963 742.955 123.803 745.472 121.319C747.988 118.835 751.062 117.591 754.665 117.583C758.339 117.586 761.427 118.834 763.904 121.305C766.393 123.794 767.637 126.867 767.631 130.555C767.625 134.243 766.384 137.215 763.902 139.75C761.423 142.269 758.33 143.539 754.656 143.536ZM720.053 130.569C716.453 130.563 713.381 129.304 710.868 126.783C708.356 124.261 707.081 121.196 707.087 117.596C707.09 113.922 708.352 110.836 710.868 108.352C713.385 105.868 716.459 104.624 720.062 104.616C723.664 104.607 726.824 105.867 729.301 108.338C731.79 110.826 733.034 113.9 733.028 117.588C733.022 121.276 731.78 124.248 729.299 126.783C726.82 129.302 723.726 130.572 720.053 130.569Z"
            fill="#DDC4F7" />
        <path opacity="0.6"
            d="M581.498 154.576L657.547 363.486C660.256 370.929 657.117 379.23 650.156 382.999C632.853 392.387 617.514 405.208 605.165 420.709C600.235 426.897 591.519 428.529 584.671 424.579L392.1 313.411C384.073 308.776 381.69 298.334 386.827 290.619C429.289 226.772 489.527 176.255 559.962 145.417C568.457 141.696 578.325 145.853 581.5 154.567L581.498 154.576Z"
            fill="#191919" />
        <path opacity="0.6"
            d="M521.243 218.271C523.457 220.916 525.107 223.826 526.17 227.009C527.233 230.192 527.79 233.428 527.826 236.735C527.816 237.657 527.487 238.432 526.83 239.047C526.173 239.662 525.353 239.934 524.364 239.841C523.444 239.76 522.723 239.358 522.181 238.633C521.639 237.908 521.337 237.083 521.277 236.159C521.206 233.74 520.732 231.361 519.853 229.033C518.973 226.705 517.716 224.564 516.081 222.611C514.445 220.657 512.563 219.066 510.455 217.831C508.347 216.596 506.103 215.734 503.732 215.244C502.79 215.058 502.023 214.628 501.421 213.953C500.819 213.279 500.546 212.469 500.592 211.512C500.639 210.556 501.028 209.792 501.748 209.218C502.469 208.645 503.288 208.434 504.196 208.584C507.44 209.186 510.546 210.292 513.491 211.898C516.437 213.504 519.018 215.625 521.243 218.271ZM510.781 227.038C511.814 228.265 512.603 229.603 513.17 231.053C513.737 232.504 514.073 233.995 514.187 235.538C514.247 236.463 513.928 237.239 513.241 237.849C512.545 238.457 511.706 238.726 510.725 238.644C509.805 238.563 509.041 238.175 508.431 237.488C507.823 236.792 507.408 235.978 507.208 235.039C507.082 234.427 506.876 233.812 506.597 233.205C506.318 232.597 505.942 232.023 505.498 231.488C505.054 230.953 504.548 230.487 503.995 230.106C503.443 229.724 502.861 229.398 502.249 229.128C501.358 228.767 500.629 228.233 500.074 227.526C499.518 226.818 499.274 226.014 499.355 225.094C499.438 224.103 499.85 223.323 500.571 222.749C501.291 222.176 502.105 221.994 503.011 222.215C504.508 222.591 505.916 223.184 507.245 223.997C508.574 224.811 509.757 225.821 510.789 227.049L510.781 227.038ZM496.778 254.452C494.251 256.576 491.327 257.492 488.017 257.203C484.707 256.914 481.991 255.501 479.868 252.974C477.744 250.446 476.828 247.523 477.117 244.213C477.407 240.903 478.82 238.187 481.347 236.063C483.874 233.94 486.797 233.024 490.107 233.313C493.418 233.602 496.133 235.015 498.257 237.542C500.38 240.069 501.297 242.993 501.007 246.303C500.718 249.613 499.305 252.329 496.778 254.452ZM489.96 283.672L488.416 281.836C487.359 280.574 486.682 279.114 486.407 277.451C486.13 275.798 486.321 274.196 486.988 272.659C488.102 270.022 489.602 267.332 491.478 264.586C493.353 261.84 495.763 259.229 498.708 256.753C501.653 254.276 504.651 252.358 507.674 250.992C510.707 249.628 513.617 248.618 516.402 247.972C518.034 247.579 519.643 247.67 521.219 248.232C522.806 248.796 524.127 249.709 525.184 250.972L526.729 252.808C527.785 254.071 528.248 255.534 528.1 257.183C527.951 258.832 527.253 260.202 525.99 261.258L498.412 284.401C497.15 285.458 495.687 285.921 494.038 285.772C492.379 285.622 491.019 284.925 489.962 283.663L489.96 283.672Z"
            fill="#777777" />
        <path opacity="0.6"
            d="M384.112 327.265L576.692 438.445C583.548 442.406 586.477 450.792 583.573 458.159C580.036 467.162 577.328 476.646 575.585 486.533C573.841 496.421 573.132 506.257 573.387 515.928C573.595 523.845 567.976 530.723 560.178 532.1L341.187 570.709C332.059 572.319 323.531 565.86 322.494 556.65C318.253 518.798 319.476 480.529 326.172 442.555C332.868 404.581 344.799 368.19 361.739 334.083C365.863 325.783 376.084 322.64 384.112 327.265Z"
            fill="#191919" />
        <path opacity="0.6"
            d="M374.117 449.486C374.022 450.028 373.703 450.398 373.157 450.616C372.612 450.825 372.12 450.738 371.679 450.356L358.215 439.066C357.644 438.559 357.347 437.999 357.333 437.388C357.319 436.776 357.54 436.155 358.007 435.526C360.132 432.398 362.789 429.769 365.987 427.642C369.175 425.513 372.623 424.04 376.322 423.22C377.005 423.086 377.55 423.223 377.967 423.621C378.384 424.02 378.521 424.572 378.399 425.261L374.127 449.488L374.117 449.486ZM375.878 460.692L358.952 466.846C358.243 467.127 357.585 467.113 356.98 466.803C356.375 466.493 355.922 466.007 355.642 465.349C354.385 462.69 353.517 459.836 353.041 456.777C352.563 453.728 352.613 450.568 353.186 447.318C353.316 446.58 353.5 445.769 353.723 444.905C353.948 444.031 354.167 443.308 354.37 442.734C354.59 442.062 354.965 441.661 355.497 441.522C356.03 441.382 356.559 441.546 357.089 441.995L376.335 458.102C376.775 458.484 376.945 458.961 376.846 459.522C376.747 460.084 376.424 460.473 375.88 460.682L375.878 460.692ZM383.862 480.601C383.767 481.142 383.493 481.602 383.05 481.981C382.608 482.36 382.096 482.554 381.537 482.557C380.978 482.56 380.377 482.515 379.732 482.431C379.086 482.348 378.346 482.228 377.509 482.08C374.407 481.533 371.403 480.486 368.509 478.929C365.606 477.372 362.965 475.302 360.581 472.698C359.987 472.035 359.754 471.344 359.879 470.635C360.004 469.926 360.477 469.43 361.275 469.165L385.109 460.573C385.654 460.364 386.144 460.461 386.579 460.873C387.016 461.275 387.186 461.752 387.09 462.293L383.861 480.611L383.862 480.601ZM407.444 469.527C405.295 472.499 402.633 475.097 399.448 477.327C396.262 479.558 392.83 481.055 389.14 481.826C388.456 481.959 387.913 481.813 387.502 481.385C387.09 480.957 386.955 480.395 387.077 479.705L391.322 455.627C391.418 455.085 391.739 454.705 392.283 454.496C392.828 454.288 393.32 454.375 393.76 454.757L407.113 465.874C407.683 466.381 408.02 466.948 408.103 467.572C408.196 468.198 407.979 468.85 407.455 469.519L407.444 469.527ZM412.264 457.735C412.143 458.425 411.966 459.196 411.746 460.04C411.525 460.895 411.304 461.628 411.093 462.25C410.873 462.922 410.494 463.343 409.958 463.502C409.422 463.662 408.889 463.517 408.359 463.068L389.235 447.135C388.795 446.753 388.636 446.217 388.757 445.528C388.879 444.839 389.212 444.39 389.756 444.181L406.429 438.134C407.032 437.885 407.642 437.881 408.261 438.112C408.88 438.343 409.398 438.861 409.818 439.646C411.093 442.206 411.956 445.09 412.407 448.287C412.857 451.494 412.81 454.643 412.263 457.745L412.264 457.735ZM404.349 435.706L380.342 444.42C379.797 444.628 379.306 444.532 378.871 444.12C378.436 443.708 378.265 443.241 378.36 442.7L381.578 424.451C381.673 423.909 381.947 423.45 382.39 423.071C382.832 422.692 383.344 422.498 383.903 422.495C384.462 422.492 385.063 422.537 385.709 422.621C386.354 422.704 387.094 422.824 387.931 422.972C391.033 423.519 394.057 424.57 397.01 426.136C399.953 427.701 402.603 429.773 404.938 432.368C405.41 432.857 405.595 433.479 405.485 434.221C405.384 434.965 405.003 435.456 404.351 435.696L404.349 435.706Z"
            fill="#777777" />
    </g>
    <defs>
        <filter id="filter0_d_580_1642" x="574.775" y="63.019" width="290.605" height="299.056"
            filterUnits="userSpaceOnUse" color-interpolation-filters="sRGB">
            <feFlood flood-opacity="0" result="BackgroundImageFix" />
            <feColorMatrix in="SourceAlpha" type="matrix" values="0 0 0 0 0 0 0 0 0 0 0 0 0 0 0 0 0 0 127 0"
                result="hardAlpha" />
            <feOffset dy="4" />
            <feGaussianBlur stdDeviation="2" />
            <feComposite in2="hardAlpha" operator="out" />
            <feColorMatrix type="matrix" values="0 0 0 0 0 0 0 0 0 0 0 0 0 0 0 0 0 0 0.1 0" />
            <feBlend mode="normal" in2="BackgroundImageFix" result="effect1_dropShadow_580_1642" />
            <feBlend mode="normal" in="SourceGraphic" in2="effect1_dropShadow_580_1642" result="shape" />
        </filter>
        <clipPath id="clip0_580_1642">
            <rect width="1440" height="1024" fill="white" />
        </clipPath>
    </defs>
</svg>