<svg width="1440" height="1024" viewBox="0 0 1440 1024" fill="none" xmlns="http://www.w3.org/2000/svg">
    <path
        d="M720.128 983C713.588 983 706.778 982.82 699.288 982.46C694.098 982.21 689.658 978.58 687.958 973.22C681.748 953.64 665.358 939.26 645.168 935.7C641.978 935.14 638.738 934.85 635.538 934.85C618.658 934.85 602.408 942.85 592.058 956.25C589.458 959.61 585.568 961.62 581.638 961.62C580.438 961.62 579.258 961.44 578.108 961.08C565.118 956.98 552.168 952.25 539.618 947.04C534.788 945.04 531.828 940.06 532.068 934.37C532.928 913.85 522.438 894.74 504.688 884.49C496.318 879.66 486.818 877.1 477.208 877.1C466.788 877.1 456.618 880.04 447.818 885.59C445.538 887.03 442.968 887.79 440.388 887.79C437.678 887.79 435.148 886.94 433.068 885.33C422.388 877.09 411.828 868.18 401.688 858.85C397.858 855.32 396.768 849.65 398.908 844.41C406.658 825.46 403.318 803.97 390.188 788.32C379.698 775.82 364.338 768.66 348.028 768.66C344.108 768.66 340.188 769.08 336.368 769.91C335.348 770.13 334.318 770.24 333.288 770.24C328.838 770.24 324.838 768.15 322.618 764.64C315.328 753.19 308.438 741.22 302.118 729.08C299.708 724.44 300.628 718.73 304.448 714.52C318.248 699.36 322.468 678 315.478 658.79C308.478 639.55 291.538 625.87 271.268 623.09C265.668 622.32 261.318 618.54 260.208 613.47C257.238 599.99 254.848 586.34 253.098 572.89C252.428 567.74 255.228 562.72 260.218 560.09C278.338 550.56 289.588 531.95 289.588 511.53C289.588 491.11 278.378 472.47 260.328 462.91C255.348 460.27 252.568 455.24 253.238 450.1C255.018 436.55 257.438 422.87 260.428 409.45C261.558 404.39 265.898 400.62 271.488 399.85C291.738 397.07 308.648 383.44 315.618 364.29C322.598 345.11 318.468 323.79 304.828 308.64C301.038 304.43 300.148 298.73 302.558 294.12C308.958 281.86 315.898 269.86 323.198 258.43C325.428 254.94 329.418 252.85 333.858 252.85C334.878 252.85 335.898 252.96 336.908 253.17C340.688 253.98 344.578 254.39 348.448 254.39C364.708 254.39 380.018 247.26 390.448 234.83C403.518 219.26 406.948 197.87 399.398 179.01C397.308 173.78 398.418 168.14 402.228 164.64C412.438 155.28 423.088 146.33 433.888 138.04C435.968 136.44 438.498 135.6 441.198 135.6C443.748 135.6 446.298 136.35 448.568 137.76C457.328 143.22 467.408 146.11 477.718 146.11C487.268 146.11 496.718 143.57 505.038 138.77C522.668 128.59 533.208 109.63 532.548 89.31C532.368 83.66 535.338 78.74 540.128 76.76C552.768 71.53 565.838 66.79 578.978 62.67C580.118 62.31 581.298 62.13 582.488 62.13C586.378 62.13 590.258 64.11 592.848 67.43C603.198 80.65 619.328 88.54 635.998 88.54C639.188 88.54 642.408 88.26 645.578 87.7C665.618 84.17 681.998 69.97 688.328 50.65C690.058 45.36 694.498 41.78 699.638 41.53C707.018 41.18 713.728 41 720.138 41C726.548 41 733.608 41.18 741.188 41.56C746.328 41.81 750.768 45.4 752.488 50.7C758.798 70.04 775.118 84.25 795.098 87.77C798.288 88.33 801.528 88.62 804.728 88.62C821.448 88.62 837.598 80.75 847.948 67.58C850.548 64.27 854.418 62.3 858.308 62.3C859.498 62.3 860.688 62.48 861.828 62.84C874.948 66.97 888.008 71.73 900.658 76.98C905.448 78.97 908.418 83.9 908.218 89.54C907.518 109.89 917.998 128.83 935.578 138.98C943.958 143.82 953.458 146.37 963.068 146.37C973.358 146.37 983.418 143.5 992.138 138.08C994.408 136.67 996.948 135.93 999.498 135.93C1002.21 135.93 1004.74 136.78 1006.82 138.38C1017.6 146.68 1028.24 155.64 1038.44 165.02C1042.25 168.53 1043.36 174.17 1041.26 179.4C1033.67 198.26 1037.05 219.62 1050.08 235.15C1060.57 247.66 1075.95 254.83 1092.26 254.83C1096.09 254.83 1099.93 254.43 1103.66 253.64C1104.66 253.43 1105.67 253.32 1106.68 253.32C1111.13 253.32 1115.12 255.41 1117.35 258.91C1124.66 270.38 1131.6 282.39 1137.96 294.61C1140.37 299.23 1139.46 304.93 1135.67 309.14C1121.99 324.28 1117.82 345.57 1124.78 364.69C1131.77 383.9 1148.68 397.59 1168.91 400.4C1174.5 401.18 1178.83 404.95 1179.95 410.01C1182.93 423.45 1185.33 437.12 1187.1 450.63C1187.77 455.78 1184.98 460.8 1179.99 463.44C1161.91 472.98 1150.68 491.57 1150.68 511.96C1150.68 532.35 1161.91 551.09 1179.99 560.65C1184.98 563.29 1187.77 568.31 1187.09 573.45C1185.33 586.93 1182.93 600.57 1179.96 613.99C1178.84 619.07 1174.48 622.84 1168.88 623.61C1148.59 626.37 1131.64 640.01 1124.65 659.21C1117.64 678.46 1121.84 699.84 1135.6 715.01C1139.42 719.22 1140.32 724.93 1137.91 729.56C1131.57 741.73 1124.66 753.69 1117.39 765.1C1115.16 768.6 1111.17 770.69 1106.72 770.69C1105.68 770.69 1104.64 770.58 1103.61 770.35C1099.76 769.51 1095.81 769.08 1091.86 769.08C1075.59 769.08 1060.26 776.22 1049.82 788.66C1036.66 804.34 1033.29 825.85 1041.01 844.79C1043.15 850.04 1042.05 855.7 1038.21 859.23C1028.07 868.54 1017.5 877.44 1006.8 885.67C1004.72 887.27 1002.19 888.12 999.488 888.12C996.788 888.12 994.328 887.36 992.038 885.91C983.208 880.33 973.028 877.37 962.578 877.37C953.018 877.37 943.558 879.91 935.228 884.72C917.448 894.99 906.918 914.1 907.748 934.61C907.978 940.3 905.008 945.26 900.178 947.26C887.638 952.45 874.688 957.15 861.668 961.25C860.528 961.61 859.348 961.79 858.158 961.79C854.228 961.79 850.328 959.78 847.728 956.4C837.388 942.97 821.138 934.95 804.278 934.95C801.088 934.95 797.858 935.23 794.698 935.79C774.478 939.36 758.038 953.72 751.808 973.28C750.098 978.64 745.548 982.27 740.218 982.52C733.008 982.86 726.438 983.02 720.138 983.02L720.128 983Z"
        fill="#F2F2F2" fill-opacity="0.2" />
    <mask id="path-2-inside-1_580_1557" fill="white">
        <path
            d="M720.129 42C726.699 42 733.569 42.18 741.129 42.55C745.849 42.78 749.929 46.1 751.529 51C757.949 70.7 774.569 85.16 794.909 88.75C798.149 89.32 801.449 89.61 804.719 89.61C821.739 89.61 838.189 81.6 848.729 68.18C851.139 65.11 854.719 63.28 858.299 63.28C859.389 63.28 860.469 63.45 861.519 63.78C874.609 67.9 887.649 72.65 900.269 77.89C904.669 79.72 907.399 84.27 907.209 89.5C906.499 110.22 917.169 129.5 935.069 139.84C943.599 144.76 953.279 147.37 963.059 147.37C973.539 147.37 983.769 144.45 992.659 138.93C994.769 137.62 997.129 136.93 999.489 136.93C1001.97 136.93 1004.29 137.71 1006.2 139.17C1016.96 147.45 1027.57 156.39 1037.75 165.75C1041.25 168.97 1042.26 174.18 1040.32 179.02C1032.6 198.23 1036.04 219.98 1049.31 235.79C1059.99 248.52 1075.65 255.82 1092.26 255.82C1096.16 255.82 1100.07 255.41 1103.87 254.6C1104.8 254.4 1105.75 254.3 1106.68 254.3C1110.79 254.3 1114.46 256.22 1116.51 259.43C1123.8 270.87 1130.72 282.86 1137.08 295.06C1139.29 299.31 1138.45 304.56 1134.93 308.46C1121 323.88 1116.75 345.55 1123.84 365.02C1130.96 384.58 1148.18 398.51 1168.77 401.38C1173.94 402.1 1177.94 405.57 1178.97 410.22C1181.94 423.64 1184.34 437.28 1186.11 450.76C1186.73 455.49 1184.14 460.12 1179.53 462.55C1161.12 472.26 1149.69 491.19 1149.69 511.95C1149.69 532.71 1161.13 551.79 1179.53 561.52C1184.14 563.96 1186.73 568.59 1186.11 573.31C1184.35 586.76 1181.95 600.38 1178.99 613.77C1177.96 618.44 1173.94 621.91 1168.75 622.61C1148.09 625.42 1130.83 639.31 1123.71 658.86C1116.58 678.46 1120.85 700.23 1134.86 715.68C1138.39 719.57 1139.24 724.84 1137.03 729.09C1130.7 741.24 1123.81 753.17 1116.55 764.56C1114.5 767.77 1110.83 769.68 1106.73 769.68C1105.77 769.68 1104.79 769.57 1103.84 769.37C1099.92 768.51 1095.89 768.08 1091.87 768.08C1075.3 768.08 1059.7 775.35 1049.06 788.02C1035.67 803.98 1032.23 825.88 1040.09 845.17C1042.07 850.03 1041.07 855.25 1037.54 858.49C1027.43 867.77 1016.88 876.65 1006.19 884.87C1004.29 886.34 1001.97 887.11 999.489 887.11C997.009 887.11 994.699 886.4 992.579 885.05C983.589 879.36 973.219 876.36 962.589 876.36C952.849 876.36 943.219 878.95 934.739 883.85C916.629 894.3 905.909 913.77 906.759 934.65C906.969 939.91 904.249 944.5 899.809 946.34C887.299 951.52 874.369 956.21 861.379 960.3C860.339 960.63 859.249 960.79 858.169 960.79C854.549 960.79 850.939 958.92 848.529 955.79C837.999 942.11 821.459 933.95 804.289 933.95C801.039 933.95 797.759 934.24 794.529 934.81C773.939 938.44 757.209 953.07 750.859 972.98C749.279 977.94 745.089 981.29 740.169 981.52C732.979 981.86 726.429 982.02 720.139 982.02C713.849 982.02 706.829 981.84 699.349 981.48C694.589 981.25 690.489 977.89 688.919 972.93C682.599 952.99 665.909 938.36 645.349 934.73C642.109 934.16 638.809 933.87 635.539 933.87C618.349 933.87 601.799 942.01 591.269 955.66C588.859 958.78 585.259 960.64 581.649 960.64C580.559 960.64 579.469 960.47 578.419 960.14C565.449 956.04 552.529 951.33 540.009 946.13C535.579 944.29 532.849 939.7 533.079 934.43C533.959 913.54 523.279 894.08 505.199 883.64C496.679 878.72 486.999 876.12 477.219 876.12C466.609 876.12 456.259 879.11 447.289 884.76C445.169 886.1 442.779 886.81 440.389 886.81C437.999 886.81 435.579 886.03 433.679 884.56C423.019 876.34 412.489 867.45 402.369 858.14C398.849 854.9 397.849 849.67 399.839 844.81C407.729 825.52 404.329 803.63 390.959 787.7C380.279 774.98 364.639 767.68 348.039 767.68C344.049 767.68 340.059 768.11 336.169 768.95C335.219 769.16 334.259 769.26 333.299 769.26C329.189 769.26 325.519 767.34 323.469 764.13C316.199 752.7 309.319 740.76 303.019 728.65C300.799 724.39 301.659 719.12 305.209 715.23C319.259 699.79 323.559 678.05 316.439 658.48C309.309 638.9 292.059 624.97 271.419 622.13C266.239 621.42 262.219 617.94 261.199 613.28C258.239 599.84 255.849 586.22 254.109 572.79C253.499 568.06 256.089 563.44 260.709 561C279.159 551.29 290.609 532.34 290.609 511.55C290.609 490.76 279.199 471.78 260.819 462.05C256.209 459.61 253.629 454.98 254.259 450.26C256.039 436.74 258.449 423.09 261.429 409.7C262.459 405.05 266.479 401.58 271.649 400.87C292.269 398.04 309.489 384.16 316.589 364.66C323.699 345.13 319.489 323.42 305.599 307.99C302.089 304.09 301.259 298.84 303.469 294.6C309.849 282.37 316.779 270.39 324.059 258.99C326.109 255.79 329.779 253.87 333.879 253.87C334.829 253.87 335.779 253.97 336.719 254.17C340.569 254.99 344.529 255.41 348.469 255.41C365.029 255.41 380.609 248.15 391.239 235.49C404.549 219.63 408.039 197.86 400.359 178.65C398.419 173.81 399.439 168.6 402.939 165.39C413.119 156.05 423.749 147.12 434.529 138.85C436.429 137.39 438.749 136.62 441.229 136.62C443.599 136.62 445.959 137.31 448.069 138.63C456.989 144.19 467.259 147.13 477.749 147.13C487.469 147.13 497.089 144.54 505.569 139.65C523.519 129.28 534.259 109.99 533.579 89.29C533.409 84.07 536.139 79.51 540.539 77.69C553.149 72.47 566.189 67.74 579.309 63.63C580.349 63.3 581.429 63.14 582.519 63.14C586.109 63.14 589.689 64.98 592.099 68.05C602.629 81.51 619.059 89.55 636.039 89.55C639.289 89.55 642.559 89.26 645.789 88.69C666.189 85.09 682.869 70.64 689.319 50.97C690.919 46.08 695.009 42.77 699.729 42.54C707.089 42.19 713.779 42.02 720.189 42.02M720.129 40C713.239 40 706.389 40.2 699.579 40.53C693.829 40.81 689.159 44.86 687.369 50.34C681.369 68.65 665.709 83.13 645.389 86.72C642.229 87.28 639.089 87.55 635.989 87.55C619.179 87.55 603.649 79.63 593.629 66.82C590.869 63.29 586.759 61.14 582.479 61.14C581.219 61.14 579.939 61.33 578.679 61.72C565.439 65.87 552.449 70.58 539.739 75.84C534.379 78.06 531.359 83.55 531.549 89.35C532.179 108.62 522.419 127.59 504.539 137.92C496.069 142.81 486.839 145.13 477.719 145.13C467.629 145.13 457.689 142.28 449.099 136.93C446.669 135.42 443.919 134.62 441.199 134.62C438.399 134.62 435.629 135.47 433.289 137.27C422.319 145.69 411.739 154.59 401.559 163.92C397.289 167.84 396.319 174.02 398.469 179.4C405.619 197.28 402.929 218.41 389.679 234.21C379.029 246.9 363.799 253.42 348.449 253.42C344.659 253.42 340.859 253.02 337.119 252.22C336.039 251.99 334.949 251.87 333.869 251.87C329.279 251.87 324.899 253.94 322.359 257.91C314.959 269.49 308.069 281.43 301.679 293.67C298.989 298.83 300.199 305 304.099 309.32C317.019 323.68 321.769 344.53 314.689 363.96C307.609 383.4 290.519 396.24 271.359 398.88C265.609 399.67 260.719 403.58 259.459 409.25C256.479 422.62 254.069 436.21 252.259 449.98C251.499 455.73 254.739 461.09 259.869 463.8C276.969 472.86 288.599 490.83 288.599 511.54C288.599 532.25 276.889 550.21 259.769 559.22C254.629 561.92 251.369 567.28 252.119 573.04C253.909 586.79 256.299 600.35 259.239 613.7C260.489 619.38 265.379 623.31 271.149 624.1C290.349 626.74 307.469 639.66 314.559 659.15C321.659 678.64 316.779 699.54 303.729 713.87C299.799 718.19 298.549 724.38 301.249 729.56C307.589 741.76 314.439 753.65 321.789 765.2C324.319 769.18 328.709 771.26 333.309 771.26C334.399 771.26 335.509 771.14 336.599 770.91C340.369 770.09 344.209 769.69 348.039 769.69C363.449 769.69 378.739 776.26 389.429 789C402.749 804.88 405.319 826.15 397.989 844.07C395.779 849.46 396.729 855.68 401.019 859.63C411.109 868.91 421.589 877.78 432.459 886.16C434.799 887.97 437.579 888.82 440.389 888.82C443.199 888.82 445.909 888.01 448.349 886.46C456.989 881.01 467.019 878.12 477.209 878.12C486.379 878.12 495.669 880.46 504.189 885.38C522.189 895.77 531.879 914.96 531.069 934.35C530.819 940.19 533.839 945.74 539.239 947.98C551.829 953.21 564.699 957.91 577.819 962.05C579.089 962.45 580.379 962.64 581.649 962.64C585.959 962.64 590.099 960.45 592.859 956.88C602.889 943.89 618.579 935.87 635.549 935.87C638.669 935.87 641.829 936.14 645.009 936.7C665.479 940.31 681.149 955.03 687.019 973.53C688.769 979.06 693.459 983.19 699.259 983.47C706.179 983.81 713.139 984.02 720.149 984.02C727.159 984.02 733.609 983.83 740.279 983.51C746.169 983.23 750.989 979.19 752.779 973.58C758.679 955.06 774.409 940.38 794.889 936.77C798.049 936.21 801.199 935.94 804.299 935.94C821.269 935.94 836.949 944 846.959 957C849.719 960.58 853.859 962.78 858.179 962.78C859.449 962.78 860.729 962.59 861.989 962.19C875.109 958.06 887.979 953.39 900.579 948.17C905.979 945.94 908.999 940.39 908.759 934.56C907.969 915.14 917.729 895.97 935.739 885.58C944.219 880.69 953.469 878.36 962.589 878.36C972.799 878.36 982.859 881.27 991.509 886.74C993.959 888.29 996.739 889.11 999.489 889.11C1002.24 889.11 1005.07 888.26 1007.41 886.45C1018.29 878.08 1028.79 869.23 1038.89 859.95C1043.18 856.01 1044.13 849.8 1041.94 844.4C1034.63 826.45 1037.26 805.17 1050.59 789.29C1061.25 776.59 1076.5 770.07 1091.86 770.07C1095.72 770.07 1099.59 770.48 1103.4 771.31C1104.5 771.55 1105.62 771.67 1106.72 771.67C1111.32 771.67 1115.7 769.6 1118.23 765.62C1125.59 754.08 1132.44 742.19 1138.79 730C1141.49 724.82 1140.25 718.64 1136.33 714.32C1123.3 699.95 1118.48 679.04 1125.58 659.53C1132.67 640.05 1149.82 627.19 1169.01 624.58C1174.78 623.8 1179.68 619.87 1180.94 614.19C1183.89 600.85 1186.29 587.3 1188.09 573.56C1188.84 567.81 1185.59 562.45 1180.46 559.74C1163.33 550.69 1151.68 532.67 1151.68 511.94C1151.68 491.21 1163.35 473.34 1180.46 464.31C1185.6 461.6 1188.85 456.25 1188.09 450.49C1186.29 436.72 1183.89 423.15 1180.92 409.78C1179.67 404.11 1174.79 400.2 1169.04 399.4C1149.88 396.73 1132.8 383.8 1125.72 364.34C1118.65 344.93 1123.47 324.14 1136.41 309.81C1140.31 305.49 1141.54 299.32 1138.85 294.15C1132.47 281.9 1125.59 269.96 1118.2 258.37C1115.67 254.4 1111.28 252.32 1106.68 252.32C1105.61 252.32 1104.53 252.43 1103.45 252.66C1099.76 253.44 1096 253.83 1092.25 253.83C1076.84 253.83 1061.53 247.25 1050.84 234.51C1037.6 218.73 1035 197.63 1042.18 179.77C1044.34 174.39 1043.38 168.21 1039.11 164.28C1028.94 154.94 1018.38 146.02 1007.42 137.59C1005.08 135.79 1002.3 134.93 999.489 134.93C996.779 134.93 994.029 135.73 991.609 137.23C983.049 142.55 973.129 145.37 963.059 145.37C953.889 145.37 944.589 143.03 936.069 138.11C918.209 127.8 908.539 108.83 909.209 89.57C909.409 83.77 906.399 78.27 901.029 76.05C888.329 70.78 875.349 66.05 862.109 61.88C860.839 61.48 859.559 61.29 858.289 61.29C854.019 61.29 849.909 63.44 847.149 66.95C837.109 79.74 821.539 87.61 804.719 87.61C801.599 87.61 798.439 87.34 795.259 86.78C774.969 83.2 759.399 68.7 753.429 50.38C751.649 44.9 746.979 40.84 741.229 40.56C734.239 40.22 727.209 40 720.129 40Z" />
    </mask>
    <path
        d="M741.129 42.55L741.08 43.5488L741.08 43.5488L741.129 42.55ZM751.529 51L752.48 50.6902L752.479 50.6896L751.529 51ZM794.909 88.75L794.735 89.7348L794.735 89.7349L794.909 88.75ZM848.729 68.18L849.515 68.7977L849.515 68.7975L848.729 68.18ZM861.519 63.78L861.819 62.8261L861.819 62.826L861.519 63.78ZM900.269 77.89L900.653 76.9667L900.652 76.9664L900.269 77.89ZM907.209 89.5L906.209 89.4637L906.209 89.4658L907.209 89.5ZM935.069 139.84L934.569 140.706L934.569 140.706L935.069 139.84ZM992.659 138.93L992.131 138.08L992.131 138.08L992.659 138.93ZM1006.2 139.17L1006.81 138.377L1006.81 138.376L1006.2 139.17ZM1037.75 165.75L1038.43 165.014L1038.43 165.014L1037.75 165.75ZM1040.32 179.02L1041.25 179.393L1041.25 179.392L1040.32 179.02ZM1049.31 235.79L1050.07 235.147L1050.07 235.147L1049.31 235.79ZM1103.87 254.6L1104.08 255.578L1104.08 255.578L1103.87 254.6ZM1116.51 259.43L1117.35 258.893L1117.35 258.892L1116.51 259.43ZM1137.08 295.06L1137.97 294.599L1137.97 294.598L1137.08 295.06ZM1134.93 308.46L1135.67 309.13L1135.67 309.13L1134.93 308.46ZM1123.84 365.02L1124.78 364.678L1124.78 364.678L1123.84 365.02ZM1168.77 401.38L1168.63 402.37L1168.63 402.37L1168.77 401.38ZM1178.97 410.22L1179.95 410.004L1179.95 410.004L1178.97 410.22ZM1186.11 450.76L1187.1 450.63L1187.1 450.63L1186.11 450.76ZM1179.53 462.55L1179.06 461.665L1179.06 461.665L1179.53 462.55ZM1179.53 561.52L1180 560.636L1180 560.636L1179.53 561.52ZM1186.11 573.31L1185.12 573.18L1185.12 573.18L1186.11 573.31ZM1178.99 613.77L1178.01 613.554L1178.01 613.555L1178.99 613.77ZM1168.75 622.61L1168.62 621.619L1168.61 621.619L1168.75 622.61ZM1123.71 658.86L1122.77 658.518L1122.77 658.518L1123.71 658.86ZM1134.86 715.68L1134.12 716.352L1134.12 716.352L1134.86 715.68ZM1137.03 729.09L1137.92 729.552L1137.92 729.551L1137.03 729.09ZM1116.55 764.56L1117.39 765.098L1117.39 765.097L1116.55 764.56ZM1103.84 769.37L1103.62 770.347L1103.63 770.349L1103.84 769.37ZM1049.06 788.02L1048.29 787.377L1048.29 787.377L1049.06 788.02ZM1040.09 845.17L1041.01 844.793L1041.01 844.793L1040.09 845.17ZM1037.54 858.49L1036.86 857.753L1036.86 857.753L1037.54 858.49ZM1006.19 884.87L1005.58 884.077L1005.58 884.079L1006.19 884.87ZM992.579 885.05L993.116 884.206L993.114 884.205L992.579 885.05ZM934.739 883.85L935.239 884.716L935.239 884.716L934.739 883.85ZM906.759 934.65L907.758 934.61L907.758 934.609L906.759 934.65ZM899.809 946.34L900.191 947.264L900.192 947.264L899.809 946.34ZM861.379 960.3L861.078 959.346L861.076 959.347L861.379 960.3ZM848.529 955.79L847.736 956.4L847.736 956.4L848.529 955.79ZM794.529 934.81L794.702 935.795L794.703 935.795L794.529 934.81ZM750.859 972.98L749.906 972.676L749.906 972.676L750.859 972.98ZM740.169 981.52L740.122 980.521L740.122 980.521L740.169 981.52ZM699.349 981.48L699.3 982.479L699.301 982.479L699.349 981.48ZM688.919 972.93L689.872 972.628L689.872 972.628L688.919 972.93ZM645.349 934.73L645.523 933.745L645.522 933.745L645.349 934.73ZM591.269 955.66L592.06 956.271L592.061 956.271L591.269 955.66ZM578.419 960.14L578.117 961.094L578.119 961.094L578.419 960.14ZM540.009 946.13L539.625 947.054L539.625 947.054L540.009 946.13ZM533.079 934.43L534.078 934.474L534.078 934.472L533.079 934.43ZM505.199 883.64L504.699 884.506L504.699 884.506L505.199 883.64ZM447.289 884.76L446.756 883.914L446.754 883.915L447.289 884.76ZM433.679 884.56L434.291 883.769L434.289 883.768L433.679 884.56ZM402.369 858.14L401.691 858.876L401.692 858.876L402.369 858.14ZM399.839 844.81L400.764 845.189L400.764 845.189L399.839 844.81ZM390.959 787.7L391.725 787.057L391.725 787.057L390.959 787.7ZM336.169 768.95L335.958 767.973L335.953 767.974L336.169 768.95ZM323.469 764.13L322.625 764.667L322.626 764.668L323.469 764.13ZM303.019 728.65L303.906 728.189L303.906 728.188L303.019 728.65ZM305.209 715.23L305.947 715.904L305.948 715.903L305.209 715.23ZM316.439 658.48L317.378 658.138L317.378 658.138L316.439 658.48ZM271.419 622.13L271.555 621.139L271.555 621.139L271.419 622.13ZM261.199 613.28L262.176 613.066L262.175 613.065L261.199 613.28ZM254.109 572.79L253.117 572.918L253.117 572.918L254.109 572.79ZM260.709 561L260.243 560.115L260.242 560.116L260.709 561ZM260.819 462.05L261.287 461.166L261.287 461.166L260.819 462.05ZM254.259 450.26L255.25 450.392L255.25 450.391L254.259 450.26ZM261.429 409.7L262.405 409.917L262.405 409.916L261.429 409.7ZM271.649 400.87L271.513 399.879L271.513 399.879L271.649 400.87ZM316.589 364.66L317.528 365.002L317.528 365.002L316.589 364.66ZM305.599 307.99L304.855 308.659L304.856 308.659L305.599 307.99ZM303.469 294.6L302.582 294.137L302.582 294.138L303.469 294.6ZM324.059 258.99L323.217 258.451L323.216 258.452L324.059 258.99ZM336.719 254.17L336.927 253.192L336.927 253.192L336.719 254.17ZM391.239 235.49L392.005 236.133L392.005 236.133L391.239 235.49ZM400.359 178.65L401.287 178.279L401.287 178.278L400.359 178.65ZM402.939 165.39L403.615 166.127L403.615 166.127L402.939 165.39ZM434.529 138.85L435.137 139.643L435.138 139.643L434.529 138.85ZM448.069 138.63L447.538 139.478L447.54 139.479L448.069 138.63ZM505.569 139.65L506.068 140.516L506.069 140.516L505.569 139.65ZM533.579 89.29L532.579 89.3226L532.579 89.3228L533.579 89.29ZM540.539 77.69L540.921 78.6141L540.921 78.614L540.539 77.69ZM579.309 63.63L579.608 64.5843L579.611 64.5832L579.309 63.63ZM592.099 68.05L592.886 67.4338L592.885 67.4325L592.099 68.05ZM645.789 88.69L645.963 89.6748L645.789 88.69ZM689.319 50.97L690.269 51.2816L690.269 51.281L689.319 50.97ZM699.729 42.54L699.681 41.5411L699.68 41.5412L699.729 42.54ZM699.579 40.53L699.53 39.5312L699.53 39.5312L699.579 40.53ZM687.369 50.34L688.319 50.6514L688.319 50.6505L687.369 50.34ZM645.389 86.72L645.215 85.7353L645.214 85.7353L645.389 86.72ZM593.629 66.82L592.841 67.4359L592.841 67.4361L593.629 66.82ZM578.679 61.72L578.383 60.7647L578.38 60.7658L578.679 61.72ZM539.739 75.84L539.356 74.916L539.356 74.9161L539.739 75.84ZM531.549 89.35L532.548 89.3173L532.548 89.3173L531.549 89.35ZM504.539 137.92L505.039 138.786L505.039 138.786L504.539 137.92ZM449.099 136.93L449.627 136.081L449.627 136.081L449.099 136.93ZM433.289 137.27L433.898 138.063L433.898 138.063L433.289 137.27ZM401.559 163.92L400.883 163.183L400.882 163.183L401.559 163.92ZM398.469 179.4L397.54 179.771L397.54 179.771L398.469 179.4ZM389.679 234.21L390.445 234.853L390.445 234.853L389.679 234.21ZM337.119 252.22L337.328 251.242L337.327 251.242L337.119 252.22ZM322.359 257.91L321.516 257.371L321.516 257.372L322.359 257.91ZM301.679 293.67L300.792 293.207L300.792 293.208L301.679 293.67ZM304.099 309.32L304.842 308.651L304.841 308.65L304.099 309.32ZM314.689 363.96L313.749 363.618L313.749 363.618L314.689 363.96ZM271.359 398.88L271.495 399.871L271.495 399.871L271.359 398.88ZM259.459 409.25L260.435 409.468L260.435 409.467L259.459 409.25ZM252.259 449.98L253.25 450.111L253.25 450.11L252.259 449.98ZM259.869 463.8L260.337 462.916L260.336 462.916L259.869 463.8ZM259.769 559.22L260.234 560.105L260.234 560.105L259.769 559.22ZM252.119 573.04L253.11 572.911L253.11 572.911L252.119 573.04ZM259.239 613.7L260.215 613.485L260.215 613.485L259.239 613.7ZM271.149 624.1L271.285 623.109L271.284 623.109L271.149 624.1ZM314.559 659.15L313.619 659.492L313.619 659.492L314.559 659.15ZM303.729 713.87L302.989 713.197L302.989 713.197L303.729 713.87ZM301.249 729.56L302.136 729.099L302.136 729.098L301.249 729.56ZM321.789 765.2L322.633 764.664L322.632 764.663L321.789 765.2ZM336.599 770.91L336.805 771.888L336.811 771.887L336.599 770.91ZM389.429 789L390.195 788.357L390.195 788.357L389.429 789ZM397.989 844.07L398.914 844.449L398.914 844.449L397.989 844.07ZM401.019 859.63L400.341 860.366L400.342 860.366L401.019 859.63ZM432.459 886.16L433.071 885.369L433.069 885.368L432.459 886.16ZM448.349 886.46L447.815 885.614L447.813 885.616L448.349 886.46ZM504.189 885.38L503.689 886.246L503.689 886.246L504.189 885.38ZM531.069 934.35L532.068 934.393L532.068 934.392L531.069 934.35ZM539.239 947.98L539.622 947.056L539.622 947.056L539.239 947.98ZM577.819 962.05L577.518 963.004L577.518 963.004L577.819 962.05ZM592.859 956.88L593.65 957.492L593.65 957.491L592.859 956.88ZM645.009 936.7L645.182 935.715L645.182 935.715L645.009 936.7ZM687.019 973.53L687.972 973.228L687.972 973.228L687.019 973.53ZM699.259 983.47L699.308 982.471L699.307 982.471L699.259 983.47ZM740.279 983.51L740.231 982.511L740.231 982.511L740.279 983.51ZM752.779 973.58L753.731 973.884L753.732 973.884L752.779 973.58ZM794.889 936.77L795.062 937.755L795.063 937.755L794.889 936.77ZM846.959 957L846.166 957.61L846.167 957.611L846.959 957ZM861.989 962.19L861.688 961.236L861.686 961.237L861.989 962.19ZM900.579 948.17L900.197 947.246L900.196 947.246L900.579 948.17ZM908.759 934.56L907.76 934.601L907.76 934.601L908.759 934.56ZM935.739 885.58L935.239 884.714L935.239 884.714L935.739 885.58ZM991.509 886.74L992.043 885.895L992.043 885.895L991.509 886.74ZM1007.41 886.45L1006.8 885.657L1006.8 885.659L1007.41 886.45ZM1038.89 859.95L1038.21 859.213L1038.21 859.214L1038.89 859.95ZM1041.94 844.4L1042.87 844.024L1042.86 844.023L1041.94 844.4ZM1050.59 789.29L1051.35 789.933L1051.35 789.933L1050.59 789.29ZM1103.4 771.31L1103.61 770.333L1103.61 770.333L1103.4 771.31ZM1118.23 765.62L1117.39 765.082L1117.38 765.084L1118.23 765.62ZM1138.79 730L1137.9 729.538L1137.9 729.538L1138.79 730ZM1136.33 714.32L1135.59 714.992L1135.59 714.992L1136.33 714.32ZM1125.58 659.53L1124.64 659.188L1124.64 659.188L1125.58 659.53ZM1169.01 624.58L1168.87 623.589L1168.87 623.589L1169.01 624.58ZM1180.94 614.19L1181.91 614.407L1181.92 614.406L1180.94 614.19ZM1188.09 573.56L1189.08 573.69L1189.08 573.689L1188.09 573.56ZM1180.46 559.74L1179.99 560.624L1179.99 560.624L1180.46 559.74ZM1180.46 464.31L1179.99 463.425L1179.99 463.426L1180.46 464.31ZM1188.09 450.49L1187.1 450.62L1187.1 450.621L1188.09 450.49ZM1180.92 409.78L1179.94 409.995L1179.94 409.997L1180.92 409.78ZM1169.04 399.4L1168.9 400.39L1168.9 400.39L1169.04 399.4ZM1125.72 364.34L1126.66 363.998L1126.66 363.998L1125.72 364.34ZM1136.41 309.81L1137.15 310.48L1137.15 310.48L1136.41 309.81ZM1138.85 294.15L1139.74 293.688L1139.74 293.688L1138.85 294.15ZM1118.2 258.37L1117.36 258.907L1117.36 258.908L1118.2 258.37ZM1103.45 252.66L1103.66 253.638L1103.66 253.638L1103.45 252.66ZM1050.84 234.51L1050.07 235.153L1050.07 235.153L1050.84 234.51ZM1042.18 179.77L1043.11 180.143L1043.11 180.143L1042.18 179.77ZM1039.11 164.28L1039.79 163.544L1039.79 163.543L1039.11 164.28ZM1007.42 137.59L1006.81 138.383L1006.81 138.383L1007.42 137.59ZM991.609 137.23L991.082 136.38L991.081 136.381L991.609 137.23ZM936.069 138.11L936.569 137.244L936.569 137.244L936.069 138.11ZM909.209 89.57L910.208 89.6048L910.208 89.6045L909.209 89.57ZM901.029 76.05L900.645 76.9736L900.647 76.9741L901.029 76.05ZM862.109 61.88L861.808 62.8338L861.808 62.8338L862.109 61.88ZM847.149 66.95L846.363 66.3319L846.362 66.3325L847.149 66.95ZM795.259 86.78L795.085 87.7648L795.085 87.7648L795.259 86.78ZM753.429 50.38L752.478 50.6889L752.478 50.6898L753.429 50.38ZM741.229 40.56L741.277 39.5612L741.277 39.5612L741.229 40.56ZM720.129 43C726.68 43 733.534 43.1795 741.08 43.5488L741.178 41.5512C733.604 41.1805 726.717 41 720.129 41V43ZM741.08 43.5488C745.337 43.7563 749.091 46.7566 750.578 51.3104L752.479 50.6896C750.766 45.4434 746.36 41.8037 741.177 41.5512L741.08 43.5488ZM750.578 51.3098C757.112 71.3598 774.03 86.0803 794.735 89.7348L795.083 87.7652C775.108 84.2397 758.785 70.0402 752.48 50.6902L750.578 51.3098ZM794.735 89.7349C798.032 90.3148 801.39 90.61 804.719 90.61V88.61C801.507 88.61 798.265 88.3252 795.082 87.7651L794.735 89.7349ZM804.719 90.61C822.047 90.61 838.786 82.4583 849.515 68.7977L847.942 67.5623C837.591 80.7417 821.431 88.61 804.719 88.61V90.61ZM849.515 68.7975C851.755 65.9447 855.055 64.28 858.299 64.28V62.28C854.382 62.28 850.523 64.2753 847.942 67.5625L849.515 68.7975ZM858.299 64.28C859.284 64.28 860.263 64.4335 861.219 64.734L861.819 62.826C860.675 62.4665 859.494 62.28 858.299 62.28V64.28ZM861.219 64.7339C874.28 68.845 887.293 73.5849 899.885 78.8136L900.652 76.9664C888.005 71.7151 874.937 66.955 861.819 62.8261L861.219 64.7339ZM899.885 78.8133C903.854 80.4643 906.386 84.5993 906.209 89.4637L908.208 89.5363C908.411 83.9407 905.483 78.9757 900.653 76.9667L899.885 78.8133ZM906.209 89.4658C905.487 110.554 916.347 130.18 934.569 140.706L935.569 138.974C917.99 128.82 907.511 109.886 908.208 89.5342L906.209 89.4658ZM934.569 140.706C943.249 145.713 953.101 148.37 963.059 148.37V146.37C953.456 146.37 943.948 143.807 935.568 138.974L934.569 140.706ZM963.059 148.37C973.725 148.37 984.138 145.398 993.186 139.78L992.131 138.08C983.4 143.502 973.352 146.37 963.059 146.37V148.37ZM993.186 139.78C995.146 138.563 997.325 137.93 999.489 137.93V135.93C996.933 135.93 994.391 136.677 992.131 138.08L993.186 139.78ZM999.489 137.93C1001.75 137.93 1003.86 138.641 1005.59 139.964L1006.81 138.376C1004.72 136.779 1002.18 135.93 999.489 135.93V137.93ZM1005.59 139.963C1016.33 148.224 1026.91 157.145 1037.07 166.486L1038.43 165.014C1028.22 155.635 1017.59 146.676 1006.81 138.377L1005.59 139.963ZM1037.07 166.486C1040.23 169.391 1041.2 174.145 1039.39 178.648L1041.25 179.392C1043.32 174.215 1042.27 168.549 1038.43 165.014L1037.07 166.486ZM1039.39 178.647C1031.53 198.198 1035.03 220.339 1048.54 236.433L1050.07 235.147C1037.04 219.621 1033.66 198.262 1041.25 179.393L1039.39 178.647ZM1048.54 236.433C1059.41 249.389 1075.35 256.82 1092.26 256.82V254.82C1075.94 254.82 1060.56 247.651 1050.07 235.147L1048.54 236.433ZM1092.26 256.82C1096.23 256.82 1100.21 256.403 1104.08 255.578L1103.66 253.622C1099.93 254.417 1096.09 254.82 1092.26 254.82V256.82ZM1104.08 255.578C1104.94 255.392 1105.82 255.3 1106.68 255.3V253.3C1105.68 253.3 1104.66 253.408 1103.66 253.622L1104.08 255.578ZM1106.68 255.3C1110.48 255.3 1113.82 257.071 1115.67 259.968L1117.35 258.892C1115.1 255.369 1111.1 253.3 1106.68 253.3V255.3ZM1115.67 259.967C1122.94 271.383 1129.85 283.347 1136.19 295.522L1137.97 294.598C1131.59 282.373 1124.66 270.357 1117.35 258.893L1115.67 259.967ZM1136.19 295.521C1138.19 299.356 1137.46 304.161 1134.19 307.79L1135.67 309.13C1139.44 304.959 1140.39 299.264 1137.97 294.599L1136.19 295.521ZM1134.19 307.79C1120.01 323.483 1115.68 345.543 1122.9 365.362L1124.78 364.678C1117.82 345.557 1121.99 324.277 1135.67 309.13L1134.19 307.79ZM1122.9 365.362C1130.15 385.27 1147.67 399.449 1168.63 402.37L1168.91 400.39C1148.68 397.571 1131.77 383.89 1124.78 364.678L1122.9 365.362ZM1168.63 402.37C1173.44 403.04 1177.06 406.243 1177.99 410.436L1179.95 410.004C1178.81 404.897 1174.44 401.16 1168.91 400.39L1168.63 402.37ZM1177.99 410.436C1180.96 423.828 1183.35 437.439 1185.12 450.89L1187.1 450.63C1185.33 437.121 1182.92 423.452 1179.95 410.004L1177.99 410.436ZM1185.12 450.89C1185.68 455.155 1183.35 459.406 1179.06 461.665L1180 463.435C1184.93 460.834 1187.78 455.825 1187.1 450.63L1185.12 450.89ZM1179.06 461.665C1160.32 471.548 1148.69 490.818 1148.69 511.95H1150.69C1150.69 491.562 1161.91 472.972 1180 463.434L1179.06 461.665ZM1148.69 511.95C1148.69 533.079 1160.33 552.5 1179.06 562.404L1180 560.636C1161.92 551.08 1150.69 532.341 1150.69 511.95H1148.69ZM1179.06 562.404C1183.35 564.674 1185.68 568.925 1185.12 573.18L1187.1 573.44C1187.78 568.255 1184.93 563.246 1180 560.636L1179.06 562.404ZM1185.12 573.18C1183.36 586.601 1180.97 600.192 1178.01 613.554L1179.97 613.986C1182.93 600.568 1185.34 586.919 1187.1 573.44L1185.12 573.18ZM1178.01 613.555C1177.08 617.766 1173.44 620.968 1168.62 621.619L1168.88 623.601C1174.44 622.852 1178.83 619.114 1179.97 613.985L1178.01 613.555ZM1168.61 621.619C1147.59 624.479 1130.02 638.618 1122.77 658.518L1124.65 659.202C1131.64 640.002 1148.59 626.361 1168.88 623.601L1168.61 621.619ZM1122.77 658.518C1115.51 678.467 1119.86 700.627 1134.12 716.352L1135.6 715.008C1121.84 699.833 1117.65 678.453 1124.65 659.202L1122.77 658.518ZM1134.12 716.352C1137.4 719.971 1138.14 724.794 1136.14 728.629L1137.92 729.551C1140.34 724.886 1139.38 719.169 1135.6 715.008L1134.12 716.352ZM1136.14 728.628C1129.83 740.752 1122.95 752.657 1115.71 764.022L1117.39 765.097C1124.67 753.683 1131.57 741.728 1137.92 729.552L1136.14 728.628ZM1115.71 764.022C1113.86 766.918 1110.52 768.68 1106.73 768.68V770.68C1111.14 770.68 1115.14 768.622 1117.39 765.098L1115.71 764.022ZM1106.73 768.68C1105.84 768.68 1104.93 768.578 1104.04 768.391L1103.63 770.349C1104.64 770.562 1105.69 770.68 1106.73 770.68V768.68ZM1104.05 768.393C1100.06 767.518 1095.96 767.08 1091.87 767.08V769.08C1095.82 769.08 1099.78 769.502 1103.62 770.347L1104.05 768.393ZM1091.87 767.08C1075 767.08 1059.12 774.48 1048.29 787.377L1049.82 788.663C1060.27 776.22 1075.59 769.08 1091.87 769.08V767.08ZM1048.29 787.377C1034.66 803.621 1031.16 825.914 1039.16 845.547L1041.01 844.793C1033.29 825.846 1036.67 804.339 1049.82 788.663L1048.29 787.377ZM1039.16 845.547C1041 850.069 1040.05 854.83 1036.86 857.753L1038.21 859.227C1042.09 855.67 1043.13 849.991 1041.01 844.793L1039.16 845.547ZM1036.86 857.753C1026.77 867.014 1016.25 875.875 1005.58 884.077L1006.8 885.663C1017.51 877.425 1028.08 868.526 1038.21 859.227L1036.86 857.753ZM1005.58 884.079C1003.86 885.407 1001.76 886.11 999.489 886.11V888.11C1002.18 888.11 1004.72 887.273 1006.8 885.661L1005.58 884.079ZM999.489 886.11C997.21 886.11 995.085 885.461 993.116 884.206L992.042 885.893C994.312 887.339 996.807 888.11 999.489 888.11V886.11ZM993.114 884.205C983.963 878.414 973.408 875.36 962.589 875.36V877.36C973.03 877.36 983.214 880.306 992.044 885.895L993.114 884.205ZM962.589 875.36C952.672 875.36 942.87 877.997 934.238 882.984L935.239 884.716C943.568 879.903 953.025 877.36 962.589 877.36V875.36ZM934.239 882.984C915.807 893.62 904.894 913.439 905.76 934.691L907.758 934.609C906.923 914.101 917.451 894.98 935.238 884.716L934.239 882.984ZM905.76 934.69C905.955 939.586 903.43 943.757 899.426 945.416L900.192 947.264C905.067 945.243 907.982 940.234 907.758 934.61L905.76 934.69ZM899.426 945.416C886.944 950.585 874.041 955.265 861.078 959.346L861.679 961.254C874.696 957.155 887.654 952.455 900.191 947.264L899.426 945.416ZM861.076 959.347C860.139 959.644 859.151 959.79 858.169 959.79V961.79C859.346 961.79 860.539 961.616 861.681 961.253L861.076 959.347ZM858.169 959.79C854.89 959.79 851.561 958.089 849.321 955.18L847.736 956.4C850.316 959.751 854.208 961.79 858.169 961.79V959.79ZM849.321 955.18C838.603 941.255 821.771 932.95 804.289 932.95V934.95C821.147 934.95 837.395 942.965 847.736 956.4L849.321 955.18ZM804.289 932.95C800.98 932.95 797.642 933.245 794.355 933.825L794.703 935.795C797.876 935.235 801.098 934.95 804.289 934.95V932.95ZM794.355 933.825C773.399 937.52 756.369 952.412 749.906 972.676L751.811 973.284C758.049 953.728 774.479 939.36 794.702 935.795L794.355 933.825ZM749.906 972.676C748.443 977.269 744.593 980.312 740.122 980.521L740.215 982.519C745.585 982.268 750.114 978.611 751.812 973.284L749.906 972.676ZM740.122 980.521C732.946 980.86 726.411 981.02 720.139 981.02V983.02C726.446 983.02 733.012 982.86 740.216 982.519L740.122 980.521ZM720.139 981.02C713.867 981.02 706.863 980.84 699.397 980.481L699.301 982.479C706.794 982.839 713.83 983.02 720.139 983.02V981.02ZM699.397 980.481C695.103 980.274 691.331 977.237 689.872 972.628L687.965 973.232C689.646 978.543 694.075 982.226 699.3 982.479L699.397 980.481ZM689.872 972.628C683.44 952.334 666.45 937.44 645.523 933.745L645.175 935.715C665.368 939.28 681.758 953.646 687.965 973.232L689.872 972.628ZM645.522 933.745C642.225 933.165 638.867 932.87 635.539 932.87V934.87C638.75 934.87 641.992 935.155 645.175 935.715L645.522 933.745ZM635.539 932.87C618.038 932.87 601.196 941.154 590.477 955.049L592.061 956.271C602.402 942.866 618.659 934.87 635.539 934.87V932.87ZM590.477 955.049C588.237 957.949 584.919 959.64 581.649 959.64V961.64C585.599 961.64 589.48 959.611 592.06 956.271L590.477 955.049ZM581.649 959.64C580.663 959.64 579.674 959.486 578.719 959.186L578.119 961.094C579.264 961.454 580.455 961.64 581.649 961.64V959.64ZM578.72 959.187C565.778 955.095 552.885 950.395 540.392 945.206L539.625 947.054C552.172 952.265 565.12 956.985 578.117 961.094L578.72 959.187ZM540.392 945.206C536.397 943.547 533.864 939.376 534.078 934.474L532.08 934.386C531.834 940.024 534.761 945.033 539.625 947.054L540.392 945.206ZM534.078 934.472C534.973 913.211 524.102 893.401 505.699 882.774L504.699 884.506C522.456 894.759 532.944 913.869 532.08 934.388L534.078 934.472ZM505.699 882.774C497.028 877.767 487.175 875.12 477.219 875.12V877.12C486.822 877.12 496.33 879.673 504.699 884.506L505.699 882.774ZM477.219 875.12C466.42 875.12 455.885 878.163 446.756 883.914L447.822 885.606C456.632 880.057 466.797 877.12 477.219 877.12V875.12ZM446.754 883.915C444.786 885.159 442.58 885.81 440.389 885.81V887.81C442.977 887.81 445.551 887.041 447.823 885.605L446.754 883.915ZM440.389 885.81C438.208 885.81 436.006 885.096 434.291 883.769L433.067 885.351C435.152 886.964 437.79 887.81 440.389 887.81V885.81ZM434.289 883.768C423.653 875.566 413.145 866.695 403.046 857.404L401.692 858.876C411.832 868.205 422.384 877.114 433.068 885.352L434.289 883.768ZM403.046 857.404C399.87 854.481 398.913 849.71 400.764 845.189L398.913 844.431C396.784 849.63 397.828 855.319 401.691 858.876L403.046 857.404ZM400.764 845.189C408.794 825.556 405.334 803.273 391.725 787.057L390.193 788.343C403.323 803.988 406.663 825.484 398.913 844.431L400.764 845.189ZM391.725 787.057C380.855 774.111 364.935 766.68 348.039 766.68V768.68C364.343 768.68 379.703 775.849 390.193 788.343L391.725 787.057ZM348.039 766.68C343.977 766.68 339.916 767.118 335.958 767.973L336.38 769.927C340.201 769.102 344.12 768.68 348.039 768.68V766.68ZM335.953 767.974C335.077 768.167 334.189 768.26 333.299 768.26V770.26C334.328 770.26 335.361 770.153 336.385 769.926L335.953 767.974ZM333.299 768.26C329.499 768.26 326.162 766.489 324.312 763.592L322.626 764.668C324.876 768.191 328.878 770.26 333.299 770.26V768.26ZM324.313 763.593C317.058 752.188 310.193 740.273 303.906 728.189L302.132 729.112C308.445 741.247 315.339 753.212 322.625 764.667L324.313 763.593ZM303.906 728.188C301.903 724.345 302.644 719.523 305.947 715.904L304.47 714.556C300.673 718.717 299.694 724.435 302.132 729.112L303.906 728.188ZM305.948 715.903C320.248 700.189 324.626 678.058 317.378 658.138L315.499 658.822C322.492 678.042 318.27 699.391 304.469 714.557L305.948 715.903ZM317.378 658.138C310.122 638.21 292.563 624.03 271.555 621.139L271.282 623.121C291.555 625.91 308.496 639.59 315.499 658.822L317.378 658.138ZM271.555 621.139C266.737 620.479 263.095 617.267 262.176 613.066L260.222 613.494C261.342 618.613 265.74 622.361 271.283 623.121L271.555 621.139ZM262.175 613.065C259.221 599.653 256.837 586.062 255.1 572.661L253.117 572.918C254.861 586.378 257.256 600.027 260.222 613.495L262.175 613.065ZM255.101 572.662C254.55 568.397 256.877 564.154 261.176 561.884L260.242 560.116C255.3 562.726 252.447 567.723 253.117 572.918L255.101 572.662ZM261.174 561.885C279.952 552.002 291.609 532.712 291.609 511.55H289.609C289.609 531.968 278.365 550.578 260.243 560.115L261.174 561.885ZM291.609 511.55C291.609 490.39 279.994 471.07 261.287 461.166L260.351 462.934C278.403 472.49 289.609 491.13 289.609 511.55H291.609ZM261.287 461.166C256.999 458.897 254.682 454.647 255.25 450.392L253.268 450.128C252.575 455.313 255.418 460.323 260.351 462.934L261.287 461.166ZM255.25 450.391C257.026 436.9 259.431 423.279 262.405 409.917L260.453 409.483C257.466 422.901 255.051 436.58 253.267 450.129L255.25 450.391ZM262.405 409.916C263.334 405.725 266.976 402.521 271.785 401.861L271.513 399.879C265.981 400.639 261.584 404.375 260.452 409.484L262.405 409.916ZM271.785 401.861C292.771 398.98 310.301 384.852 317.528 365.002L315.649 364.318C308.676 383.468 291.766 397.1 271.513 399.879L271.785 401.861ZM317.528 365.002C324.765 345.125 320.48 323.026 306.342 307.321L304.856 308.659C318.498 323.814 322.633 345.135 315.649 364.318L317.528 365.002ZM306.342 307.321C303.076 303.693 302.361 298.888 304.356 295.062L302.582 294.138C300.156 298.792 301.101 304.487 304.855 308.659L306.342 307.321ZM304.355 295.063C310.722 282.858 317.637 270.903 324.902 259.528L323.216 258.452C315.92 269.877 308.975 281.882 302.582 294.137L304.355 295.063ZM324.901 259.529C326.751 256.641 330.089 254.87 333.879 254.87V252.87C329.468 252.87 325.466 254.939 323.217 258.451L324.901 259.529ZM333.879 254.87C334.758 254.87 335.639 254.963 336.511 255.148L336.927 253.192C335.919 252.977 334.899 252.87 333.879 252.87V254.87ZM336.51 255.148C340.428 255.983 344.458 256.41 348.469 256.41V254.41C344.599 254.41 340.709 253.997 336.927 253.192L336.51 255.148ZM348.469 256.41C365.324 256.41 381.184 249.02 392.005 236.133L390.473 234.847C380.033 247.28 364.734 254.41 348.469 254.41V256.41ZM392.005 236.133C405.551 219.991 409.104 197.831 401.287 178.279L399.43 179.021C406.973 197.889 403.546 219.269 390.473 234.847L392.005 236.133ZM401.287 178.278C399.483 173.776 400.458 169.022 403.615 166.127L402.263 164.653C398.42 168.178 397.355 173.844 399.431 179.022L401.287 178.278ZM403.615 166.127C413.774 156.806 424.381 147.895 435.137 139.643L433.92 138.057C423.116 146.345 412.464 155.294 402.263 164.653L403.615 166.127ZM435.138 139.643C436.856 138.323 438.96 137.62 441.229 137.62V135.62C438.538 135.62 436.001 136.457 433.919 138.057L435.138 139.643ZM441.229 137.62C443.403 137.62 445.58 138.253 447.538 139.478L448.599 137.782C446.337 136.367 443.794 135.62 441.229 135.62V137.62ZM447.54 139.479C456.618 145.137 467.071 148.13 477.749 148.13V146.13C467.446 146.13 457.359 143.243 448.598 137.781L447.54 139.479ZM477.749 148.13C487.646 148.13 497.438 145.493 506.068 140.516L505.069 138.784C496.74 143.587 487.292 146.13 477.749 146.13V148.13ZM506.069 140.516C524.338 129.962 535.27 110.327 534.578 89.2572L532.579 89.3228C533.247 109.653 522.7 128.598 505.069 138.784L506.069 140.516ZM534.578 89.2575C534.42 84.3992 536.954 80.255 540.921 78.6141L540.157 76.7659C535.324 78.765 532.397 83.7408 532.579 89.3226L534.578 89.2575ZM540.921 78.614C553.504 73.4054 566.516 68.6855 579.608 64.5843L579.01 62.6757C565.862 66.7945 552.794 71.5346 540.156 76.766L540.921 78.614ZM579.611 64.5832C580.549 64.2855 581.527 64.14 582.519 64.14V62.14C581.331 62.14 580.148 62.3145 579.006 62.6768L579.611 64.5832ZM582.519 64.14C585.771 64.14 589.072 65.8136 591.312 68.6675L592.885 67.4325C590.306 64.1464 586.447 62.14 582.519 62.14V64.14ZM591.311 68.6662C602.029 82.3666 618.749 90.55 636.039 90.55V88.55C619.369 88.55 603.228 80.6534 592.886 67.4338L591.311 68.6662ZM636.039 90.55C639.348 90.55 642.676 90.2547 645.963 89.6748L645.615 87.7052C642.441 88.2653 639.229 88.55 636.039 88.55V90.55ZM645.963 89.6748C666.725 86.0108 683.704 71.3025 690.269 51.2816L688.369 50.6584C682.034 69.9775 665.652 84.1692 645.615 87.7052L645.963 89.6748ZM690.269 51.281C691.755 46.7395 695.517 43.7464 699.777 43.5388L699.68 41.5412C694.5 41.7936 690.082 45.4205 688.368 50.659L690.269 51.281ZM699.776 43.5389C707.123 43.1895 713.797 43.02 720.189 43.02V41.02C713.761 41.02 707.055 41.1905 699.681 41.5411L699.776 43.5389ZM720.129 39C713.22 39 706.353 39.2006 699.53 39.5312L699.627 41.5288C706.424 41.1994 713.258 41 720.129 41V39ZM699.53 39.5312C693.31 39.8341 688.319 44.2114 686.418 50.0295L688.319 50.6505C689.999 45.5086 694.348 41.7859 699.627 41.5288L699.53 39.5312ZM686.418 50.0286C680.529 68.0008 665.159 82.2117 645.215 85.7353L645.563 87.7048C666.259 84.0483 682.208 69.2992 688.319 50.6514L686.418 50.0286ZM645.214 85.7353C642.112 86.2851 639.031 86.55 635.989 86.55V88.55C639.147 88.55 642.345 88.2749 645.563 87.7047L645.214 85.7353ZM635.989 86.55C619.495 86.55 604.252 78.7787 594.416 66.2039L592.841 67.4361C603.045 80.4813 618.862 88.55 635.989 88.55V86.55ZM594.417 66.2041C591.486 62.4561 587.096 60.14 582.479 60.14V62.14C586.421 62.14 590.251 64.1239 592.841 67.4359L594.417 66.2041ZM582.479 60.14C581.118 60.14 579.738 60.3452 578.383 60.7647L578.974 62.6753C580.139 62.3148 581.319 62.14 582.479 62.14V60.14ZM578.38 60.7658C565.112 64.9245 552.094 69.6446 539.356 74.916L540.121 76.764C552.804 71.5154 565.766 66.8155 578.978 62.6742L578.38 60.7658ZM539.356 74.9161C533.554 77.3194 530.348 83.2326 530.549 89.3827L532.548 89.3173C532.37 83.8674 535.204 78.8006 540.121 76.7639L539.356 74.9161ZM530.549 89.3827C531.168 108.297 521.588 126.915 504.038 137.054L505.039 138.786C523.25 128.265 533.19 108.943 532.548 89.3173L530.549 89.3827ZM504.039 137.054C495.725 141.854 486.668 144.13 477.719 144.13V146.13C487.01 146.13 496.413 143.766 505.039 138.786L504.039 137.054ZM477.719 144.13C467.816 144.13 458.059 141.333 449.627 136.081L448.57 137.779C457.318 143.227 467.441 146.13 477.719 146.13V144.13ZM449.627 136.081C447.045 134.477 444.114 133.62 441.199 133.62V135.62C443.724 135.62 446.292 136.363 448.571 137.779L449.627 136.081ZM441.199 133.62C438.194 133.62 435.206 134.533 432.679 136.477L433.898 138.063C436.051 136.407 438.603 135.62 441.199 135.62V133.62ZM432.68 136.477C421.686 144.915 411.084 153.834 400.883 163.183L402.234 164.657C412.393 155.346 422.951 146.465 433.898 138.063L432.68 136.477ZM400.882 163.183C396.262 167.425 395.26 174.065 397.54 179.771L399.397 179.029C397.378 173.975 398.316 168.255 402.235 164.657L400.882 163.183ZM397.54 179.771C404.558 197.322 401.917 218.06 388.912 233.567L390.445 234.853C403.94 218.76 406.679 197.238 399.397 179.029L397.54 179.771ZM388.913 233.567C378.461 246.021 363.516 252.42 348.449 252.42V254.42C364.081 254.42 379.597 247.779 390.445 234.853L388.913 233.567ZM348.449 252.42C344.729 252.42 340.999 252.027 337.328 251.242L336.91 253.198C340.718 254.013 344.588 254.42 348.449 254.42V252.42ZM337.327 251.242C336.182 250.998 335.023 250.87 333.869 250.87V252.87C334.875 252.87 335.895 252.982 336.91 253.198L337.327 251.242ZM333.869 250.87C328.983 250.87 324.263 253.078 321.516 257.371L323.201 258.449C325.534 254.802 329.575 252.87 333.869 252.87V250.87ZM321.516 257.372C314.1 268.977 307.195 280.942 300.792 293.207L302.565 294.133C308.942 281.918 315.818 270.003 323.201 258.448L321.516 257.372ZM300.792 293.208C297.881 298.791 299.219 305.407 303.356 309.99L304.841 308.65C301.179 304.593 300.096 298.869 302.565 294.132L300.792 293.208ZM303.355 309.989C316.037 324.084 320.698 344.548 313.749 363.618L315.628 364.302C322.84 344.512 318 323.276 304.842 308.651L303.355 309.989ZM313.749 363.618C306.801 382.695 290.031 395.298 271.222 397.889L271.495 399.871C291.006 397.182 308.416 384.105 315.628 364.302L313.749 363.618ZM271.223 397.889C265.124 398.727 259.847 402.894 258.483 409.033L260.435 409.467C261.591 404.266 266.094 400.613 271.495 399.871L271.223 397.889ZM258.483 409.032C255.496 422.431 253.081 436.05 251.267 449.85L253.25 450.11C255.056 436.37 257.461 422.809 260.435 409.468L258.483 409.032ZM251.267 449.849C250.445 456.073 253.958 461.808 259.402 464.684L260.336 462.916C255.52 460.371 252.553 455.387 253.25 450.111L251.267 449.849ZM259.401 464.684C276.186 473.577 287.599 491.214 287.599 511.54H289.599C289.599 490.446 277.752 472.143 260.337 462.916L259.401 464.684ZM287.599 511.54C287.599 531.863 276.108 549.491 259.303 558.335L260.234 560.105C277.669 550.929 289.599 532.637 289.599 511.54H287.599ZM259.304 558.335C253.85 561.2 250.315 566.934 251.127 573.169L253.11 572.911C252.422 567.626 255.408 562.64 260.234 560.105L259.304 558.335ZM251.127 573.169C252.921 586.949 255.316 600.537 258.262 613.915L260.215 613.485C257.281 600.163 254.897 586.631 253.11 572.911L251.127 573.169ZM258.262 613.915C259.615 620.064 264.892 624.253 271.013 625.091L271.284 623.109C265.865 622.367 261.362 618.696 260.215 613.485L258.262 613.915ZM271.013 625.091C289.859 627.682 306.661 640.364 313.619 659.492L315.498 658.808C308.277 638.956 290.838 625.798 271.285 623.109L271.013 625.091ZM313.619 659.492C320.586 678.618 315.8 699.13 302.989 713.197L304.468 714.543C317.758 699.95 322.731 678.662 315.498 658.808L313.619 659.492ZM302.989 713.197C298.822 717.778 297.439 724.414 300.362 730.022L302.136 729.098C299.658 724.346 300.776 718.602 304.468 714.543L302.989 713.197ZM300.361 730.021C306.715 742.247 313.579 754.162 320.945 765.737L322.632 764.663C315.298 753.138 308.463 741.273 302.136 729.099L300.361 730.021ZM320.945 765.736C323.682 770.042 328.413 772.26 333.309 772.26V770.26C329.005 770.26 324.956 768.318 322.633 764.664L320.945 765.736ZM333.309 772.26C334.471 772.26 335.651 772.132 336.805 771.888L336.392 769.932C335.367 770.148 334.326 770.26 333.309 770.26V772.26ZM336.811 771.887C340.51 771.083 344.278 770.69 348.039 770.69V768.69C344.139 768.69 340.228 769.097 336.386 769.933L336.811 771.887ZM348.039 770.69C363.165 770.69 378.17 777.138 388.663 789.643L390.195 788.357C379.307 775.382 363.732 768.69 348.039 768.69V770.69ZM388.663 789.643C401.734 805.226 404.259 826.1 397.063 843.691L398.914 844.449C406.379 826.2 403.763 804.534 390.195 788.357L388.663 789.643ZM397.063 843.691C394.719 849.409 395.7 856.092 400.341 860.366L401.696 858.894C397.758 855.268 396.839 849.511 398.914 844.449L397.063 843.691ZM400.342 860.366C410.452 869.665 420.954 878.553 431.848 886.952L433.069 885.368C422.223 877.007 411.765 868.155 401.696 858.894L400.342 860.366ZM431.847 886.951C434.376 888.907 437.375 889.82 440.389 889.82V887.82C437.782 887.82 435.222 887.033 433.071 885.369L431.847 886.951ZM440.389 889.82C443.397 889.82 446.292 888.952 448.885 887.304L447.813 885.616C445.526 887.068 443.001 887.82 440.389 887.82V889.82ZM448.882 887.306C457.362 881.957 467.207 879.12 477.209 879.12V877.12C466.83 877.12 456.615 880.063 447.815 885.614L448.882 887.306ZM477.209 879.12C486.207 879.12 495.324 881.416 503.689 886.246L504.689 884.514C496.013 879.504 486.55 877.12 477.209 877.12V879.12ZM503.689 886.246C521.353 896.442 530.865 915.274 530.07 934.308L532.068 934.392C532.893 914.646 523.025 895.098 504.689 884.514L503.689 886.246ZM530.07 934.307C529.805 940.501 533.01 946.479 538.856 948.904L539.622 947.056C534.667 945.001 531.833 939.879 532.068 934.393L530.07 934.307ZM538.855 948.903C551.472 954.145 564.37 958.855 577.518 963.004L578.12 961.096C565.028 956.965 552.185 952.275 539.622 947.056L538.855 948.903ZM577.518 963.004C578.887 963.435 580.279 963.64 581.649 963.64V961.64C580.479 961.64 579.29 961.465 578.119 961.096L577.518 963.004ZM581.649 963.64C586.3 963.64 590.721 961.281 593.65 957.492L592.068 956.268C589.477 959.619 585.618 961.64 581.649 961.64V963.64ZM593.65 957.491C603.495 944.741 618.896 936.87 635.549 936.87V934.87C618.262 934.87 602.282 943.039 592.067 956.269L593.65 957.491ZM635.549 936.87C638.611 936.87 641.713 937.135 644.835 937.685L645.182 935.715C641.945 935.145 638.727 934.87 635.549 934.87V936.87ZM644.835 937.685C664.923 941.227 680.303 955.672 686.066 973.832L687.972 973.228C681.994 954.388 666.035 939.393 645.182 935.715L644.835 937.685ZM686.065 973.832C687.923 979.702 692.934 984.166 699.211 984.469L699.307 982.471C693.983 982.214 689.615 978.418 687.972 973.228L686.065 973.832ZM699.21 984.469C706.142 984.809 713.119 985.02 720.149 985.02V983.02C713.159 983.02 706.215 982.811 699.308 982.471L699.21 984.469ZM720.149 985.02C727.178 985.02 733.644 984.829 740.327 984.509L740.231 982.511C733.573 982.831 727.14 983.02 720.149 983.02V985.02ZM740.326 984.509C746.672 984.207 751.827 979.854 753.731 973.884L751.826 973.276C750.151 978.526 745.666 982.253 740.231 982.511L740.326 984.509ZM753.732 973.884C759.523 955.704 774.962 941.298 795.062 937.755L794.715 935.785C773.855 939.462 757.835 954.416 751.826 973.276L753.732 973.884ZM795.063 937.755C798.165 937.205 801.257 936.94 804.299 936.94V934.94C801.141 934.94 797.932 935.215 794.714 935.785L795.063 937.755ZM804.299 936.94C820.95 936.94 836.341 944.849 846.166 957.61L847.751 956.39C837.557 943.151 821.587 934.94 804.299 934.94V936.94ZM846.167 957.611C849.096 961.41 853.516 963.78 858.179 963.78V961.78C854.201 961.78 850.342 959.75 847.751 956.389L846.167 957.611ZM858.179 963.78C859.549 963.78 860.931 963.575 862.291 963.143L861.686 961.237C860.526 961.605 859.348 961.78 858.179 961.78V963.78ZM862.289 963.144C875.436 959.005 888.334 954.325 900.961 949.094L900.196 947.246C887.624 952.455 874.781 957.115 861.688 961.236L862.289 963.144ZM900.96 949.094C906.807 946.68 910.012 940.701 909.758 934.519L907.76 934.601C907.985 940.079 905.15 945.2 900.197 947.246L900.96 949.094ZM909.758 934.519C908.982 915.457 918.563 896.643 936.238 886.446L935.239 884.714C916.895 895.297 906.955 914.823 907.76 934.601L909.758 934.519ZM936.238 886.446C944.563 881.646 953.64 879.36 962.589 879.36V877.36C953.297 877.36 943.875 879.734 935.239 884.714L936.238 886.446ZM962.589 879.36C972.61 879.36 982.484 882.216 990.974 887.585L992.043 885.895C983.233 880.324 972.988 877.36 962.589 877.36V879.36ZM990.974 887.585C993.577 889.232 996.541 890.11 999.489 890.11V888.11C996.936 888.11 994.341 887.348 992.043 885.895L990.974 887.585ZM999.489 890.11C1002.44 890.11 1005.49 889.198 1008.02 887.241L1006.8 885.659C1004.65 887.322 1002.04 888.11 999.489 888.11V890.11ZM1008.02 887.243C1018.92 878.854 1029.44 869.986 1039.57 860.686L1038.21 859.214C1028.13 868.474 1017.66 877.306 1006.8 885.657L1008.02 887.243ZM1039.57 860.687C1044.21 856.422 1045.19 849.75 1042.87 844.024L1041.01 844.776C1043.07 849.85 1042.15 855.598 1038.21 859.213L1039.57 860.687ZM1042.86 844.023C1035.69 826.403 1038.27 805.518 1051.35 789.933L1049.82 788.647C1036.25 804.822 1033.57 826.497 1041.01 844.777L1042.86 844.023ZM1051.35 789.933C1061.82 777.469 1076.78 771.07 1091.86 771.07V769.07C1076.22 769.07 1060.68 775.711 1049.82 788.647L1051.35 789.933ZM1091.86 771.07C1095.65 771.07 1099.45 771.472 1103.19 772.287L1103.61 770.333C1099.73 769.488 1095.79 769.07 1091.86 769.07V771.07ZM1103.19 772.287C1104.36 772.542 1105.55 772.67 1106.72 772.67V770.67C1105.69 770.67 1104.64 770.558 1103.61 770.333L1103.19 772.287ZM1106.72 772.67C1111.61 772.67 1116.34 770.462 1119.07 766.156L1117.38 765.084C1115.06 768.738 1111.02 770.67 1106.72 770.67V772.67ZM1119.07 766.158C1126.45 754.592 1133.31 742.677 1139.68 730.462L1137.9 729.538C1131.56 741.703 1124.73 753.568 1117.39 765.082L1119.07 766.158ZM1139.68 730.462C1142.6 724.856 1141.23 718.229 1137.07 713.648L1135.59 714.992C1139.27 719.051 1140.38 724.784 1137.9 729.538L1139.68 730.462ZM1137.07 713.648C1124.28 699.543 1119.55 679.02 1126.52 659.872L1124.64 659.188C1117.41 679.06 1122.32 700.357 1135.59 714.992L1137.07 713.648ZM1126.52 659.872C1133.48 640.756 1150.31 628.133 1169.14 625.571L1168.87 623.589C1149.33 626.247 1131.86 639.344 1124.64 659.188L1126.52 659.872ZM1169.14 625.571C1175.26 624.743 1180.55 620.555 1181.91 614.407L1179.96 613.973C1178.81 619.185 1174.29 622.857 1168.87 623.589L1169.14 625.571ZM1181.92 614.406C1184.87 601.038 1187.28 587.459 1189.08 573.69L1187.1 573.43C1185.3 587.141 1182.91 600.662 1179.96 613.974L1181.92 614.406ZM1189.08 573.689C1189.89 567.465 1186.37 561.731 1180.93 558.856L1179.99 560.624C1184.81 563.169 1187.79 568.155 1187.1 573.431L1189.08 573.689ZM1180.93 558.856C1164.11 549.973 1152.68 532.286 1152.68 511.94H1150.68C1150.68 533.054 1162.55 551.407 1179.99 560.624L1180.93 558.856ZM1152.68 511.94C1152.68 491.597 1164.13 474.059 1180.93 465.194L1179.99 463.426C1162.57 472.621 1150.68 490.823 1150.68 511.94H1152.68ZM1180.93 465.195C1186.38 462.32 1189.9 456.595 1189.08 450.359L1187.1 450.621C1187.79 455.905 1184.82 460.88 1179.99 463.425L1180.93 465.195ZM1189.08 450.36C1187.28 436.561 1184.87 422.962 1181.89 409.563L1179.94 409.997C1182.91 423.338 1185.3 436.879 1187.1 450.62L1189.08 450.36ZM1181.9 409.565C1180.54 403.425 1175.27 399.258 1169.18 398.41L1168.9 400.39C1174.3 401.142 1178.8 404.795 1179.94 409.995L1181.9 409.565ZM1169.18 398.41C1150.37 395.789 1133.61 383.097 1126.66 363.998L1124.78 364.682C1131.99 384.503 1149.39 397.671 1168.9 400.39L1169.18 398.41ZM1126.66 363.998C1119.72 344.951 1124.45 324.548 1137.15 310.48L1135.67 309.14C1122.49 323.732 1117.58 344.909 1124.78 364.682L1126.66 363.998ZM1137.15 310.48C1141.29 305.899 1142.65 299.284 1139.74 293.688L1137.96 294.612C1140.43 299.356 1139.33 305.081 1135.67 309.14L1137.15 310.48ZM1139.74 293.688C1133.34 281.413 1126.45 269.448 1119.04 257.832L1117.36 258.908C1124.73 270.472 1131.59 282.387 1137.96 294.612L1139.74 293.688ZM1119.04 257.833C1116.31 253.538 1111.57 251.32 1106.68 251.32V253.32C1110.98 253.32 1115.03 255.262 1117.36 258.907L1119.04 257.833ZM1106.68 251.32C1105.54 251.32 1104.39 251.437 1103.24 251.682L1103.66 253.638C1104.67 253.423 1105.68 253.32 1106.68 253.32V251.32ZM1103.24 251.682C1099.62 252.447 1095.93 252.83 1092.25 252.83V254.83C1096.07 254.83 1099.9 254.433 1103.66 253.638L1103.24 251.682ZM1092.25 252.83C1077.12 252.83 1062.1 246.372 1051.6 233.867L1050.07 235.153C1060.96 248.128 1076.55 254.83 1092.25 254.83V252.83ZM1051.6 233.867C1038.61 218.382 1036.06 197.676 1043.11 180.143L1041.25 179.397C1033.94 197.584 1036.58 219.078 1050.07 235.153L1051.6 233.867ZM1043.11 180.143C1045.4 174.437 1044.41 167.797 1039.79 163.544L1038.43 165.016C1042.35 168.623 1043.28 174.343 1041.25 179.397L1043.11 180.143ZM1039.79 163.543C1029.59 154.185 1019.01 145.246 1008.03 136.797L1006.81 138.383C1017.74 146.794 1028.28 155.695 1038.43 165.017L1039.79 163.543ZM1008.03 136.797C1005.5 134.854 1002.5 133.93 999.489 133.93V135.93C1002.09 135.93 1004.66 136.726 1006.81 138.383L1008.03 136.797ZM999.489 133.93C996.584 133.93 993.653 134.787 991.082 136.38L992.136 138.08C994.405 136.673 996.974 135.93 999.489 135.93V133.93ZM991.081 136.381C982.68 141.602 972.943 144.37 963.059 144.37V146.37C973.315 146.37 983.418 143.498 992.137 138.079L991.081 136.381ZM963.059 144.37C954.06 144.37 944.933 142.074 936.569 137.244L935.569 138.976C944.245 143.986 953.718 146.37 963.059 146.37V144.37ZM936.569 137.244C919.043 127.127 909.55 108.511 910.208 89.6048L908.209 89.5352C907.527 109.149 917.375 128.473 935.569 138.976L936.569 137.244ZM910.208 89.6045C910.42 83.4548 907.225 77.5296 901.411 75.1259L900.647 76.9741C905.572 79.0104 908.397 84.0852 908.209 89.5355L910.208 89.6045ZM901.412 75.1264C888.685 69.8451 875.677 65.105 862.409 60.9262L861.808 62.8338C875.02 66.995 887.973 71.7149 900.645 76.9736L901.412 75.1264ZM862.409 60.9262C861.041 60.4953 859.66 60.29 858.289 60.29V62.29C859.458 62.29 860.637 62.4647 861.808 62.8338L862.409 60.9262ZM858.289 60.29C853.681 60.29 849.293 62.6059 846.363 66.3319L847.935 67.5681C850.525 64.2741 854.356 62.29 858.289 62.29V60.29ZM846.362 66.3325C836.508 78.8863 821.225 86.61 804.719 86.61V88.61C821.852 88.61 837.71 80.5937 847.935 67.5675L846.362 66.3325ZM804.719 86.61C801.657 86.61 798.555 86.345 795.432 85.7952L795.085 87.7648C798.323 88.335 801.541 88.61 804.719 88.61V86.61ZM795.432 85.7952C775.522 82.2821 760.24 68.0542 754.38 50.0702L752.478 50.6898C758.557 69.3458 774.416 84.1179 795.085 87.7648L795.432 85.7952ZM754.38 50.0711C752.49 44.2525 747.499 39.8641 741.277 39.5612L741.18 41.5588C746.459 41.8159 750.808 45.5475 752.478 50.6889L754.38 50.0711ZM741.277 39.5612C734.276 39.2206 727.229 39 720.129 39V41C727.188 41 734.201 41.2194 741.18 41.5588L741.277 39.5612Z"
        fill="#777777" mask="url(#path-2-inside-1_580_1557)" />
    <path
        d="M720.098 928C949.848 928 1136.1 741.75 1136.1 512C1136.1 282.25 949.848 96 720.098 96C490.347 96 304.098 282.25 304.098 512C304.098 741.75 490.347 928 720.098 928Z"
        stroke="#777777" stroke-width="2" stroke-miterlimit="10" />
    <path opacity="0.6"
        d="M650.148 382.98C632.728 392.44 617.448 405.33 605.198 420.74C600.268 426.94 591.548 428.58 584.698 424.63L392.168 313.46C384.138 308.82 381.758 298.38 386.898 290.66C429.488 226.65 489.708 176.1 559.958 145.37C568.448 141.65 578.318 145.81 581.488 154.52L657.528 363.47C660.228 370.9 657.108 379.2 650.158 382.98H650.148Z"
        fill="#191919" />
    <path opacity="0.6"
        d="M484.629 288.14L478.839 281.25C477.749 279.95 477.279 278.48 477.439 276.84C477.599 275.2 478.309 273.86 479.579 272.79L487.109 266.47C487.879 265.83 488.759 265.41 489.779 265.21C490.789 265.01 491.779 265.07 492.749 265.36C495.109 265.92 497.459 265.94 499.799 265.42C502.129 264.9 504.219 263.86 506.059 262.32C507.899 260.78 509.339 258.85 510.259 256.64C511.179 254.43 511.549 252.13 511.369 249.74C511.319 248.67 511.469 247.66 511.819 246.72C512.169 245.78 512.709 245 513.429 244.39L520.959 238.07C522.259 236.98 523.719 236.5 525.339 236.64C526.959 236.78 528.319 237.5 529.409 238.81L535.199 245.7C535.749 246.35 535.979 247.08 535.909 247.89C535.839 248.7 535.479 249.38 534.829 249.92L523.339 259.56C522.689 260.11 521.959 260.34 521.149 260.27C520.339 260.2 519.659 259.84 519.119 259.19L516.659 256.26C516.119 258.34 515.289 260.28 514.149 262.08C513.019 263.88 511.609 265.49 509.919 266.9C508.269 268.28 506.449 269.37 504.439 270.17C502.439 270.97 500.359 271.45 498.219 271.62L500.729 274.61C501.279 275.26 501.509 275.99 501.439 276.8C501.369 277.61 501.009 278.29 500.359 278.83L488.869 288.47C488.219 289.02 487.489 289.25 486.679 289.18C485.869 289.11 485.189 288.75 484.649 288.1L484.629 288.14ZM504.119 260.03C502.659 261.25 500.999 262.07 499.139 262.5C497.279 262.92 495.399 262.91 493.529 262.46C492.079 262.05 490.629 261.98 489.179 262.24C487.739 262.5 486.439 263.12 485.289 264.08C484.939 261.96 485.779 259.34 487.809 256.24C489.839 253.13 492.059 250.57 494.469 248.54C496.879 246.52 499.789 244.77 503.209 243.32C506.619 241.86 509.339 241.49 511.369 242.2C510.259 243.13 509.439 244.29 508.909 245.68C508.379 247.07 508.189 248.52 508.339 250.02C508.529 251.95 508.239 253.79 507.479 255.53C506.719 257.27 505.599 258.77 504.109 260.03H504.119ZM479.949 268.56C478.029 270.17 475.839 270.86 473.379 270.65C470.919 270.44 468.879 269.37 467.269 267.45C465.659 265.53 464.929 263.3 465.159 260.85C465.389 258.4 466.469 256.38 468.379 254.77C470.289 253.16 472.529 252.42 474.959 252.63C477.389 252.84 479.419 253.93 481.059 255.88C482.669 257.8 483.369 259.98 483.179 262.43C482.989 264.88 481.909 266.92 479.959 268.56H479.949ZM516.719 237.71C514.799 239.32 512.609 240.01 510.149 239.8C507.689 239.59 505.649 238.52 504.039 236.6C502.429 234.68 501.699 232.45 501.929 230C502.159 227.55 503.239 225.53 505.149 223.92C507.059 222.31 509.299 221.57 511.729 221.78C514.159 221.99 516.189 223.08 517.829 225.03C519.469 226.98 520.139 229.13 519.949 231.58C519.749 234.03 518.679 236.07 516.729 237.71H516.719ZM492.549 246.24C490.629 247.85 488.439 248.54 485.979 248.33C483.519 248.12 481.479 247.05 479.869 245.13C478.229 243.18 477.529 240.98 477.759 238.53C477.989 236.08 479.069 234.06 480.979 232.45C482.889 230.84 485.129 230.1 487.559 230.31C489.989 230.52 492.019 231.61 493.659 233.56C495.269 235.48 495.969 237.66 495.779 240.11C495.579 242.56 494.509 244.6 492.559 246.24H492.549Z"
        fill="#777777" />
    <path opacity="0.6"
        d="M573.359 512C573.359 513.29 573.379 514.58 573.409 515.87C573.609 523.81 568.029 530.72 560.199 532.1L341.179 570.73C332.049 572.34 323.519 565.87 322.489 556.66C313.979 480.46 327.659 403.04 361.789 334.15C365.909 325.84 376.139 322.68 384.169 327.32L576.679 438.45C583.589 442.44 586.439 450.87 583.519 458.29C576.969 474.92 573.379 493.04 573.379 512H573.359Z"
        fill="#191919" />
    <path opacity="0.6"
        d="M378.929 414.83C382.329 415.43 385.459 416.6 388.319 418.35C391.179 420.1 393.689 422.23 395.839 424.74C396.429 425.45 396.659 426.26 396.559 427.15C396.449 428.05 395.989 428.78 395.179 429.34C394.429 429.87 393.609 430.03 392.729 429.82C391.849 429.61 391.089 429.18 390.449 428.5C388.839 426.69 386.949 425.18 384.779 423.96C382.609 422.74 380.269 421.91 377.759 421.46C375.249 421.02 372.789 421 370.379 421.42C367.969 421.83 365.699 422.61 363.569 423.76C362.729 424.22 361.859 424.39 360.969 424.25C360.079 424.12 359.349 423.67 358.769 422.91C358.189 422.15 357.999 421.31 358.179 420.41C358.359 419.51 358.849 418.82 359.649 418.35C362.529 416.72 365.609 415.58 368.899 414.92C372.189 414.26 375.529 414.22 378.929 414.82V414.83ZM376.559 428.28C378.139 428.56 379.609 429.07 380.969 429.82C382.339 430.57 383.559 431.49 384.629 432.6C385.269 433.27 385.529 434.07 385.389 434.98C385.249 435.9 384.779 436.64 383.969 437.2C383.219 437.73 382.379 437.92 381.469 437.79C380.549 437.65 379.719 437.29 378.959 436.7C378.469 436.31 377.919 435.97 377.309 435.69C376.699 435.41 376.049 435.2 375.359 435.08C374.669 434.96 373.989 434.93 373.319 434.99C372.649 435.05 371.989 435.17 371.349 435.37C370.429 435.67 369.539 435.72 368.649 435.54C367.769 435.36 367.059 434.89 366.539 434.14C365.969 433.33 365.779 432.47 365.969 431.56C366.159 430.65 366.659 429.99 367.499 429.58C368.889 428.91 370.349 428.46 371.889 428.22C373.429 427.98 374.989 428 376.559 428.28ZM383.459 458.28C382.889 461.53 381.239 464.11 378.519 466.01C375.799 467.92 372.809 468.58 369.559 468.01C366.309 467.44 363.729 465.79 361.829 463.07C359.919 460.35 359.259 457.36 359.829 454.11C360.399 450.86 362.049 448.28 364.769 446.38C367.489 444.47 370.479 443.81 373.729 444.38C376.979 444.95 379.559 446.6 381.459 449.32C383.369 452.04 384.029 455.03 383.459 458.28ZM397.019 485.04L394.659 484.62C393.039 484.33 391.579 483.65 390.299 482.56C389.019 481.47 388.139 480.12 387.659 478.52C386.819 475.78 386.239 472.76 385.909 469.45C385.579 466.14 385.749 462.59 386.419 458.8C387.089 455.01 388.139 451.62 389.589 448.62C391.029 445.62 392.609 442.98 394.339 440.7C395.339 439.35 396.629 438.39 398.199 437.8C399.779 437.21 401.379 437.07 402.999 437.35L405.359 437.77C406.979 438.06 408.269 438.88 409.229 440.24C410.189 441.6 410.519 443.09 410.229 444.72L403.979 480.17C403.689 481.79 402.869 483.08 401.509 484.04C400.149 484.99 398.659 485.33 397.029 485.04H397.019Z"
        fill="#777777" />
    <path opacity="0.6"
        d="M610.519 630.17L467.539 800.56C461.579 807.66 450.889 808.2 444.189 801.81C416.609 775.54 392.949 745.44 373.669 712.05C354.389 678.65 340.149 643.11 331.189 606.1C329.009 597.1 334.819 588.11 343.949 586.5L562.949 547.87C570.739 546.5 578.379 551.01 580.879 558.51C587.199 577.45 597.279 594.67 610.229 609.29C615.489 615.22 615.609 624.11 610.509 630.18L610.519 630.17Z"
        fill="#191919" />
    <path opacity="0.6"
        d="M414.859 686.53C415.129 687.01 415.129 687.5 414.849 688.01C414.569 688.52 414.129 688.77 413.549 688.76H395.979C395.219 688.76 394.629 688.51 394.219 688.06C393.809 687.61 393.579 686.98 393.539 686.2C393.159 682.44 393.509 678.71 394.579 675.03C395.659 671.35 397.349 668 399.659 665C400.099 664.46 400.599 664.21 401.179 664.25C401.759 664.29 402.219 664.62 402.569 665.23L414.869 686.53H414.859ZM423.399 693.98L414.389 709.57C414.029 710.24 413.509 710.65 412.849 710.8C412.189 710.95 411.529 710.87 410.889 710.55C408.219 709.32 405.719 707.69 403.389 705.66C401.059 703.63 399.069 701.18 397.419 698.32C397.049 697.67 396.659 696.94 396.279 696.12C395.889 695.3 395.599 694.61 395.379 694.04C395.119 693.38 395.149 692.83 395.469 692.39C395.789 691.95 396.299 691.72 396.989 691.73L422.089 691.7C422.669 691.7 423.109 691.96 423.399 692.46C423.689 692.96 423.689 693.46 423.399 693.97V693.98ZM442.319 704.1C442.599 704.58 442.679 705.1 442.579 705.68C442.479 706.26 442.219 706.73 441.789 707.09C441.359 707.45 440.879 707.81 440.319 708.15C439.759 708.49 439.129 708.88 438.389 709.31C435.659 710.89 432.689 712.01 429.469 712.68C426.249 713.35 422.889 713.46 419.389 713C418.509 712.87 417.889 712.5 417.519 711.87C417.149 711.24 417.199 710.57 417.649 709.85L430.379 687.95C430.659 687.44 431.099 687.2 431.699 687.23C432.299 687.26 432.729 687.52 433.009 687.99L442.309 704.1H442.319ZM453.269 680.46C453.529 684.12 453.159 687.83 452.159 691.58C451.149 695.34 449.479 698.7 447.149 701.66C446.709 702.2 446.199 702.44 445.609 702.37C445.019 702.3 444.559 701.97 444.209 701.36L431.989 680.19C431.719 679.71 431.719 679.22 431.999 678.71C432.279 678.2 432.719 677.95 433.299 677.96L450.669 677.89C451.429 677.91 452.049 678.13 452.519 678.55C452.989 678.97 453.239 679.6 453.269 680.45V680.46ZM449.379 668.32C449.729 668.93 450.089 669.63 450.459 670.42C450.829 671.22 451.139 671.92 451.379 672.53C451.639 673.19 451.619 673.75 451.309 674.21C450.999 674.67 450.499 674.91 449.809 674.91L424.919 674.99C424.339 674.99 423.869 674.67 423.519 674.07C423.169 673.47 423.139 672.91 423.419 672.4L432.309 657.05C432.609 656.47 433.069 656.07 433.699 655.86C434.329 655.64 435.049 655.7 435.879 656.03C438.499 657.17 441.019 658.82 443.419 660.99C445.819 663.15 447.809 665.6 449.389 668.33L449.379 668.32ZM429.149 656.54L416.359 678.64C416.079 679.15 415.639 679.39 415.039 679.36C414.439 679.33 414.009 679.07 413.729 678.6L404.469 662.56C404.199 662.08 404.109 661.56 404.209 660.98C404.309 660.4 404.569 659.93 404.999 659.57C405.429 659.21 405.909 658.85 406.469 658.51C407.029 658.17 407.659 657.78 408.399 657.35C411.129 655.77 414.119 654.64 417.389 653.94C420.649 653.24 424.009 653.13 427.469 653.62C428.149 653.69 428.679 654.05 429.079 654.68C429.479 655.32 429.499 655.94 429.159 656.54H429.149Z"
        fill="#777777" />
    <path opacity="0.6"
        d="M712.108 672.97V895.31C712.108 904.58 704.248 911.86 694.998 911.27C618.268 906.39 544.378 879.52 482.648 834.05C475.188 828.55 473.858 817.93 479.808 810.83L622.768 640.46C627.868 634.38 636.648 632.97 643.408 637.13C659.898 647.26 678.548 654.22 698.498 657.16C706.318 658.31 712.098 665.06 712.098 672.97H712.108Z"
        fill="#191919" />
    <path opacity="0.6"
        d="M643.947 827.89L640.867 836.35C640.287 837.95 639.247 839.09 637.747 839.76C636.247 840.44 634.727 840.5 633.177 839.93L623.947 836.57C623.007 836.23 622.197 835.67 621.527 834.89C620.857 834.11 620.397 833.23 620.177 832.24C619.477 829.91 618.327 827.87 616.707 826.11C615.087 824.35 613.147 823.06 610.897 822.24C608.647 821.42 606.257 821.14 603.887 821.44C601.517 821.75 599.337 822.58 597.357 823.93C596.457 824.51 595.507 824.88 594.517 825.05C593.527 825.22 592.577 825.14 591.687 824.82L582.457 821.46C580.857 820.88 579.717 819.85 579.027 818.38C578.337 816.91 578.287 815.37 578.867 813.77L581.947 805.31C582.237 804.51 582.747 803.94 583.487 803.6C584.227 803.26 584.987 803.23 585.787 803.52L599.887 808.65C600.687 808.94 601.257 809.45 601.597 810.19C601.937 810.93 601.967 811.69 601.677 812.49L600.367 816.08C602.437 815.5 604.537 815.26 606.667 815.34C608.797 815.42 610.887 815.84 612.957 816.59C614.977 817.33 616.837 818.36 618.527 819.7C620.227 821.04 621.677 822.59 622.897 824.36L624.227 820.7C624.517 819.9 625.027 819.33 625.767 818.99C626.507 818.65 627.267 818.62 628.067 818.91L642.167 824.04C642.967 824.33 643.537 824.84 643.877 825.58C644.217 826.32 644.247 827.08 643.957 827.88L643.947 827.89ZM609.857 825.06C611.647 825.71 613.187 826.74 614.487 828.14C615.787 829.54 616.707 831.17 617.257 833.02C617.627 834.49 618.287 835.78 619.237 836.89C620.187 838.01 621.367 838.82 622.777 839.34C621.107 840.7 618.427 841.28 614.727 841.08C611.027 840.88 607.687 840.24 604.727 839.16C601.767 838.08 598.807 836.43 595.837 834.21C592.867 831.99 591.187 829.82 590.787 827.7C592.147 828.2 593.567 828.33 595.037 828.09C596.507 827.85 597.857 827.29 599.077 826.41C600.657 825.28 602.397 824.61 604.277 824.39C606.167 824.17 608.027 824.39 609.857 825.06ZM629.327 841.73C631.677 842.59 633.377 844.13 634.417 846.38C635.467 848.62 635.557 850.92 634.707 853.27C633.837 855.67 632.277 857.38 630.047 858.4C627.817 859.42 625.517 859.51 623.167 858.65C620.817 857.79 619.057 856.24 618.027 854.03C616.997 851.82 616.917 849.52 617.787 847.12C618.647 844.77 620.177 843.07 622.397 842.01C624.617 840.96 626.927 840.86 629.317 841.74L629.327 841.73ZM584.227 825.31C586.577 826.17 588.277 827.71 589.317 829.96C590.367 832.2 590.457 834.5 589.607 836.85C588.737 839.25 587.177 840.96 584.947 841.98C582.717 843 580.417 843.09 578.067 842.23C575.717 841.37 573.957 839.82 572.927 837.61C571.897 835.4 571.817 833.1 572.687 830.7C573.557 828.3 575.077 826.65 577.297 825.59C579.517 824.54 581.827 824.44 584.217 825.32L584.227 825.31ZM603.697 841.98C606.047 842.84 607.747 844.38 608.787 846.63C609.837 848.87 609.927 851.17 609.077 853.52C608.207 855.92 606.647 857.63 604.417 858.65C602.187 859.67 599.887 859.76 597.537 858.9C595.187 858.04 593.427 856.49 592.397 854.28C591.367 852.07 591.287 849.77 592.157 847.37C593.027 844.97 594.547 843.32 596.767 842.26C598.987 841.21 601.297 841.11 603.687 841.99L603.697 841.98Z"
        fill="#777777" />
    <path opacity="0.6"
        d="M957.569 834.04C895.829 879.51 821.949 906.38 745.219 911.26C735.969 911.85 728.109 904.57 728.109 895.3V672.97C728.109 665.06 733.879 658.31 741.699 657.16C761.659 654.22 780.309 647.25 796.799 637.12C803.559 632.97 812.339 634.37 817.439 640.45L960.399 810.82C966.359 817.92 965.029 828.55 957.559 834.04H957.569Z"
        fill="#191919" />
    <path opacity="0.6"
        d="M806.521 856.07C805.341 852.83 804.791 849.53 804.871 846.17C804.951 842.81 805.541 839.58 806.651 836.47C806.971 835.61 807.551 835 808.381 834.64C809.211 834.29 810.071 834.32 810.971 834.74C811.801 835.13 812.351 835.75 812.611 836.62C812.871 837.48 812.871 838.36 812.611 839.25C811.851 841.55 811.481 843.94 811.511 846.43C811.541 848.92 811.991 851.36 812.861 853.76C813.731 856.16 814.951 858.29 816.511 860.17C818.071 862.05 819.881 863.62 821.941 864.9C822.761 865.4 823.341 866.07 823.671 866.91C824.001 867.75 823.981 868.61 823.611 869.49C823.241 870.37 822.611 870.96 821.741 871.25C820.871 871.54 820.021 871.46 819.221 871.01C816.371 869.33 813.841 867.23 811.621 864.72C809.401 862.2 807.701 859.32 806.521 856.08V856.07ZM819.351 851.4C818.801 849.9 818.511 848.37 818.481 846.81C818.451 845.25 818.641 843.73 819.061 842.25C819.321 841.36 819.881 840.74 820.741 840.4C821.601 840.06 822.481 840.1 823.381 840.52C824.211 840.91 824.801 841.53 825.141 842.39C825.481 843.25 825.581 844.16 825.451 845.11C825.361 845.73 825.341 846.37 825.401 847.05C825.461 847.73 825.611 848.38 825.851 849.04C826.091 849.7 826.401 850.3 826.791 850.85C827.181 851.4 827.611 851.91 828.101 852.37C828.811 853.01 829.311 853.76 829.601 854.62C829.881 855.47 829.831 856.32 829.441 857.15C829.021 858.05 828.371 858.64 827.501 858.94C826.621 859.23 825.801 859.12 825.021 858.6C823.751 857.73 822.621 856.69 821.651 855.48C820.681 854.26 819.911 852.91 819.371 851.4H819.351ZM841.881 830.43C844.981 829.3 848.041 829.44 851.051 830.84C854.061 832.24 856.131 834.5 857.261 837.6C858.391 840.7 858.251 843.76 856.851 846.77C855.451 849.78 853.191 851.85 850.091 852.98C846.991 854.11 843.931 853.97 840.921 852.57C837.911 851.17 835.841 848.91 834.711 845.81C833.581 842.71 833.721 839.65 835.121 836.64C836.521 833.63 838.781 831.56 841.881 830.43ZM858.281 805.3L859.101 807.56C859.661 809.11 859.801 810.71 859.491 812.37C859.191 814.02 858.461 815.46 857.311 816.68C855.361 818.77 853.031 820.79 850.331 822.73C847.631 824.67 844.471 826.3 840.851 827.62C837.231 828.94 833.771 829.72 830.451 829.97C827.141 830.22 824.061 830.17 821.221 829.82C819.551 829.63 818.071 829 816.781 827.92C815.491 826.85 814.561 825.54 813.991 823.99L813.171 821.73C812.611 820.18 812.671 818.65 813.381 817.15C814.091 815.65 815.211 814.61 816.761 814.04L850.591 801.73C852.141 801.17 853.671 801.23 855.171 801.94C856.681 802.64 857.711 803.77 858.281 805.32V805.3Z"
        fill="#777777" />
    <path opacity="0.6"
        d="M1096.26 586.46C1105.38 588.07 1111.2 597.06 1109.02 606.06C1100.06 643.07 1085.82 678.62 1066.54 712.01C1047.25 745.41 1023.6 775.52 996.018 801.78C989.308 808.17 978.618 807.63 972.668 800.53L829.688 630.14C824.598 624.07 824.718 615.19 829.968 609.25C842.918 594.63 852.998 577.42 859.318 558.48C861.818 550.98 869.458 546.46 877.248 547.83L1096.26 586.45V586.46Z"
        fill="#191919" />
    <path opacity="0.6"
        d="M1023.85 689.109C1024.12 688.629 1024.55 688.389 1025.14 688.379C1025.72 688.379 1026.16 688.619 1026.44 689.129L1035.24 704.34C1035.6 705.01 1035.69 705.639 1035.5 706.219C1035.31 706.799 1034.89 707.309 1034.23 707.739C1031.16 709.949 1027.76 711.509 1024.04 712.419C1020.31 713.329 1016.57 713.529 1012.81 713.039C1012.12 712.929 1011.65 712.619 1011.4 712.099C1011.15 711.579 1011.2 711.019 1011.55 710.409L1023.85 689.109ZM1026.03 677.979H1044.04C1044.8 677.959 1045.42 678.199 1045.88 678.699C1046.34 679.199 1046.6 679.81 1046.64 680.53C1046.91 683.46 1046.75 686.439 1046.15 689.469C1045.55 692.499 1044.43 695.449 1042.78 698.309C1042.4 698.959 1041.96 699.659 1041.45 700.399C1040.94 701.139 1040.48 701.749 1040.1 702.219C1039.66 702.779 1039.17 703.029 1038.63 702.969C1038.08 702.909 1037.64 702.589 1037.29 701.979L1024.72 680.259C1024.44 679.749 1024.44 679.249 1024.72 678.749C1025 678.249 1025.44 677.999 1026.03 677.989V677.979ZM1025.34 656.539C1025.62 656.059 1026.03 655.719 1026.58 655.519C1027.13 655.319 1027.67 655.309 1028.19 655.499C1028.71 655.689 1029.27 655.929 1029.84 656.239C1030.41 656.549 1031.07 656.909 1031.81 657.329C1034.54 658.909 1037 660.919 1039.19 663.369C1041.38 665.819 1043.16 668.679 1044.51 671.939C1044.84 672.769 1044.83 673.489 1044.46 674.119C1044.09 674.749 1043.49 675.049 1042.64 675.019L1017.31 674.939C1016.73 674.939 1016.3 674.689 1016.03 674.159C1015.76 673.629 1015.76 673.119 1016.03 672.649L1025.33 656.539H1025.34ZM999.39 658.879C1002.43 656.819 1005.82 655.29 1009.58 654.28C1013.34 653.27 1017.08 653.039 1020.81 653.579C1021.5 653.689 1021.96 654.009 1022.2 654.549C1022.44 655.089 1022.38 655.659 1022.03 656.269L1009.81 677.439C1009.54 677.919 1009.11 678.159 1008.52 678.169C1007.94 678.169 1007.5 677.929 1007.22 677.419L998.48 662.409C998.12 661.739 998 661.089 998.13 660.469C998.26 659.849 998.68 659.319 999.4 658.869L999.39 658.879ZM990.83 668.309C991.18 667.699 991.61 667.039 992.11 666.319C992.61 665.599 993.07 664.979 993.48 664.469C993.92 663.909 994.41 663.649 994.97 663.689C995.53 663.729 995.98 664.039 996.32 664.639L1008.84 686.159C1009.12 686.669 1009.09 687.229 1008.74 687.829C1008.39 688.429 1007.92 688.739 1007.34 688.749L989.6 688.729C988.95 688.759 988.37 688.559 987.87 688.119C987.37 687.689 987.06 687.029 986.93 686.149C986.61 683.309 986.78 680.309 987.45 677.139C988.12 673.979 989.24 671.029 990.82 668.299L990.83 668.309ZM990.73 691.729L1016.27 691.749C1016.85 691.749 1017.28 692 1017.55 692.53C1017.82 693.06 1017.82 693.569 1017.55 694.039L1008.29 710.079C1008.02 710.559 1007.6 710.899 1007.05 711.099C1006.5 711.299 1005.96 711.309 1005.44 711.119C1004.91 710.929 1004.36 710.689 1003.79 710.379C1003.22 710.069 1002.56 709.709 1001.82 709.289C999.09 707.709 996.61 705.689 994.37 703.209C992.13 700.729 990.36 697.879 989.05 694.639C988.77 694.019 988.81 693.379 989.17 692.709C989.52 692.049 990.05 691.719 990.74 691.709L990.73 691.729Z"
        fill="#777777" />
    <path opacity="0.6"
        d="M1099.03 570.7L880 532.07C872.18 530.69 866.59 523.78 866.79 515.84C866.82 514.56 866.84 513.28 866.84 511.99C866.84 493.02 863.24 474.9 856.7 458.27C853.78 450.85 856.63 442.41 863.54 438.43L1056.06 327.29C1064.09 322.65 1074.32 325.81 1078.44 334.12C1112.57 403.02 1126.25 480.43 1117.74 556.63C1116.71 565.84 1108.18 572.31 1099.05 570.7H1099.03Z"
        fill="#191919" />
    <path opacity="0.6"
        d="M1031.73 420.03L1040.59 418.47C1042.26 418.17 1043.77 418.51 1045.11 419.46C1046.45 420.42 1047.26 421.71 1047.54 423.33L1049.25 433.01C1049.42 433.99 1049.34 434.97 1049.01 435.95C1048.67 436.92 1048.14 437.75 1047.39 438.44C1045.72 440.21 1044.53 442.23 1043.82 444.52C1043.11 446.8 1042.96 449.13 1043.37 451.49C1043.8 453.9 1044.73 456.06 1046.19 457.96C1047.64 459.86 1049.45 461.33 1051.61 462.37C1052.56 462.86 1053.36 463.5 1054 464.27C1054.64 465.04 1055.05 465.9 1055.21 466.84L1056.92 476.52C1057.22 478.19 1056.9 479.7 1055.96 481.03C1055.03 482.36 1053.72 483.18 1052.05 483.47L1043.19 485.03C1042.35 485.18 1041.6 485.02 1040.94 484.55C1040.27 484.08 1039.87 483.43 1039.72 482.59L1037.12 467.82C1036.97 466.98 1037.13 466.23 1037.6 465.57C1038.07 464.91 1038.72 464.5 1039.56 464.35L1043.33 463.69C1041.8 462.18 1040.53 460.49 1039.54 458.61C1038.55 456.73 1037.86 454.7 1037.48 452.54C1037.11 450.42 1037.07 448.3 1037.38 446.16C1037.69 444.02 1038.31 441.99 1039.23 440.05L1035.39 440.73C1034.55 440.88 1033.8 440.72 1033.14 440.25C1032.47 439.78 1032.07 439.13 1031.92 438.29L1029.32 423.52C1029.17 422.68 1029.33 421.93 1029.8 421.27C1030.27 420.61 1030.92 420.2 1031.76 420.05L1031.73 420.03ZM1046.32 450.97C1045.99 449.1 1046.11 447.25 1046.67 445.42C1047.24 443.59 1048.18 441.98 1049.51 440.58C1050.59 439.53 1051.38 438.31 1051.87 436.93C1052.36 435.55 1052.48 434.12 1052.22 432.64C1054.23 433.4 1056.08 435.44 1057.75 438.75C1059.43 442.06 1060.54 445.27 1061.08 448.37C1061.63 451.47 1061.68 454.86 1061.24 458.55C1060.8 462.23 1059.76 464.78 1058.13 466.18C1057.88 464.75 1057.28 463.46 1056.34 462.31C1055.4 461.16 1054.24 460.27 1052.86 459.65C1051.09 458.84 1049.64 457.68 1048.51 456.15C1047.38 454.62 1046.64 452.9 1046.3 450.98L1046.32 450.97ZM1051.02 425.77C1050.59 423.31 1051.08 421.06 1052.5 419.04C1053.92 417.01 1055.86 415.78 1058.32 415.35C1060.78 414.92 1063.09 415.4 1065.09 416.82C1067.09 418.24 1068.31 420.19 1068.75 422.65C1069.19 425.16 1068.71 427.42 1067.32 429.41C1065.92 431.41 1063.97 432.63 1061.45 433.07C1058.99 433.5 1056.75 433.02 1054.72 431.63C1052.69 430.24 1051.46 428.28 1051.02 425.77ZM1059.36 473.04C1058.93 470.58 1059.42 468.33 1060.84 466.31C1062.26 464.28 1064.2 463.05 1066.66 462.62C1069.12 462.19 1071.43 462.67 1073.43 464.09C1075.43 465.51 1076.65 467.46 1077.09 469.92C1077.53 472.43 1077.05 474.69 1075.66 476.68C1074.26 478.68 1072.31 479.9 1069.79 480.34C1067.27 480.78 1065.09 480.29 1063.06 478.9C1061.04 477.51 1059.8 475.55 1059.36 473.04ZM1064.05 447.84C1063.62 445.38 1064.11 443.13 1065.53 441.11C1066.95 439.09 1068.89 437.85 1071.35 437.42C1073.86 436.98 1076.12 437.47 1078.12 438.89C1080.12 440.31 1081.34 442.26 1081.78 444.72C1082.22 447.18 1081.74 449.49 1080.35 451.48C1078.95 453.48 1077 454.7 1074.48 455.14C1071.96 455.58 1069.78 455.09 1067.75 453.7C1065.73 452.31 1064.49 450.35 1064.05 447.84Z"
        fill="#777777" />
    <path opacity="0.6"
        d="M1048.04 313.44L855.509 424.61C848.649 428.57 839.929 426.92 835.009 420.72C822.759 405.31 807.469 392.43 790.059 382.96C783.109 379.18 779.989 370.88 782.689 363.45L858.729 154.5C861.899 145.79 871.769 141.63 880.259 145.35C950.509 176.08 1010.72 226.63 1053.32 290.64C1058.46 298.36 1056.08 308.8 1048.05 313.44H1048.04Z"
        fill="#191919" />
    <path opacity="0.6"
        d="M974.848 265.16C972.628 267.8 970.048 269.93 967.098 271.53C964.148 273.13 961.058 274.24 957.808 274.85C956.898 275 956.078 274.81 955.358 274.27C954.638 273.73 954.228 272.97 954.148 271.98C954.068 271.06 954.338 270.28 954.958 269.62C955.578 268.96 956.338 268.52 957.238 268.3C959.608 267.81 961.868 266.93 964.008 265.66C966.148 264.39 968.038 262.78 969.678 260.83C971.318 258.88 972.558 256.75 973.408 254.46C974.258 252.17 974.718 249.81 974.788 247.39C974.808 246.43 975.098 245.6 975.658 244.89C976.218 244.18 976.968 243.77 977.918 243.65C978.868 243.53 979.688 243.78 980.378 244.39C981.068 245 981.418 245.77 981.428 246.69C981.398 249.99 980.848 253.24 979.778 256.42C978.708 259.6 977.068 262.51 974.848 265.16ZM964.398 256.38C963.368 257.61 962.188 258.62 960.858 259.43C959.528 260.24 958.118 260.83 956.618 261.21C955.718 261.43 954.898 261.25 954.178 260.68C953.458 260.1 953.048 259.32 952.958 258.34C952.878 257.42 953.128 256.6 953.698 255.88C954.278 255.16 955.008 254.61 955.898 254.25C956.478 254.02 957.048 253.71 957.598 253.33C958.148 252.95 958.648 252.48 959.098 251.95C959.548 251.42 959.918 250.84 960.198 250.23C960.478 249.62 960.698 248.99 960.858 248.34C961.058 247.4 961.458 246.59 962.058 245.92C962.658 245.25 963.408 244.87 964.328 244.79C965.318 244.7 966.158 244.97 966.848 245.58C967.538 246.19 967.858 246.96 967.798 247.89C967.688 249.43 967.348 250.92 966.778 252.37C966.208 253.82 965.418 255.16 964.388 256.39L964.398 256.38ZM934.968 247.35C932.438 245.23 931.028 242.51 930.738 239.2C930.448 235.89 931.368 232.97 933.488 230.44C935.608 227.91 938.328 226.5 941.638 226.21C944.948 225.92 947.868 226.84 950.398 228.96C952.928 231.08 954.338 233.8 954.628 237.11C954.918 240.42 953.998 243.34 951.878 245.87C949.758 248.4 947.038 249.81 943.728 250.1C940.418 250.39 937.498 249.47 934.968 247.35ZM905.008 245.71L906.548 243.87C907.608 242.61 908.928 241.69 910.518 241.13C912.098 240.57 913.708 240.48 915.338 240.87C918.128 241.51 921.038 242.52 924.068 243.89C927.098 245.26 930.088 247.18 933.038 249.65C935.988 252.12 938.398 254.74 940.268 257.48C942.138 260.23 943.638 262.92 944.758 265.55C945.428 267.09 945.618 268.69 945.338 270.34C945.058 272 944.388 273.46 943.328 274.72L941.788 276.56C940.728 277.82 939.368 278.53 937.718 278.67C936.068 278.81 934.598 278.36 933.338 277.3L905.758 254.16C904.498 253.1 903.788 251.74 903.648 250.09C903.508 248.43 903.958 246.97 905.018 245.71H905.008Z"
        fill="#777777" />
    <g filter="url(#filter0_d_580_1557)">
        <path
            d="M859.907 105.018L773.825 342.062C770.757 350.502 761.985 355.426 753.201 353.633C742.471 351.455 731.367 350.298 720.002 350.298C708.638 350.298 697.534 351.444 686.803 353.633C678.019 355.426 669.247 350.502 666.18 342.062L580.098 105.018C576.509 95.1375 582.033 84.3381 592.096 81.3659C633.456 69.1711 676.356 63 720.002 63C763.649 63 806.56 69.1598 847.909 81.3659C857.971 84.3381 863.484 95.1375 859.907 105.018Z"
            fill="#614589" />
    </g>
    <path
        d="M722.167 126.298C721.372 126.298 720.766 125.937 720.318 125.215C719.885 124.493 719.885 123.771 720.318 123.048L733 101.064C733.578 100.125 734.3 99.5617 735.167 99.3884C736.033 99.215 736.972 99.3739 737.983 99.8795C742.967 102.118 747.372 105.238 751.2 109.254C755.028 113.255 757.989 117.791 760.083 122.846C760.445 123.785 760.387 124.594 759.925 125.287C759.462 125.981 758.711 126.313 757.7 126.313H722.167V126.298ZM706.668 131.614L693.668 109.081C693.09 108.142 692.946 107.203 693.235 106.264C693.523 105.325 694.101 104.559 694.968 103.996C698.435 101.541 702.277 99.5906 706.509 98.1462C710.727 96.7017 715.233 95.9795 720 95.9795C721.083 95.9795 722.282 96.0373 723.568 96.1384C724.868 96.2395 725.951 96.3695 726.818 96.5139C727.829 96.6584 728.493 97.0917 728.826 97.8139C729.158 98.5362 729.057 99.3306 728.551 100.197L710.467 131.614C710.033 132.336 709.398 132.697 708.575 132.697C707.751 132.697 707.116 132.336 706.682 131.614H706.668ZM680.35 147.965C679.556 147.965 678.833 147.691 678.183 147.156C677.533 146.622 677.129 145.943 676.985 145.148C676.84 144.354 676.753 143.487 676.71 142.548C676.667 141.609 676.652 140.526 676.652 139.298C676.652 134.748 677.389 130.213 678.877 125.706C680.365 121.185 682.647 116.909 685.752 112.865C686.547 111.854 687.471 111.348 688.511 111.348C689.551 111.348 690.375 111.897 690.952 112.966L709.152 144.715C709.586 145.437 709.571 146.159 709.095 146.882C708.632 147.604 707.997 147.965 707.202 147.965H680.336H680.35ZM702.017 178.732C697.25 176.421 692.888 173.286 688.916 169.314C684.943 165.342 681.953 160.835 679.931 155.779C679.57 154.841 679.642 154.032 680.148 153.338C680.653 152.645 681.419 152.313 682.43 152.313H717.747C718.541 152.313 719.162 152.674 719.596 153.396C720.029 154.118 720.029 154.841 719.596 155.563L707.13 177.345C706.552 178.284 705.83 178.905 704.963 179.179C704.097 179.468 703.115 179.324 702.031 178.746L702.017 178.732ZM720 182.632C718.989 182.632 717.848 182.574 716.591 182.473C715.32 182.372 714.222 182.242 713.283 182.097C712.272 181.953 711.579 181.519 711.218 180.797C710.857 180.075 710.929 179.281 711.435 178.414L729.302 147.214C729.736 146.492 730.458 146.131 731.469 146.131C732.48 146.131 733.202 146.492 733.636 147.214L746.419 169.415C746.925 170.209 747.083 171.076 746.91 172.015C746.737 172.954 746.13 173.821 745.119 174.615C741.797 177.071 737.911 179.021 733.477 180.465C729.028 181.909 724.536 182.632 719.986 182.632H720ZM749.351 165.847L730.935 133.882C730.501 133.159 730.516 132.437 730.992 131.715C731.469 130.993 732.09 130.632 732.885 130.632H759.65C760.445 130.632 761.167 130.906 761.817 131.441C762.467 131.975 762.871 132.654 763.016 133.448C763.16 134.243 763.247 135.109 763.29 136.048C763.333 136.987 763.348 138.071 763.348 139.298C763.348 143.848 762.611 148.413 761.123 153.006C759.636 157.585 757.353 161.875 754.248 165.847C753.67 166.642 752.832 167.061 751.749 167.089C750.666 167.133 749.871 166.714 749.366 165.847H749.351Z"
        fill="#DDC4F7" />
    <defs>
        <filter id="filter0_d_580_1557" x="575" y="63" width="290" height="299" filterUnits="userSpaceOnUse"
            color-interpolation-filters="sRGB">
            <feFlood flood-opacity="0" result="BackgroundImageFix" />
            <feColorMatrix in="SourceAlpha" type="matrix" values="0 0 0 0 0 0 0 0 0 0 0 0 0 0 0 0 0 0 127 0"
                result="hardAlpha" />
            <feOffset dy="4" />
            <feGaussianBlur stdDeviation="2" />
            <feComposite in2="hardAlpha" operator="out" />
            <feColorMatrix type="matrix" values="0 0 0 0 0 0 0 0 0 0 0 0 0 0 0 0 0 0 0.1 0" />
            <feBlend mode="normal" in2="BackgroundImageFix" result="effect1_dropShadow_580_1557" />
            <feBlend mode="normal" in="SourceGraphic" in2="effect1_dropShadow_580_1557" result="shape" />
        </filter>
    </defs>
</svg>