<?xml version="1.0" encoding="UTF-8" standalone="no"?>
<svg
   width="1080"
   height="768"
   viewBox="0 1440 1024"
   fill="none"
   version="1.1"
   id="svg24"
   sodipodi:docname="Property 1=Dial 2.svg"
   inkscape:version="1.3.2 (091e20e, 2023-11-25, custom)"
   xmlns:inkscape="http://www.inkscape.org/namespaces/inkscape"
   xmlns:sodipodi="http://sodipodi.sourceforge.net/DTD/sodipodi-0.dtd"
   xmlns="http://www.w3.org/2000/svg"
   xmlns:svg="http://www.w3.org/2000/svg">
  <sodipodi:namedview
     id="namedview24"
     pagecolor="#ffffff"
     bordercolor="#000000"
     borderopacity="0.25"
     inkscape:showpageshadow="2"
     inkscape:pageopacity="0.0"
     inkscape:pagecheckerboard="0"
     inkscape:deskcolor="#d1d1d1"
     inkscape:zoom="1.0585938"
     inkscape:cx="539.86716"
     inkscape:cy="384"
     inkscape:window-width="1920"
     inkscape:window-height="1009"
     inkscape:window-x="-8"
     inkscape:window-y="579"
     inkscape:window-maximized="1"
     inkscape:current-layer="svg24" />
  <g
     clip-path="url(#clip0_580_1599)"
     id="g22">
    <path
       d="M1022.87 872.794C1017.86 876.998 1012.53 881.237 1006.56 885.776C1002.42 888.92 996.688 888.994 991.94 885.98C974.597 874.973 952.799 874.492 935.044 884.743C932.24 886.365 929.572 888.225 927.12 890.282C914.19 901.132 906.884 917.706 907.568 934.624C907.737 938.869 906.049 942.909 903.038 945.435C902.119 946.207 901.099 946.827 899.987 947.291C887.4 952.5 874.44 957.2 861.477 961.276C856.491 962.849 851.023 960.937 847.549 956.424C835.018 940.152 814.699 932.255 794.513 935.813C784.996 937.493 776.073 941.638 768.712 947.816C760.729 954.513 754.829 963.303 751.655 973.211C750.834 975.779 749.354 978.014 747.377 979.672C745.301 981.414 742.817 982.389 740.189 982.493C726.711 983.046 712.894 983.008 699.129 982.379C693.926 982.136 689.446 978.493 687.718 973.104C681.474 953.606 665.102 939.29 644.984 935.742C628.913 932.909 612.544 937.297 600.05 947.781C597.047 950.301 594.314 953.142 591.922 956.233C591.282 957.058 590.563 957.804 589.774 958.466C586.365 961.326 581.958 962.297 578.001 961.035C565.057 956.949 552.084 952.209 539.439 946.971C534.611 944.966 531.645 940.001 531.865 934.32C532.692 913.836 522.195 894.761 504.492 884.538C486.763 874.299 464.993 874.709 447.678 885.608C442.893 888.618 437.131 888.519 433.022 885.348C422.082 876.931 411.477 868.011 401.491 858.832C397.667 855.318 396.586 849.673 398.718 844.45C406.473 825.503 403.128 804.015 390.002 788.373C376.877 772.73 356.308 765.656 336.336 769.935C330.824 771.114 325.461 769.048 322.67 764.68C315.324 753.156 308.385 741.121 302.049 728.918C299.662 724.316 300.563 718.638 304.351 714.455C318.076 699.309 322.269 677.998 315.299 658.848C308.317 639.669 291.449 625.992 271.262 623.154C265.652 622.365 261.307 618.57 260.19 613.49C257.212 599.984 254.815 586.331 253.06 572.883C252.525 568.776 254.238 564.61 257.639 561.756C258.42 561.1 259.272 560.529 260.181 560.041C263.597 558.231 266.841 556.045 269.805 553.557C282.261 543.106 289.406 527.803 289.406 511.576C289.41 491.248 278.289 472.657 260.382 463.063C255.419 460.4 252.644 455.366 253.313 450.236C255.118 436.503 257.523 422.801 260.468 409.508C261.033 406.946 262.431 404.676 264.499 402.94C266.453 401.301 268.888 400.237 271.534 399.858C281.754 398.41 291.333 394.144 299.231 387.517C306.547 381.378 312.153 373.358 315.441 364.333C322.403 345.203 318.29 323.903 304.723 308.762C300.953 304.549 300.066 298.871 302.462 294.275C308.784 282.144 315.749 270.112 323.166 258.51C323.808 257.501 324.597 256.605 325.508 255.84C328.488 253.339 332.733 252.362 336.851 253.24C353.277 256.715 370.705 252.391 383.475 241.675C385.919 239.625 388.206 237.341 390.274 234.874C403.356 219.288 406.777 197.882 399.207 179.013C397.132 173.848 398.232 168.252 402.009 164.757C407.437 159.745 412.462 155.294 417.372 151.173C422.282 147.053 427.806 142.653 433.857 138.072C437.955 134.959 443.664 134.855 448.389 137.81C465.654 148.569 487.29 148.964 504.858 138.818C507.662 137.196 510.33 135.336 512.781 133.279C525.59 122.532 532.902 106.122 532.366 89.3802C532.23 85.1733 533.928 81.1766 536.908 78.6762C537.819 77.9113 538.847 77.2842 539.951 76.8272C552.657 71.5576 565.721 66.8092 578.786 62.6997C583.734 61.1452 589.178 63.0127 592.651 67.4617C605.195 83.5007 625.398 91.2731 645.389 87.7483C654.92 86.0694 663.836 81.9163 671.198 75.7391C679.08 69.1248 684.942 60.4598 688.138 50.7028C688.971 48.1635 690.441 45.964 692.394 44.3249C694.47 42.5829 696.955 41.6078 699.576 41.4965C713.169 40.9254 727.08 40.9499 740.923 41.5789C746.097 41.8187 750.573 45.4257 752.326 50.782C758.635 70.1083 774.954 84.2984 794.918 87.8196C810.995 90.6599 827.386 86.2664 839.88 75.7826C842.814 73.3207 845.498 70.546 847.848 67.5432C848.479 66.7395 849.182 66.0061 849.956 65.3568C853.364 62.4964 857.764 61.5328 861.722 62.7805C874.695 66.8683 887.731 71.6075 900.458 76.8804C905.274 78.8704 908.241 83.8218 908.044 89.483C907.296 109.874 917.786 128.864 935.408 139.037C953.111 149.259 974.864 148.877 992.168 138.026C996.951 135.03 1002.69 135.135 1006.8 138.291C1017.72 146.671 1028.35 155.601 1038.39 164.812C1042.21 168.327 1043.3 173.965 1041.18 179.195C1033.46 198.125 1036.81 219.584 1049.91 235.204C1063.02 250.824 1083.67 257.961 1103.66 253.663C1109.18 252.477 1114.55 254.53 1117.33 258.904C1124.65 270.362 1131.57 282.353 1137.93 294.543C1140.33 299.154 1139.42 304.845 1135.62 309.034C1121.85 324.19 1117.64 345.535 1124.62 364.736C1131.63 383.988 1148.59 397.666 1168.88 400.442C1174.51 401.212 1178.87 405.008 1180 410.104C1182.97 423.502 1185.36 437.105 1187.13 450.519C1187.67 454.633 1185.95 458.799 1182.55 461.66C1181.75 462.328 1180.88 462.912 1179.94 463.398C1176.46 465.229 1173.15 467.439 1170.13 469.978C1157.66 480.436 1150.51 495.76 1150.51 512C1150.51 532.471 1161.75 551.114 1179.84 560.661C1184.85 563.307 1187.65 568.35 1186.98 573.522C1185.19 587.172 1182.82 600.784 1179.91 613.967C1179.34 616.529 1177.95 618.807 1175.88 620.542C1173.82 622.278 1171.44 623.277 1168.76 623.638C1158.41 625.039 1148.71 629.315 1140.7 636.033C1133.38 642.178 1127.76 650.204 1124.47 659.243C1117.45 678.539 1121.67 699.947 1135.49 715.125C1139.32 719.336 1140.24 725.045 1137.82 729.681C1131.55 741.718 1124.65 753.642 1117.32 765.152C1116.67 766.161 1115.89 767.057 1114.97 767.822C1111.96 770.348 1107.68 771.315 1103.52 770.397C1086.97 766.756 1069.36 771.057 1056.45 781.895C1054 783.945 1051.71 786.236 1049.65 788.696C1036.45 804.428 1033.09 825.996 1040.89 844.984C1043.03 850.189 1041.87 855.895 1037.95 859.512C1032.65 864.407 1027.72 868.753 1022.89 872.803L1022.87 872.794Z"
       fill="#F2F2F2"
       fill-opacity="0.2"
       id="path1" />
    <mask
       id="path-2-inside-1_580_1599"
       fill="white">
      <path
         d="M418.007 151.946C423.04 147.723 428.418 143.445 434.448 138.869C438.211 136.011 443.471 135.932 447.846 138.657C465.427 149.621 487.453 150.015 505.342 139.691C508.191 138.045 510.905 136.146 513.41 134.044C526.448 123.104 533.901 106.394 533.349 89.3388C533.221 85.4379 534.787 81.7349 537.53 79.4337C538.365 78.7331 539.302 78.1691 540.318 77.7469C552.994 72.4889 566.036 67.7457 579.072 63.6478C583.619 62.2214 588.635 63.9521 591.851 68.0806C604.626 84.4094 625.192 92.3202 645.551 88.7352C655.248 87.0212 664.341 82.7984 671.833 76.5119C679.861 69.7755 685.821 60.963 689.083 51.02C689.857 48.6602 691.221 46.6147 693.029 45.0977C694.929 43.5036 697.207 42.6098 699.609 42.5005C713.174 41.927 727.048 41.9554 740.863 42.582C745.614 42.7989 749.737 46.1408 751.362 51.0955C757.796 70.7735 774.411 85.2238 794.739 88.8051C811.103 91.6919 827.792 87.218 840.516 76.5413C843.504 74.0344 846.235 71.2071 848.626 68.144C849.209 67.393 849.873 66.7057 850.585 66.1079C853.734 63.4661 857.779 62.5778 861.413 63.7191C874.351 67.7967 887.359 72.5335 900.073 77.7911C904.498 79.6263 907.229 84.1879 907.039 89.4381C906.28 110.205 916.954 129.537 934.9 139.894C952.927 150.301 975.073 149.903 992.69 138.867C997.114 136.095 1002.41 136.182 1006.19 139.082C1017.09 147.454 1027.69 156.36 1037.71 165.548C1041.23 168.773 1042.22 173.985 1040.25 178.81C1032.39 198.082 1035.8 219.93 1049.15 235.833C1062.49 251.736 1083.52 258.999 1103.87 254.625C1108.97 253.531 1113.93 255.413 1116.49 259.427C1123.79 270.862 1130.7 282.838 1137.04 294.998C1139.25 299.237 1138.4 304.48 1134.88 308.352C1120.86 323.784 1116.56 345.519 1123.68 365.072C1130.81 384.67 1148.08 398.602 1168.74 401.432C1173.95 402.143 1177.99 405.633 1179.02 410.31C1181.98 423.686 1184.38 437.254 1186.14 450.645C1186.63 454.422 1185.04 458.244 1181.9 460.88C1181.17 461.497 1180.35 462.042 1179.49 462.5C1175.93 464.361 1172.57 466.622 1169.49 469.206C1156.8 479.857 1149.52 495.454 1149.51 511.999C1149.52 532.832 1160.96 551.819 1179.38 561.544C1184.02 563.994 1186.61 568.636 1185.99 573.387C1184.21 586.994 1181.83 600.578 1178.93 613.746C1178.42 616.094 1177.14 618.175 1175.24 619.769C1173.34 621.363 1171.11 622.304 1168.62 622.632C1158.07 624.052 1148.2 628.42 1140.06 635.253C1132.6 641.514 1126.88 649.688 1123.54 658.892C1116.38 678.538 1120.69 700.344 1134.76 715.792C1138.3 719.687 1139.17 724.951 1136.95 729.215C1130.69 741.224 1123.8 753.128 1116.48 764.611C1115.9 765.532 1115.17 766.356 1114.34 767.05C1111.57 769.377 1107.6 770.265 1103.74 769.416C1086.88 765.705 1068.96 770.086 1055.81 781.123C1053.32 783.212 1051 785.542 1048.89 788.055C1035.45 804.071 1032.04 826.032 1039.97 845.365C1041.95 850.181 1040.89 855.44 1037.27 858.779C1031.98 863.661 1027.07 867.994 1022.25 872.037C1017.43 876.08 1011.94 880.454 1005.97 884.987C1002.18 887.87 996.88 887.932 992.489 885.141C974.831 873.929 952.641 873.45 934.558 883.885C931.71 885.531 928.995 887.43 926.49 889.532C913.322 900.581 905.876 917.455 906.584 934.68C906.743 938.619 905.181 942.358 902.416 944.679C901.581 945.379 900.636 945.95 899.62 946.372C887.049 951.568 874.124 956.265 861.191 960.329C856.614 961.767 851.573 960.006 848.361 955.821C835.608 939.252 814.918 931.21 794.357 934.834C784.668 936.542 775.581 940.772 768.089 947.059C759.961 953.879 753.955 962.822 750.715 972.916C749.953 975.305 748.578 977.385 746.747 978.922C744.916 980.458 742.561 981.416 740.161 981.511C726.711 982.066 712.93 982.025 699.193 981.398C694.414 981.179 690.287 977.815 688.687 972.813C682.332 952.964 665.657 938.381 645.175 934.772C628.817 931.893 612.144 936.354 599.428 947.024C596.371 949.589 593.591 952.483 591.151 955.627C590.558 956.398 589.887 957.092 589.152 957.709C586.003 960.351 581.958 961.239 578.324 960.098C565.408 956.015 552.463 951.291 539.852 946.064C535.414 944.227 532.685 939.638 532.904 934.376C533.742 913.517 523.062 894.099 505.028 883.684C486.981 873.268 464.812 873.685 447.176 884.777C442.751 887.563 437.435 887.481 433.658 884.567C422.751 876.174 412.166 867.276 402.2 858.107C398.693 854.876 397.707 849.672 399.678 844.833C407.57 825.535 404.16 803.659 390.797 787.733C377.433 771.806 356.492 764.601 336.158 768.962C331.058 770.056 326.106 768.168 323.554 764.147C316.227 752.646 309.3 740.64 302.975 728.467C300.776 724.243 301.625 719.001 305.129 715.134C319.105 699.712 323.375 678.01 316.279 658.509C309.172 638.978 291.992 625.053 271.434 622.161C266.238 621.43 262.228 617.942 261.195 613.273C258.221 599.803 255.829 586.172 254.078 572.759C253.592 568.99 255.169 565.16 258.31 562.525C259.038 561.914 259.83 561.38 260.678 560.929C264.155 559.083 267.458 556.859 270.476 554.326C283.162 543.682 290.43 528.106 290.436 511.575C290.437 490.87 279.117 471.949 260.886 462.17C256.289 459.71 253.721 455.063 254.339 450.354C256.134 436.656 258.537 422.982 261.479 409.718C261.996 407.378 263.278 405.297 265.178 403.703C266.993 402.179 269.245 401.191 271.71 400.846C282.117 399.371 291.874 395.022 299.909 388.279C307.355 382.031 313.06 373.864 316.413 364.667C323.498 345.185 319.326 323.505 305.499 308.084C302.013 304.195 301.174 298.947 303.374 294.725C309.679 282.62 316.628 270.615 324.036 259.033C324.621 258.112 325.345 257.295 326.18 256.594C328.93 254.287 332.855 253.395 336.675 254.198C353.393 257.74 371.148 253.338 384.155 242.424C386.645 240.335 388.963 238.011 391.071 235.498C404.384 219.627 407.874 197.836 400.171 178.622C398.253 173.847 399.259 168.683 402.727 165.473C408.14 160.474 413.156 156.043 418.066 151.923M416.721 150.414C411.443 154.843 406.325 159.399 401.32 164.029C397.095 167.94 396.121 174.044 398.272 179.393C405.445 197.276 402.757 218.434 389.498 234.246C387.438 236.706 385.206 238.931 382.831 240.924C369.954 251.729 352.966 255.644 337.056 252.272C332.673 251.342 328.143 252.337 324.864 255.088C323.899 255.898 323.04 256.866 322.326 257.975C314.851 269.665 307.928 281.622 301.572 293.822C298.893 298.968 300.109 305.114 303.982 309.435C316.852 323.792 321.569 344.598 314.512 364.004C311.167 373.194 305.587 380.904 298.601 386.767C290.872 393.252 281.425 397.458 271.406 398.882C268.574 399.287 265.953 400.442 263.869 402.19C261.724 403.99 260.149 406.421 259.513 409.304C256.522 422.806 254.138 436.424 252.337 450.115C251.586 455.863 254.815 461.22 259.92 463.96C276.89 473.061 288.412 490.976 288.418 511.597C288.416 528.164 280.941 542.948 269.182 552.815C266.279 555.251 263.11 557.387 259.731 559.178C258.756 559.696 257.844 560.305 257.017 560.999C253.5 563.95 251.476 568.351 252.082 573.025C253.857 586.652 256.253 600.227 259.226 613.711C260.482 619.393 265.375 623.342 271.14 624.144C290.267 626.84 307.308 639.759 314.374 659.194C321.446 678.637 316.608 699.458 303.627 713.796C299.73 718.097 298.498 724.236 301.177 729.389C307.488 741.547 314.378 753.506 321.842 765.218C324.956 770.111 330.883 772.135 336.555 770.913C355.478 766.862 375.938 773.152 389.25 789.017C402.563 804.882 405.137 826.167 397.813 844.073C395.612 849.446 396.56 855.647 400.837 859.577C411.046 868.96 421.593 877.811 432.427 886.148C437.035 889.696 443.307 889.563 448.235 886.459C464.64 876.14 486.06 875.033 504.019 885.406C521.986 895.772 531.682 914.919 530.896 934.285C530.662 940.121 533.683 945.666 539.081 947.899C551.78 953.169 564.67 957.874 577.725 961.998C582.221 963.42 586.921 962.192 590.445 959.235C591.28 958.534 592.053 957.729 592.74 956.852C595.101 953.801 597.786 951.026 600.72 948.564C612.524 938.659 628.46 933.863 644.839 936.751C665.25 940.354 680.891 954.996 686.794 973.435C688.566 978.985 693.292 983.139 699.117 983.407C712.812 984.03 726.541 984.089 740.255 983.521C743.211 983.403 745.887 982.268 748.039 980.461C750.192 978.655 751.747 976.293 752.62 973.537C755.735 963.808 761.561 955.147 769.367 948.597C776.392 942.703 785.012 938.524 794.702 936.816C815.169 933.205 834.927 941.677 846.77 957.051C850.333 961.686 856.214 963.996 861.79 962.241C874.796 958.155 887.676 953.482 900.388 948.22C901.618 947.711 902.728 947.027 903.701 946.211C907.003 943.44 908.767 939.101 908.586 934.593C907.92 918.194 914.784 901.965 927.784 891.057C930.174 889.052 932.768 887.227 935.564 885.612C953.565 875.22 975.031 876.424 991.419 886.822C996.315 889.934 1002.56 890.083 1007.18 886.569C1012.7 882.381 1018.17 878.069 1023.54 873.563C1028.91 869.057 1033.73 864.765 1038.63 860.233C1042.97 856.232 1044.06 850.039 1041.83 844.591C1034.44 826.611 1037.06 805.255 1050.42 789.325C1052.48 786.865 1054.72 784.633 1057.1 782.641C1070.1 771.732 1087.29 767.828 1103.32 771.352C1107.73 772.32 1112.32 771.345 1115.63 768.568C1116.6 767.751 1117.46 766.783 1118.16 765.667C1125.56 754.07 1132.42 742.22 1138.71 730.122C1141.42 724.942 1140.16 718.75 1136.23 714.438C1123.14 700.069 1118.3 679.11 1125.42 659.575C1128.77 650.378 1134.36 642.647 1141.34 636.785C1149.17 630.222 1158.74 625.985 1168.88 624.615C1171.76 624.227 1174.41 623.069 1176.52 621.301C1178.63 619.533 1180.25 617.063 1180.88 614.172C1183.83 600.767 1186.19 587.238 1187.96 573.637C1188.71 567.862 1185.45 562.494 1180.3 559.765C1163.16 550.713 1151.5 532.721 1151.5 511.988C1151.51 495.407 1159 480.61 1170.76 470.737C1173.72 468.256 1176.95 466.082 1180.4 464.269C1181.4 463.746 1182.33 463.118 1183.17 462.411C1186.7 459.454 1188.72 455.053 1188.1 450.378C1186.32 436.806 1183.93 423.295 1180.96 409.875C1179.7 404.172 1174.77 400.235 1168.99 399.445C1149.78 396.812 1132.64 383.893 1125.54 364.383C1118.45 344.904 1123.32 324.028 1136.34 309.694C1140.26 305.387 1141.49 299.227 1138.8 294.066C1132.49 281.951 1125.62 270.028 1118.17 258.346C1115.04 253.459 1109.11 251.442 1103.44 252.664C1084.5 256.742 1063.99 250.426 1050.67 234.546C1037.34 218.666 1034.79 197.475 1042.1 179.56C1044.29 174.18 1043.34 167.993 1039.06 164.069C1028.83 154.677 1018.27 145.825 1007.4 137.492C1002.79 133.952 996.543 134.094 991.624 137.177C975.231 147.447 953.835 148.521 935.903 138.165C918.011 127.84 908.339 108.816 909.041 89.521C909.252 83.7048 906.228 78.1877 900.844 75.9563C888.083 70.6733 875.137 65.949 862.026 61.8208C857.536 60.4058 852.836 61.6343 849.313 64.5912C848.493 65.2789 847.736 66.0574 847.057 66.9278C844.732 69.8972 842.102 72.6128 839.229 75.0233C827.424 84.9287 811.467 89.7291 795.089 86.8411C774.803 83.2635 759.248 68.7712 753.269 50.4744C751.465 44.9647 746.757 40.8476 740.96 40.5818C727.166 39.9641 713.343 39.9188 699.528 40.506C696.578 40.6312 693.896 41.7594 691.743 43.5656C689.667 45.3076 688.075 47.6881 687.185 50.3927C684.048 59.9703 678.261 68.507 670.547 74.9799C663.523 80.8742 654.894 85.0596 645.205 86.7672C624.896 90.3495 605.295 82.0334 593.428 66.8487C589.853 62.2771 584.012 59.9986 578.471 61.7497C565.355 65.8761 552.371 70.5961 539.549 75.9122C538.319 76.4221 537.216 77.0994 536.243 77.9157C532.972 80.6604 531.206 84.9492 531.348 89.4121C531.878 105.663 525.009 121.7 512.124 132.512C509.734 134.518 507.14 136.342 504.344 137.957C486.5 148.257 465.252 147.157 448.903 136.961C444.017 133.907 437.83 133.799 433.245 137.28C427.672 141.513 422.145 145.863 416.721 150.414Z"
         id="path2" />
    </mask>
    <path
       d="M434.448 138.869L435.052 139.666L435.052 139.665L434.448 138.869ZM447.846 138.657L448.375 137.809L448.375 137.808L447.846 138.657ZM505.342 139.691L505.842 140.557L505.842 140.557L505.342 139.691ZM533.349 89.3388L534.348 89.3064L534.348 89.3062L533.349 89.3388ZM540.318 77.7469L539.935 76.8232L539.934 76.8234L540.318 77.7469ZM579.072 63.6478L578.773 62.6936L578.772 62.6938L579.072 63.6478ZM591.851 68.0806L591.062 68.6952L591.063 68.6968L591.851 68.0806ZM645.551 88.7352L645.724 89.7201L645.725 89.72L645.551 88.7352ZM689.083 51.02L688.132 50.7083L688.132 50.7083L689.083 51.02ZM699.609 42.5005L699.567 41.5014L699.564 41.5015L699.609 42.5005ZM740.863 42.582L740.909 41.5831L740.908 41.5831L740.863 42.582ZM751.362 51.0955L752.312 50.7847L752.312 50.7838L751.362 51.0955ZM794.739 88.8051L794.913 87.8204L794.913 87.8203L794.739 88.8051ZM848.626 68.144L849.414 68.7592L849.415 68.7577L848.626 68.144ZM861.413 63.7191L861.714 62.7653L861.713 62.7651L861.413 63.7191ZM900.073 77.7911L900.456 76.8674L900.455 76.867L900.073 77.7911ZM907.039 89.4381L908.039 89.4747L908.039 89.4742L907.039 89.4381ZM934.9 139.894L935.4 139.028L935.4 139.028L934.9 139.894ZM992.69 138.867L993.221 139.714L993.221 139.714L992.69 138.867ZM1006.19 139.082L1006.8 138.289L1006.8 138.289L1006.19 139.082ZM1037.71 165.548L1038.39 164.811L1038.39 164.811L1037.71 165.548ZM1040.25 178.81L1039.33 178.432L1039.33 178.432L1040.25 178.81ZM1103.87 254.625L1103.66 253.647L1103.66 253.647L1103.87 254.625ZM1116.49 259.427L1115.64 259.965L1115.64 259.965L1116.49 259.427ZM1137.04 294.998L1136.15 295.46L1136.15 295.461L1137.04 294.998ZM1134.88 308.352L1134.14 307.679L1134.14 307.679L1134.88 308.352ZM1123.68 365.072L1122.74 365.414L1122.74 365.414L1123.68 365.072ZM1168.74 401.432L1168.61 402.422L1168.61 402.423L1168.74 401.432ZM1179.02 410.31L1180 410.093L1180 410.093L1179.02 410.31ZM1186.14 450.645L1187.13 450.516L1187.13 450.515L1186.14 450.645ZM1179.49 462.5L1179.95 463.386L1179.96 463.382L1179.49 462.5ZM1149.51 511.999L1148.51 511.998L1148.51 511.999L1149.51 511.999ZM1179.38 561.544L1179.85 560.659L1179.85 560.659L1179.38 561.544ZM1185.99 573.387L1185 573.257L1185 573.257L1185.99 573.387ZM1178.93 613.746L1177.95 613.531L1177.95 613.534L1178.93 613.746ZM1168.62 622.632L1168.49 621.641L1168.48 621.641L1168.62 622.632ZM1123.54 658.892L1124.48 659.234L1124.48 659.234L1123.54 658.892ZM1134.76 715.792L1135.5 715.12L1135.5 715.119L1134.76 715.792ZM1136.95 729.215L1137.84 729.677L1137.84 729.676L1136.95 729.215ZM1116.48 764.611L1115.64 764.073L1115.64 764.075L1116.48 764.611ZM1103.74 769.416L1103.53 770.393L1103.53 770.393L1103.74 769.416ZM1048.89 788.055L1049.65 788.698L1049.65 788.698L1048.89 788.055ZM1039.97 845.365L1039.04 845.745L1039.05 845.745L1039.97 845.365ZM1037.27 858.779L1036.59 858.044L1036.59 858.044L1037.27 858.779ZM1005.97 884.987L1006.58 885.783L1006.58 885.783L1005.97 884.987ZM992.489 885.141L993.025 884.297L993.025 884.297L992.489 885.141ZM934.558 883.885L934.058 883.019L934.058 883.019L934.558 883.885ZM906.584 934.68L907.583 934.64L907.583 934.639L906.584 934.68ZM899.62 946.372L900.002 947.296L900.004 947.295L899.62 946.372ZM861.191 960.329L861.491 961.283L861.491 961.283L861.191 960.329ZM848.361 955.821L849.155 955.212L849.154 955.211L848.361 955.821ZM794.357 934.834L794.53 935.819L794.531 935.819L794.357 934.834ZM750.715 972.916L749.763 972.61L749.763 972.612L750.715 972.916ZM740.161 981.511L740.121 980.512L740.12 980.512L740.161 981.511ZM699.193 981.398L699.148 982.397L699.148 982.397L699.193 981.398ZM688.687 972.813L689.64 972.508L689.639 972.508L688.687 972.813ZM645.175 934.772L645.348 933.787L645.348 933.787L645.175 934.772ZM591.151 955.627L590.361 955.014L590.358 955.018L591.151 955.627ZM578.324 960.098L578.023 961.052L578.024 961.052L578.324 960.098ZM539.852 946.064L540.235 945.14L540.235 945.14L539.852 946.064ZM532.904 934.376L533.903 934.417L533.903 934.416L532.904 934.376ZM505.028 883.684L505.528 882.818L505.528 882.818L505.028 883.684ZM447.176 884.777L446.643 883.93L446.643 883.931L447.176 884.777ZM433.658 884.567L434.269 883.775L434.268 883.774L433.658 884.567ZM402.2 858.107L401.523 858.842L401.523 858.843L402.2 858.107ZM399.678 844.833L398.752 844.454L398.752 844.456L399.678 844.833ZM336.158 768.962L335.948 767.984L335.948 767.984L336.158 768.962ZM323.554 764.147L324.399 763.611L324.398 763.61L323.554 764.147ZM302.975 728.467L303.863 728.006L303.862 728.006L302.975 728.467ZM305.129 715.134L304.388 714.462L304.388 714.463L305.129 715.134ZM316.279 658.509L317.219 658.167L317.219 658.167L316.279 658.509ZM271.434 622.161L271.294 623.151L271.294 623.151L271.434 622.161ZM261.195 613.273L260.219 613.489L260.219 613.489L261.195 613.273ZM254.078 572.759L253.087 572.887L253.087 572.889L254.078 572.759ZM260.678 560.929L260.209 560.046L260.209 560.046L260.678 560.929ZM290.436 511.575L291.436 511.575L291.436 511.575L290.436 511.575ZM260.886 462.17L261.359 461.289L261.358 461.289L260.886 462.17ZM254.339 450.354L255.33 450.484L255.331 450.484L254.339 450.354ZM261.479 409.718L262.455 409.934L262.455 409.934L261.479 409.718ZM271.71 400.846L271.848 401.836L271.85 401.836L271.71 400.846ZM316.413 364.667L317.352 365.009L317.353 365.009L316.413 364.667ZM305.499 308.084L304.754 308.752L304.754 308.752L305.499 308.084ZM303.374 294.725L304.261 295.187L304.261 295.187L303.374 294.725ZM324.036 259.033L324.879 259.572L324.881 259.569L324.036 259.033ZM336.675 254.198L336.882 253.219L336.881 253.219L336.675 254.198ZM391.071 235.498L391.837 236.14L391.071 235.498ZM400.171 178.622L401.099 178.25L401.099 178.249L400.171 178.622ZM402.727 165.473L402.048 164.738L402.048 164.739L402.727 165.473ZM401.32 164.029L400.641 163.295L400.641 163.296L401.32 164.029ZM398.272 179.393L399.2 179.02L399.2 179.02L398.272 179.393ZM389.498 234.246L388.732 233.603L388.732 233.604L389.498 234.246ZM337.056 252.272L336.849 253.25L336.849 253.25L337.056 252.272ZM322.326 257.975L321.485 257.433L321.483 257.436L322.326 257.975ZM301.572 293.822L300.685 293.36L300.685 293.36L301.572 293.822ZM303.982 309.435L304.727 308.768L304.727 308.768L303.982 309.435ZM314.512 364.004L315.451 364.346L315.452 364.346L314.512 364.004ZM271.406 398.882L271.265 397.891L271.264 397.892L271.406 398.882ZM259.513 409.304L260.49 409.521L260.49 409.52L259.513 409.304ZM252.337 450.115L251.345 449.985L251.345 449.986L252.337 450.115ZM259.92 463.96L259.447 464.841L259.448 464.841L259.92 463.96ZM288.418 511.597L289.418 511.597L289.418 511.597L288.418 511.597ZM259.731 559.178L259.263 558.295L259.262 558.295L259.731 559.178ZM252.082 573.025L251.09 573.153L251.09 573.154L252.082 573.025ZM259.226 613.711L258.25 613.926L258.25 613.927L259.226 613.711ZM271.14 624.144L271.279 623.154L271.277 623.154L271.14 624.144ZM314.374 659.194L313.434 659.535L313.434 659.536L314.374 659.194ZM303.627 713.796L304.368 714.467L304.369 714.467L303.627 713.796ZM301.177 729.389L302.065 728.928L302.064 728.928L301.177 729.389ZM321.842 765.218L322.686 764.681L322.686 764.681L321.842 765.218ZM336.555 770.913L336.346 769.935L336.345 769.936L336.555 770.913ZM397.813 844.073L398.739 844.453L398.739 844.452L397.813 844.073ZM400.837 859.577L401.513 858.841L401.513 858.841L400.837 859.577ZM432.427 886.148L433.037 885.356L433.036 885.356L432.427 886.148ZM448.235 886.459L447.703 885.613L447.702 885.613L448.235 886.459ZM504.019 885.406L503.519 886.272L503.519 886.272L504.019 885.406ZM530.896 934.285L529.897 934.245L529.897 934.245L530.896 934.285ZM539.081 947.899L539.465 946.975L539.464 946.975L539.081 947.899ZM577.725 961.998L578.027 961.044L578.026 961.044L577.725 961.998ZM592.74 956.852L593.527 957.469L593.531 957.464L592.74 956.852ZM644.839 936.751L645.012 935.767L645.012 935.766L644.839 936.751ZM686.794 973.435L687.747 973.131L687.747 973.13L686.794 973.435ZM699.117 983.407L699.071 984.406L699.072 984.406L699.117 983.407ZM740.255 983.521L740.215 982.522L740.213 982.522L740.255 983.521ZM752.62 973.537L751.668 973.232L751.667 973.235L752.62 973.537ZM794.702 936.816L794.875 937.801L794.875 937.801L794.702 936.816ZM846.77 957.051L847.563 956.442L847.562 956.441L846.77 957.051ZM861.79 962.241L861.49 961.287L861.49 961.287L861.79 962.241ZM900.388 948.22L900.771 949.144L900.771 949.144L900.388 948.22ZM908.586 934.593L909.585 934.553L909.585 934.552L908.586 934.593ZM935.564 885.612L935.064 884.746L935.064 884.746L935.564 885.612ZM991.419 886.822L991.956 885.978L991.955 885.978L991.419 886.822ZM1007.18 886.569L1006.58 885.772L1006.58 885.773L1007.18 886.569ZM1038.63 860.233L1037.96 859.498L1037.96 859.498L1038.63 860.233ZM1041.83 844.591L1042.75 844.211L1042.75 844.211L1041.83 844.591ZM1050.42 789.325L1051.19 789.968L1051.19 789.967L1050.42 789.325ZM1103.32 771.352L1103.1 772.329L1103.1 772.329L1103.32 771.352ZM1118.16 765.667L1117.32 765.129L1117.32 765.131L1118.16 765.667ZM1138.71 730.122L1137.83 729.659L1137.83 729.66L1138.71 730.122ZM1136.23 714.438L1135.49 715.111L1135.49 715.112L1136.23 714.438ZM1125.42 659.575L1124.48 659.232L1124.48 659.232L1125.42 659.575ZM1168.88 624.615L1168.75 623.624L1168.75 623.624L1168.88 624.615ZM1180.88 614.172L1179.9 613.957L1179.9 613.96L1180.88 614.172ZM1187.96 573.637L1186.97 573.508L1186.97 573.508L1187.96 573.637ZM1180.3 559.765L1180.77 558.881L1180.77 558.881L1180.3 559.765ZM1151.5 511.988L1152.5 511.988L1152.5 511.988L1151.5 511.988ZM1180.4 464.269L1179.94 463.383L1179.94 463.384L1180.4 464.269ZM1188.1 450.378L1187.11 450.508L1187.11 450.509L1188.1 450.378ZM1180.96 409.875L1179.98 410.091L1179.98 410.092L1180.96 409.875ZM1168.99 399.445L1168.86 400.436L1168.86 400.436L1168.99 399.445ZM1125.54 364.383L1124.6 364.725L1124.6 364.725L1125.54 364.383ZM1136.34 309.694L1135.6 309.021L1135.6 309.021L1136.34 309.694ZM1138.8 294.066L1139.69 293.605L1139.69 293.604L1138.8 294.066ZM1118.17 258.346L1119.01 257.808L1119.01 257.808L1118.17 258.346ZM1103.44 252.664L1103.65 253.641L1103.65 253.641L1103.44 252.664ZM1042.1 179.56L1041.17 179.182L1041.17 179.183L1042.1 179.56ZM1039.06 164.069L1038.38 164.805L1038.38 164.806L1039.06 164.069ZM1007.4 137.492L1006.79 138.285L1006.79 138.286L1007.4 137.492ZM991.624 137.177L992.155 138.024L992.155 138.024L991.624 137.177ZM935.903 138.165L936.403 137.299L936.403 137.299L935.903 138.165ZM909.041 89.521L910.04 89.5573L910.04 89.5572L909.041 89.521ZM900.844 75.9563L901.227 75.0325L901.227 75.0324L900.844 75.9563ZM862.026 61.8208L861.726 62.7745L861.726 62.7746L862.026 61.8208ZM847.057 66.9278L847.844 67.5443L847.845 67.5431L847.057 66.9278ZM795.089 86.8411L794.915 87.8259L794.915 87.8259L795.089 86.8411ZM753.269 50.4744L754.219 50.1638L754.219 50.1633L753.269 50.4744ZM740.96 40.5818L741.006 39.5828L741.005 39.5828L740.96 40.5818ZM699.528 40.506L699.57 41.5051L699.57 41.5051L699.528 40.506ZM687.185 50.3927L686.236 50.0802L686.235 50.0813L687.185 50.3927ZM645.205 86.7672L645.031 85.7824L645.031 85.7824L645.205 86.7672ZM593.428 66.8487L594.216 66.2329L594.216 66.2327L593.428 66.8487ZM578.471 61.7497L578.772 62.7037L578.773 62.7033L578.471 61.7497ZM539.549 75.9122L539.932 76.836L539.932 76.836L539.549 75.9122ZM531.348 89.4121L530.348 89.4439L530.348 89.4447L531.348 89.4121ZM504.344 137.957L504.844 138.823L504.844 138.823L504.344 137.957ZM448.903 136.961L448.373 137.809L448.374 137.809L448.903 136.961ZM433.245 137.28L432.64 136.484L432.64 136.484L433.245 137.28ZM418.65 152.712C423.669 148.501 429.034 144.233 435.052 139.666L433.843 138.072C427.803 142.657 422.411 146.945 417.364 151.18L418.65 152.712ZM435.052 139.665C438.447 137.088 443.251 136.973 447.317 139.506L448.375 137.808C443.69 134.891 437.975 134.935 433.843 138.073L435.052 139.665ZM447.317 139.506C465.21 150.665 487.632 151.067 505.842 140.557L504.842 138.825C487.274 148.964 465.644 148.578 448.375 137.809L447.317 139.506ZM505.842 140.557C508.741 138.882 511.503 136.95 514.053 134.81L512.767 133.278C510.307 135.342 507.64 137.208 504.842 138.825L505.842 140.557ZM514.053 134.81C527.327 123.672 534.91 106.668 534.348 89.3064L532.349 89.3712C532.891 106.121 525.569 122.536 512.767 133.278L514.053 134.81ZM534.348 89.3062C534.23 85.6813 535.688 82.2845 538.173 80.1997L536.887 78.6677C533.887 81.1852 532.213 85.1945 532.349 89.3714L534.348 89.3062ZM538.173 80.1997C538.927 79.5665 539.776 79.0548 540.702 78.6705L539.934 76.8234C538.827 77.2833 537.802 77.8997 536.887 78.6677L538.173 80.1997ZM540.701 78.6706C553.35 73.4239 566.364 68.6908 579.372 64.6018L578.772 62.6938C565.708 66.8006 552.638 71.5539 539.935 76.8232L540.701 78.6706ZM579.371 64.6019C583.473 63.3151 588.071 64.8553 591.062 68.6952L592.64 67.4661C589.199 63.0489 583.764 61.1277 578.773 62.6936L579.371 64.6019ZM591.063 68.6968C604.065 85.3155 625.001 93.3694 645.724 89.7201L645.378 87.7504C625.384 91.2711 605.187 83.5034 592.639 67.4644L591.063 68.6968ZM645.725 89.72C655.593 87.9757 664.848 83.6784 672.476 77.278L671.19 75.7459C663.834 81.9184 654.903 86.0667 645.377 87.7505L645.725 89.72ZM672.476 77.278C680.646 70.4217 686.713 61.4518 690.033 51.3317L688.132 50.7083C684.929 60.4741 679.075 69.1293 671.19 75.7459L672.476 77.278ZM690.033 51.3318C690.752 49.1398 692.014 47.2548 693.672 45.8637L692.386 44.3316C690.428 45.9746 688.962 48.1806 688.132 50.7083L690.033 51.3318ZM693.672 45.8637C695.407 44.4075 697.477 43.5986 699.655 43.4995L699.564 41.5015C696.938 41.621 694.45 42.5997 692.386 44.3316L693.672 45.8637ZM699.651 43.4996C713.186 42.9273 727.031 42.9557 740.818 43.581L740.908 41.5831C727.065 40.9552 713.162 40.9266 699.567 41.5014L699.651 43.4996ZM740.817 43.581C745.103 43.7767 748.9 46.7975 750.411 51.4071L752.312 50.7838C750.574 45.4841 746.125 41.8212 740.909 41.5831L740.817 43.581ZM750.411 51.4062C756.959 71.4336 773.873 86.1443 794.566 89.79L794.913 87.8203C774.95 84.3033 758.632 70.1134 752.312 50.7847L750.411 51.4062ZM794.566 89.7899C811.221 92.7281 828.208 88.174 841.159 77.3073L839.873 75.7752C827.376 86.262 810.986 90.6558 794.913 87.8204L794.566 89.7899ZM841.159 77.3073C844.2 74.7557 846.98 71.8779 849.414 68.7592L847.837 67.5288C845.49 70.5362 842.808 73.3131 839.873 75.7752L841.159 77.3073ZM849.415 68.7577C849.956 68.0625 850.57 67.4263 851.228 66.874L849.943 65.3419C849.176 65.9852 848.463 66.7235 847.836 67.5302L849.415 68.7577ZM851.228 66.874C854.139 64.4316 857.834 63.6431 861.113 64.6732L861.713 62.7651C857.725 61.5126 853.329 62.5005 849.943 65.3419L851.228 66.874ZM861.112 64.6729C874.022 68.7416 887.003 73.4685 899.691 78.7152L900.455 76.867C887.715 71.5986 874.68 66.8518 861.714 62.7653L861.112 64.6729ZM899.69 78.7148C903.683 80.3708 906.217 84.5166 906.04 89.402L908.039 89.4742C908.242 83.8593 905.313 78.8817 900.456 76.8674L899.69 78.7148ZM906.04 89.4016C905.267 110.537 916.132 130.217 934.4 140.76L935.4 139.028C917.776 128.856 907.293 109.872 908.039 89.4747L906.04 89.4016ZM934.4 140.76C952.748 151.352 975.29 150.948 993.221 139.714L992.159 138.02C974.856 148.859 953.107 149.25 935.4 139.028L934.4 140.76ZM993.221 139.714C997.335 137.137 1002.17 137.26 1005.58 139.876L1006.8 138.289C1002.65 135.105 996.892 135.054 992.159 138.02L993.221 139.714ZM1005.58 139.876C1016.46 148.229 1027.04 157.117 1037.04 166.285L1038.39 164.811C1028.35 155.603 1017.72 146.678 1006.8 138.289L1005.58 139.876ZM1037.04 166.285C1040.21 169.193 1041.16 173.946 1039.33 178.432L1041.18 179.187C1043.29 174.024 1042.25 168.353 1038.39 164.811L1037.04 166.285ZM1039.33 178.432C1031.33 198.046 1034.8 220.288 1048.38 236.476L1049.91 235.19C1036.81 219.572 1033.46 198.117 1041.18 179.187L1039.33 178.432ZM1048.38 236.476C1061.96 252.662 1083.37 260.054 1104.08 255.603L1103.66 253.647C1083.67 257.943 1063.02 250.81 1049.91 235.19L1048.38 236.476ZM1104.08 255.603C1108.82 254.585 1113.34 256.346 1115.64 259.965L1117.33 258.89C1114.52 254.479 1109.11 252.477 1103.66 253.647L1104.08 255.603ZM1115.64 259.965C1122.93 271.375 1129.83 283.326 1136.15 295.46L1137.93 294.536C1131.57 282.35 1124.64 270.349 1117.33 258.889L1115.64 259.965ZM1136.15 295.461C1138.15 299.283 1137.42 304.078 1134.14 307.679L1135.62 309.025C1139.39 304.882 1140.36 299.191 1137.93 294.535L1136.15 295.461ZM1134.14 307.679C1119.87 323.386 1115.5 345.511 1122.74 365.414L1124.62 364.73C1117.63 345.527 1121.85 324.183 1135.62 309.024L1134.14 307.679ZM1122.74 365.414C1130 385.36 1147.58 399.542 1168.61 402.422L1168.88 400.441C1148.58 397.661 1131.63 383.979 1124.62 364.73L1122.74 365.414ZM1168.61 402.423C1173.45 403.084 1177.11 406.308 1178.05 410.526L1180 410.093C1178.86 404.959 1174.44 401.201 1168.88 400.441L1168.61 402.423ZM1178.05 410.526C1181 423.874 1183.39 437.413 1185.14 450.776L1187.13 450.515C1185.36 437.094 1182.97 423.498 1180 410.093L1178.05 410.526ZM1185.14 450.775C1185.59 454.182 1184.16 457.677 1181.26 460.114L1182.55 461.646C1185.92 458.812 1187.67 454.662 1187.13 450.516L1185.14 450.775ZM1181.26 460.114C1180.58 460.683 1179.82 461.19 1179.02 461.618L1179.96 463.382C1180.87 462.895 1181.75 462.311 1182.55 461.646L1181.26 460.114ZM1179.03 461.614C1175.41 463.509 1171.98 465.81 1168.85 468.44L1170.13 469.972C1173.16 467.434 1176.46 465.213 1179.95 463.386L1179.03 461.614ZM1168.85 468.44C1155.93 479.281 1148.52 495.157 1148.51 511.998L1150.51 511.999C1150.52 495.75 1157.67 480.433 1170.13 469.972L1168.85 468.44ZM1148.51 511.999C1148.52 533.202 1160.16 552.53 1178.91 562.428L1179.85 560.659C1161.75 551.108 1150.52 532.461 1150.51 511.999L1148.51 511.999ZM1178.91 562.428C1183.23 564.708 1185.56 568.97 1185 573.257L1186.98 573.516C1187.66 568.301 1184.81 563.28 1179.85 560.659L1178.91 562.428ZM1185 573.257C1183.22 586.836 1180.85 600.392 1177.95 613.531L1179.9 613.962C1182.82 600.764 1185.2 587.152 1186.98 573.516L1185 573.257ZM1177.95 613.534C1177.49 615.655 1176.33 617.545 1174.59 619.003L1175.88 620.535C1177.94 618.805 1179.35 616.532 1179.91 613.959L1177.95 613.534ZM1174.59 619.003C1172.85 620.467 1170.8 621.336 1168.49 621.641L1168.75 623.624C1171.42 623.272 1173.82 622.259 1175.88 620.535L1174.59 619.003ZM1168.48 621.641C1157.75 623.087 1147.7 627.532 1139.42 634.487L1140.7 636.019C1148.7 629.307 1158.4 625.018 1168.75 623.624L1168.48 621.641ZM1139.42 634.487C1131.82 640.861 1126 649.182 1122.6 658.55L1124.48 659.234C1127.77 650.193 1133.38 642.166 1140.7 636.019L1139.42 634.487ZM1122.6 658.55C1115.32 678.545 1119.7 700.742 1134.02 716.466L1135.5 715.119C1121.68 699.945 1117.45 678.531 1124.48 659.234L1122.6 658.55ZM1134.02 716.465C1137.32 720.09 1138.06 724.908 1136.06 728.753L1137.84 729.676C1140.27 724.995 1139.28 719.283 1135.5 715.12L1134.02 716.465ZM1136.06 728.753C1129.82 740.736 1122.95 752.615 1115.64 764.073L1117.33 765.149C1124.66 753.642 1131.57 741.713 1137.84 729.677L1136.06 728.753ZM1115.64 764.075C1115.11 764.906 1114.45 765.652 1113.7 766.284L1114.98 767.816C1115.88 767.059 1116.68 766.159 1117.33 765.147L1115.64 764.075ZM1113.7 766.284C1111.18 768.392 1107.54 769.228 1103.95 768.439L1103.53 770.393C1107.66 771.301 1111.95 770.362 1114.98 767.816L1113.7 766.284ZM1103.96 768.439C1086.79 764.662 1068.56 769.119 1055.17 780.357L1056.45 781.889C1069.37 771.053 1086.97 766.748 1103.53 770.393L1103.96 768.439ZM1055.17 780.357C1052.63 782.484 1050.27 784.855 1048.12 787.412L1049.65 788.698C1051.73 786.229 1054.01 783.94 1056.45 781.889L1055.17 780.357ZM1048.12 787.412C1034.44 803.713 1030.97 826.068 1039.04 845.745L1040.9 844.986C1033.1 825.996 1036.45 804.429 1049.65 788.698L1048.12 787.412ZM1039.05 845.745C1040.88 850.204 1039.88 855.01 1036.59 858.044L1037.95 859.514C1041.9 855.871 1043.02 850.158 1040.9 844.985L1039.05 845.745ZM1036.59 858.044C1031.31 862.917 1026.41 867.239 1021.61 871.271L1022.89 872.803C1027.72 868.749 1032.65 864.405 1037.95 859.514L1036.59 858.044ZM1021.61 871.271C1016.8 875.302 1011.32 879.667 1005.37 884.191L1006.58 885.783C1012.55 881.242 1018.06 876.858 1022.89 872.803L1021.61 871.271ZM1005.37 884.191C1001.95 886.792 997.106 886.89 993.025 884.297L991.953 885.985C996.654 888.973 1002.41 888.949 1006.58 885.783L1005.37 884.191ZM993.025 884.297C975.053 872.885 952.465 872.397 934.058 883.019L935.058 884.751C952.818 874.502 974.608 874.972 991.953 885.986L993.025 884.297ZM934.058 883.019C931.16 884.694 928.397 886.626 925.848 888.766L927.133 890.298C929.593 888.233 932.26 886.368 935.058 884.751L934.058 883.019ZM925.848 888.766C912.441 900.015 904.864 917.187 905.585 934.721L907.583 934.639C906.888 917.723 914.203 901.148 927.133 890.298L925.848 888.766ZM905.585 934.72C905.733 938.382 904.278 941.811 901.773 943.912L903.058 945.445C906.084 942.905 907.754 938.857 907.583 934.64L905.585 934.72ZM901.773 943.912C901.017 944.546 900.161 945.064 899.236 945.448L900.004 947.295C901.112 946.835 902.144 946.212 903.058 945.445L901.773 943.912ZM899.238 945.448C886.694 950.633 873.796 955.319 860.891 959.375L861.491 961.283C874.452 957.21 887.404 952.503 900.002 947.296L899.238 945.448ZM860.891 959.375C856.763 960.672 852.142 959.105 849.155 955.212L847.568 956.429C851.003 960.906 856.466 962.862 861.491 961.283L860.891 959.375ZM849.154 955.211C836.174 938.348 815.112 930.161 794.183 933.849L794.531 935.819C814.724 932.26 835.042 940.157 847.569 956.431L849.154 955.211ZM794.183 933.849C784.322 935.587 775.074 939.893 767.446 946.293L768.732 947.825C776.089 941.652 785.013 937.496 794.53 935.819L794.183 933.849ZM767.446 946.293C759.174 953.234 753.06 962.337 749.763 972.61L751.667 973.222C754.849 963.307 760.749 954.524 768.732 947.825L767.446 946.293ZM749.763 972.612C749.054 974.83 747.783 976.747 746.104 978.156L747.39 979.688C749.373 978.024 750.851 975.78 751.668 973.22L749.763 972.612ZM746.104 978.156C744.434 979.558 742.288 980.426 740.121 980.512L740.2 982.51C742.834 982.406 745.399 981.358 747.39 979.688L746.104 978.156ZM740.12 980.512C726.7 981.066 712.948 981.025 699.239 980.399L699.148 982.397C712.913 983.025 726.722 983.067 740.202 982.51L740.12 980.512ZM699.239 980.399C694.927 980.201 691.127 977.161 689.64 972.508L687.735 973.117C689.446 978.469 693.902 982.156 699.148 982.397L699.239 980.399ZM689.639 972.508C683.171 952.307 666.197 937.461 645.348 933.787L645.001 935.757C665.116 939.301 681.492 953.622 687.735 973.118L689.639 972.508ZM645.348 933.787C628.7 930.857 611.728 935.398 598.785 946.258L600.07 947.79C612.56 937.31 628.935 932.929 645.002 935.757L645.348 933.787ZM598.785 946.258C595.674 948.869 592.844 951.814 590.361 955.014L591.941 956.24C594.338 953.152 597.069 950.309 600.07 947.79L598.785 946.258ZM590.358 955.018C589.811 955.729 589.191 956.371 588.509 956.943L589.795 958.475C590.583 957.813 591.305 957.068 591.944 956.236L590.358 955.018ZM588.509 956.943C585.598 959.386 581.903 960.174 578.624 959.144L578.024 961.052C582.012 962.305 586.408 961.317 589.795 958.475L588.509 956.943ZM578.626 959.145C565.737 955.071 552.819 950.356 540.235 945.14L539.469 946.988C552.106 952.226 565.079 956.96 578.023 961.052L578.626 959.145ZM540.235 945.14C536.231 943.483 533.699 939.313 533.903 934.417L531.905 934.334C531.67 939.962 534.596 944.972 539.47 946.988L540.235 945.14ZM533.903 934.416C534.756 913.187 523.885 893.419 505.528 882.818L504.528 884.55C522.239 894.779 532.728 913.847 531.905 934.336L533.903 934.416ZM505.528 882.818C487.16 872.217 464.594 872.641 446.643 883.93L447.708 885.623C465.031 874.729 486.802 874.319 504.528 884.55L505.528 882.818ZM446.643 883.931C442.528 886.521 437.673 886.402 434.269 883.775L433.047 885.358C437.196 888.56 442.974 888.604 447.708 885.623L446.643 883.931ZM434.268 883.774C423.384 875.399 412.821 866.52 402.877 857.371L401.523 858.843C411.511 868.033 422.119 876.949 433.048 885.359L434.268 883.774ZM402.878 857.371C399.715 854.457 398.77 849.712 400.604 845.21L398.752 844.456C396.644 849.631 397.671 855.294 401.523 858.842L402.878 857.371ZM400.603 845.211C408.636 825.571 405.165 803.301 391.563 787.09L390.031 788.375C403.155 804.016 406.504 825.499 398.752 844.454L400.603 845.211ZM391.563 787.09C377.961 770.88 356.645 763.546 335.948 767.984L336.368 769.94C356.339 765.657 376.905 772.733 390.031 788.375L391.563 787.09ZM335.948 767.984C331.205 769.002 326.698 767.235 324.399 763.611L322.71 764.683C325.513 769.1 330.911 771.11 336.368 769.94L335.948 767.984ZM324.398 763.61C317.087 752.133 310.173 740.153 303.863 728.006L302.088 728.928C308.426 741.127 315.368 753.158 322.711 764.684L324.398 763.61ZM303.862 728.006C301.879 724.198 302.611 719.402 305.87 715.805L304.388 714.463C300.639 718.6 299.672 724.289 302.089 728.929L303.862 728.006ZM305.87 715.806C320.095 700.109 324.442 678.018 317.219 658.167L315.34 658.851C322.308 678.003 318.116 699.314 304.388 714.462L305.87 715.806ZM317.219 658.167C309.986 638.289 292.498 624.114 271.573 621.171L271.294 623.151C291.486 625.992 308.359 639.666 315.34 658.851L317.219 658.167ZM271.573 621.171C266.739 620.49 263.103 617.27 262.172 613.057L260.219 613.489C261.352 618.613 265.737 622.369 271.294 623.151L271.573 621.171ZM262.172 613.057C259.204 599.616 256.817 586.013 255.07 572.63L253.087 572.889C254.842 586.33 257.239 599.991 260.219 613.489L262.172 613.057ZM255.07 572.631C254.631 569.229 256.05 565.727 258.953 563.291L257.667 561.759C254.288 564.594 252.553 568.751 253.087 572.887L255.07 572.631ZM258.953 563.291C259.626 562.725 260.36 562.231 261.148 561.812L260.209 560.046C259.299 560.53 258.449 561.103 257.667 561.759L258.953 563.291ZM261.147 561.812C264.685 559.933 268.047 557.67 271.119 555.092L269.834 553.56C266.869 556.047 263.624 558.232 260.209 560.046L261.147 561.812ZM271.119 555.092C284.031 544.258 291.43 528.402 291.436 511.575L289.436 511.574C289.43 527.809 282.293 543.105 269.834 553.56L271.119 555.092ZM291.436 511.575C291.437 490.501 279.915 471.243 261.359 461.289L260.413 463.052C278.32 472.656 289.437 491.238 289.436 511.575L291.436 511.575ZM261.358 461.289C257.082 459 254.773 454.732 255.33 450.484L253.347 450.224C252.669 455.394 255.496 460.419 260.414 463.052L261.358 461.289ZM255.331 450.484C257.121 436.814 259.519 423.17 262.455 409.934L260.502 409.501C257.554 422.795 255.146 436.497 253.347 450.224L255.331 450.484ZM262.455 409.934C262.923 407.818 264.083 405.927 265.821 404.469L264.535 402.937C262.474 404.667 261.069 406.938 260.502 409.502L262.455 409.934ZM265.821 404.469C267.486 403.071 269.561 402.156 271.848 401.836L271.571 399.856C268.929 400.226 266.501 401.288 264.535 402.937L265.821 404.469ZM271.85 401.836C282.442 400.335 292.373 395.909 300.552 389.045L299.267 387.513C291.374 394.136 281.791 398.408 271.569 399.856L271.85 401.836ZM300.552 389.045C308.134 382.684 313.94 374.369 317.352 365.009L315.473 364.324C312.18 373.358 306.577 381.379 299.267 387.513L300.552 389.045ZM317.353 365.009C324.563 345.181 320.317 323.112 306.243 307.417L304.754 308.752C318.334 323.897 322.432 345.189 315.473 364.325L317.353 365.009ZM306.244 307.417C303 303.797 302.277 298.994 304.261 295.187L302.487 294.262C300.07 298.9 301.027 304.593 304.754 308.752L306.244 307.417ZM304.261 295.187C310.552 283.109 317.486 271.129 324.879 259.572L323.194 258.494C315.769 270.101 308.806 282.132 302.487 294.263L304.261 295.187ZM324.881 259.569C325.408 258.738 326.063 257.998 326.823 257.36L325.537 255.828C324.627 256.592 323.834 257.486 323.192 258.497L324.881 259.569ZM326.823 257.36C329.314 255.27 332.919 254.43 336.469 255.176L336.881 253.219C332.792 252.36 328.546 253.304 325.537 255.828L326.823 257.36ZM336.468 255.176C353.485 258.782 371.553 254.303 384.798 243.19L383.512 241.658C370.742 252.373 353.302 256.699 336.882 253.219L336.468 255.176ZM384.798 243.19C387.333 241.063 389.692 238.697 391.837 236.14L390.305 234.855C388.234 237.324 385.956 239.607 383.512 241.658L384.798 243.19ZM391.837 236.14C405.387 219.988 408.939 197.807 401.099 178.25L399.243 178.994C406.808 197.865 403.382 219.266 390.305 234.855L391.837 236.14ZM401.099 178.249C399.318 173.815 400.276 169.104 403.406 166.207L402.048 164.739C398.242 168.262 397.189 173.88 399.243 178.995L401.099 178.249ZM403.405 166.207C408.808 161.218 413.812 156.798 418.709 152.689L417.423 151.157C412.499 155.289 407.472 159.73 402.048 164.738L403.405 166.207ZM416.079 149.648C410.786 154.089 405.655 158.657 400.641 163.295L401.999 164.763C406.994 160.142 412.101 155.597 417.364 151.18L416.079 149.648ZM400.641 163.296C396.07 167.526 395.061 174.087 397.345 179.766L399.2 179.02C397.182 174.001 398.12 168.354 401.999 164.763L400.641 163.296ZM397.344 179.765C404.385 197.318 401.745 218.084 388.732 233.603L390.265 234.888C403.768 218.784 406.506 197.233 399.2 179.02L397.344 179.765ZM388.732 233.604C386.709 236.019 384.518 238.202 382.188 240.158L383.474 241.69C385.893 239.66 388.167 237.393 390.265 234.888L388.732 233.604ZM382.188 240.158C369.554 250.759 352.882 254.604 337.264 251.294L336.849 253.25C353.051 256.685 370.354 252.698 383.474 241.69L382.188 240.158ZM337.264 251.294C332.61 250.306 327.758 251.354 324.221 254.322L325.507 255.854C328.527 253.32 332.736 252.378 336.849 253.25L337.264 251.294ZM324.221 254.322C323.179 255.197 322.254 256.241 321.485 257.433L323.166 258.517C323.827 257.492 324.619 256.599 325.507 255.854L324.221 254.322ZM321.483 257.436C313.993 269.15 307.055 281.134 300.685 293.36L302.459 294.284C308.801 282.111 315.709 270.179 323.168 258.514L321.483 257.436ZM300.685 293.36C297.785 298.931 299.13 305.521 303.238 310.103L304.727 308.768C301.087 304.708 300.001 299.005 302.459 294.283L300.685 293.36ZM303.238 310.103C315.87 324.195 320.498 344.615 313.572 363.662L315.452 364.346C322.639 344.58 317.833 323.389 304.727 308.768L303.238 310.103ZM313.572 363.662C310.288 372.683 304.814 380.248 297.958 386L299.244 387.533C306.361 381.561 312.045 373.705 315.451 364.346L313.572 363.662ZM297.958 386C290.373 392.366 281.1 396.494 271.265 397.891L271.547 399.872C281.75 398.422 291.371 394.139 299.244 387.533L297.958 386ZM271.264 397.892C268.256 398.322 265.459 399.55 263.226 401.424L264.512 402.956C266.446 401.333 268.892 400.252 271.548 399.871L271.264 397.892ZM263.226 401.424C260.925 403.355 259.223 405.976 258.537 409.089L260.49 409.52C261.075 406.867 262.524 404.624 264.512 402.956L263.226 401.424ZM258.537 409.088C255.539 422.619 253.15 436.266 251.345 449.985L253.328 450.246C255.126 436.583 257.505 422.993 260.49 409.521L258.537 409.088ZM251.345 449.986C250.532 456.206 254.033 461.936 259.447 464.841L260.393 463.079C255.597 460.505 252.639 455.52 253.329 450.245L251.345 449.986ZM259.448 464.841C276.105 473.774 287.412 491.358 287.418 511.597L289.418 511.597C289.412 490.594 277.676 472.347 260.393 463.079L259.448 464.841ZM287.418 511.597C287.417 527.855 280.081 542.364 268.539 552.049L269.825 553.581C281.8 543.532 289.416 528.472 289.418 511.597L287.418 511.597ZM268.539 552.049C265.69 554.44 262.58 556.536 259.263 558.295L260.2 560.062C263.641 558.238 266.867 556.062 269.825 553.581L268.539 552.049ZM259.262 558.295C258.229 558.844 257.258 559.491 256.374 560.233L257.659 561.765C258.43 561.118 259.283 560.548 260.2 560.061L259.262 558.295ZM256.374 560.233C252.631 563.374 250.435 568.099 251.09 573.153L253.074 572.896C252.517 568.603 254.37 564.525 257.659 561.765L256.374 560.233ZM251.09 573.154C252.869 586.811 255.271 600.415 258.25 613.926L260.203 613.496C257.236 600.039 254.844 586.493 253.073 572.895L251.09 573.154ZM258.25 613.927C259.609 620.075 264.886 624.283 271.002 625.135L271.277 623.154C265.864 622.4 261.356 618.711 260.203 613.495L258.25 613.927ZM271 625.134C289.775 627.78 306.499 640.461 313.434 659.535L315.314 658.852C308.117 639.056 290.759 625.899 271.279 623.154L271 625.134ZM313.434 659.536C320.374 678.615 315.629 699.049 302.886 713.125L304.369 714.467C317.587 699.866 322.518 678.658 315.314 658.852L313.434 659.536ZM302.886 713.125C298.753 717.687 297.389 724.271 300.29 729.85L302.064 728.928C299.607 724.201 300.708 718.508 304.368 714.467L302.886 713.125ZM300.29 729.85C306.614 742.033 313.518 754.019 320.999 765.756L322.686 764.681C315.237 752.994 308.362 741.06 302.065 728.928L300.29 729.85ZM320.999 765.755C324.369 771.052 330.747 773.187 336.766 771.891L336.345 769.936C331.02 771.082 325.543 769.171 322.686 764.681L320.999 765.755ZM336.765 771.891C355.339 767.914 375.419 774.089 388.484 789.66L390.016 788.374C376.457 772.215 355.617 765.809 336.346 769.935L336.765 771.891ZM388.484 789.66C401.548 805.228 404.076 826.117 396.888 843.695L398.739 844.452C406.197 826.216 403.577 804.535 390.016 788.374L388.484 789.66ZM396.888 843.694C394.552 849.394 395.53 856.059 400.16 860.314L401.513 858.841C397.589 855.235 396.671 849.497 398.739 844.453L396.888 843.694ZM400.16 860.314C410.391 869.716 420.961 878.587 431.817 886.941L433.036 885.356C422.226 877.036 411.701 868.204 401.513 858.841L400.16 860.314ZM431.817 886.941C436.806 890.781 443.541 890.598 448.768 887.306L447.702 885.613C443.074 888.528 437.264 888.61 433.037 885.356L431.817 886.941ZM448.768 887.306C464.871 877.177 485.893 876.092 503.519 886.272L504.519 884.54C486.226 873.975 464.41 875.104 447.703 885.613L448.768 887.306ZM503.519 886.272C521.15 896.445 530.668 915.235 529.897 934.245L531.895 934.326C532.695 914.604 522.821 895.1 504.519 884.54L503.519 886.272ZM529.897 934.245C529.649 940.433 532.855 946.406 538.699 948.823L539.464 946.975C534.511 944.926 531.675 939.809 531.895 934.325L529.897 934.245ZM538.698 948.822C551.424 954.104 564.341 958.819 577.424 962.951L578.026 961.044C565 956.93 552.137 952.234 539.465 946.975L538.698 948.822ZM577.423 962.951C582.287 964.49 587.337 963.148 591.088 960.001L589.802 958.469C586.505 961.235 582.155 962.35 578.027 961.044L577.423 962.951ZM591.088 960.001C591.978 959.254 592.8 958.398 593.527 957.469L591.953 956.235C591.307 957.06 590.582 957.815 589.802 958.469L591.088 960.001ZM593.531 957.464C595.847 954.471 598.482 951.747 601.363 949.33L600.077 947.798C597.09 950.304 594.355 953.131 591.949 956.24L593.531 957.464ZM601.363 949.33C612.95 939.607 628.589 934.901 644.665 937.736L645.012 935.766C628.331 932.825 612.099 937.71 600.077 947.798L601.363 949.33ZM644.665 937.736C664.695 941.272 680.047 955.639 685.842 973.74L687.747 973.13C681.735 954.353 665.804 939.437 645.012 935.767L644.665 937.736ZM685.842 973.739C687.721 979.627 692.768 984.116 699.071 984.406L699.163 982.408C693.816 982.162 689.411 978.343 687.747 973.131L685.842 973.739ZM699.072 984.406C712.794 985.03 726.552 985.089 740.296 984.52L740.213 982.522C726.53 983.088 712.83 983.03 699.163 982.408L699.072 984.406ZM740.294 984.52C743.489 984.393 746.373 983.165 748.682 981.227L747.396 979.695C745.4 981.371 742.932 982.414 740.215 982.522L740.294 984.52ZM748.682 981.227C750.986 979.294 752.646 976.768 753.573 973.839L751.667 973.235C750.849 975.818 749.397 978.016 747.396 979.695L748.682 981.227ZM753.572 973.842C756.63 964.293 762.348 955.792 770.01 949.363L768.724 947.831C760.774 954.502 754.841 963.323 751.668 973.232L753.572 973.842ZM770.01 949.363C776.903 943.579 785.363 939.478 794.875 937.801L794.528 935.832C784.662 937.57 775.88 941.827 768.724 947.831L770.01 949.363ZM794.875 937.801C814.96 934.258 834.352 942.569 845.978 957.662L847.562 956.441C835.502 940.785 815.378 932.153 794.528 935.832L794.875 937.801ZM845.977 957.661C849.756 962.576 856.054 965.095 862.09 963.195L861.49 961.287C856.373 962.898 850.91 960.795 847.563 956.442L845.977 957.661ZM862.09 963.195C875.124 959.1 888.032 954.418 900.771 949.144L900.006 947.297C887.321 952.547 874.469 957.209 861.49 961.287L862.09 963.195ZM900.771 949.144C902.097 948.595 903.295 947.857 904.344 946.977L903.058 945.445C902.162 946.197 901.139 946.827 900.005 947.297L900.771 949.144ZM904.344 946.977C907.907 943.987 909.777 939.338 909.585 934.553L907.587 934.633C907.756 938.865 906.099 942.893 903.058 945.445L904.344 946.977ZM909.585 934.552C908.931 918.456 915.669 902.528 928.426 891.823L927.141 890.291C913.898 901.403 906.908 917.933 907.587 934.633L909.585 934.552ZM928.426 891.823C930.772 889.855 933.319 888.064 936.064 886.478L935.064 884.746C932.217 886.391 929.575 888.249 927.141 890.291L928.426 891.823ZM936.064 886.478C953.729 876.28 974.796 877.459 990.884 887.667L991.955 885.978C975.266 875.389 953.401 874.16 935.064 884.746L936.064 886.478ZM990.883 887.666C996.079 890.969 1002.79 891.167 1007.79 887.365L1006.58 885.773C1002.34 888.998 996.55 888.899 991.956 885.978L990.883 887.666ZM1007.79 887.366C1013.32 883.17 1018.8 878.847 1024.18 874.329L1022.9 872.797C1017.54 877.29 1012.09 881.592 1006.58 885.772L1007.79 887.366ZM1024.18 874.329C1029.57 869.81 1034.4 865.508 1039.31 860.967L1037.96 859.498C1033.06 864.022 1028.25 868.303 1022.9 872.797L1024.18 874.329ZM1039.31 860.967C1043.98 856.657 1045.13 850.009 1042.75 844.211L1040.9 844.97C1042.99 850.069 1041.95 855.807 1037.96 859.498L1039.31 860.967ZM1042.75 844.211C1035.5 826.562 1038.07 805.602 1051.19 789.968L1049.66 788.682C1036.04 804.907 1033.38 826.66 1040.9 844.971L1042.75 844.211ZM1051.19 789.967C1053.21 787.552 1055.41 785.362 1057.74 783.407L1056.46 781.875C1054.04 783.904 1051.76 786.178 1049.66 788.683L1051.19 789.967ZM1057.74 783.407C1070.5 772.703 1087.37 768.869 1103.1 772.329L1103.53 770.375C1087.21 766.786 1069.7 770.762 1056.46 781.875L1057.74 783.407ZM1103.1 772.329C1107.79 773.356 1112.7 772.331 1116.27 769.334L1114.98 767.802C1111.94 770.359 1107.67 771.284 1103.53 770.375L1103.1 772.329ZM1116.27 769.334C1117.32 768.453 1118.25 767.407 1119.01 766.202L1117.32 765.131C1116.67 766.159 1115.88 767.05 1114.98 767.802L1116.27 769.334ZM1119.01 766.205C1126.42 754.583 1133.29 742.708 1139.6 730.583L1137.83 729.66C1131.54 741.731 1124.7 753.556 1117.32 765.129L1119.01 766.205ZM1139.6 730.584C1142.53 724.977 1141.14 718.337 1136.97 713.764L1135.49 715.112C1139.19 719.163 1140.31 724.908 1137.83 729.659L1139.6 730.584ZM1136.97 713.764C1124.12 699.66 1119.37 679.09 1126.36 659.917L1124.48 659.232C1117.23 679.131 1122.16 700.478 1135.49 715.111L1136.97 713.764ZM1126.36 659.917C1129.65 650.889 1135.13 643.303 1141.99 637.551L1140.7 636.019C1133.58 641.991 1127.89 649.867 1124.48 659.232L1126.36 659.917ZM1141.99 637.551C1149.66 631.11 1159.06 626.95 1169.02 625.606L1168.75 623.624C1158.42 625.019 1148.67 629.334 1140.7 636.019L1141.99 637.551ZM1169.02 625.606C1172.07 625.194 1174.91 623.962 1177.16 622.067L1175.88 620.535C1173.92 622.175 1171.45 623.261 1168.75 623.624L1169.02 625.606ZM1177.16 622.067C1179.43 620.17 1181.18 617.511 1181.86 614.385L1179.9 613.96C1179.32 616.616 1177.83 618.897 1175.88 620.535L1177.16 622.067ZM1181.85 614.388C1184.82 600.953 1187.18 587.396 1188.95 573.766L1186.97 573.508C1185.2 587.081 1182.85 600.581 1179.9 613.957L1181.85 614.388ZM1188.95 573.767C1189.77 567.515 1186.23 561.775 1180.77 558.881L1179.83 560.648C1184.67 563.213 1187.66 568.208 1186.97 573.508L1188.95 573.767ZM1180.77 558.881C1163.94 549.995 1152.5 532.336 1152.5 511.988L1150.5 511.988C1150.5 533.106 1162.38 551.431 1179.83 560.649L1180.77 558.881ZM1152.5 511.988C1152.51 495.716 1159.86 481.195 1171.41 471.503L1170.12 469.971C1158.14 480.025 1150.51 495.098 1150.5 511.988L1152.5 511.988ZM1171.41 471.503C1174.31 469.067 1177.48 466.934 1180.87 465.154L1179.94 463.384C1176.42 465.23 1173.13 467.444 1170.12 469.971L1171.41 471.503ZM1180.87 465.154C1181.93 464.598 1182.92 463.93 1183.82 463.177L1182.53 461.645C1181.74 462.305 1180.87 462.893 1179.94 463.383L1180.87 465.154ZM1183.82 463.177C1187.57 460.03 1189.77 455.304 1189.09 450.246L1187.11 450.509C1187.68 454.801 1185.83 458.878 1182.53 461.645L1183.82 463.177ZM1189.09 450.248C1187.31 436.647 1184.91 423.107 1181.93 409.659L1179.98 410.092C1182.95 423.484 1185.34 436.966 1187.11 450.508L1189.09 450.248ZM1181.93 409.659C1180.57 403.486 1175.26 399.292 1169.13 398.454L1168.86 400.436C1174.29 401.178 1178.82 404.857 1179.98 410.091L1181.93 409.659ZM1169.13 398.454C1150.26 395.87 1133.45 383.189 1126.48 364.041L1124.6 364.725C1131.83 384.597 1149.29 397.755 1168.86 400.436L1169.13 398.454ZM1126.48 364.041C1119.52 344.925 1124.3 324.438 1137.08 310.366L1135.6 309.021C1122.34 323.619 1117.38 344.882 1124.6 364.725L1126.48 364.041ZM1137.08 310.367C1141.24 305.798 1142.6 299.191 1139.69 293.605L1137.92 294.528C1140.38 299.263 1139.28 304.977 1135.6 309.021L1137.08 310.367ZM1139.69 293.604C1133.36 281.464 1126.48 269.516 1119.01 257.808L1117.32 258.884C1124.76 270.541 1131.62 282.438 1137.92 294.528L1139.69 293.604ZM1119.01 257.808C1115.63 252.518 1109.24 250.39 1103.23 251.686L1103.65 253.641C1108.97 252.494 1114.46 254.401 1117.32 258.884L1119.01 257.808ZM1103.23 251.686C1084.64 255.689 1064.51 249.489 1051.43 233.903L1049.9 235.189C1063.47 251.363 1084.36 257.795 1103.65 253.641L1103.23 251.686ZM1051.43 233.903C1038.36 218.32 1035.85 197.525 1043.02 179.937L1041.17 179.183C1033.73 197.426 1036.33 219.012 1049.9 235.189L1051.43 233.903ZM1043.02 179.938C1045.35 174.231 1044.37 167.58 1039.73 163.331L1038.38 164.806C1042.31 168.406 1043.23 174.129 1041.17 179.182L1043.02 179.938ZM1039.73 163.332C1029.48 153.921 1018.9 145.049 1008.01 136.698L1006.79 138.286C1017.63 146.601 1028.17 155.434 1038.38 164.805L1039.73 163.332ZM1008.01 136.699C1003.02 132.866 996.31 133.06 991.093 136.329L992.155 138.024C996.777 135.127 1002.57 135.038 1006.79 138.285L1008.01 136.699ZM991.093 136.329C975.002 146.411 954.003 147.463 936.403 137.299L935.403 139.031C953.668 149.579 975.459 148.484 992.155 138.024L991.093 136.329ZM936.403 137.299C918.845 127.167 909.352 108.499 910.04 89.5573L908.042 89.4846C907.327 109.133 917.176 128.513 935.403 139.031L936.403 137.299ZM910.04 89.5572C910.264 83.3892 907.054 77.4475 901.227 75.0325L900.461 76.8801C905.402 78.9279 908.24 84.0204 908.042 89.4848L910.04 89.5572ZM901.227 75.0324C888.439 69.7385 875.466 65.0042 862.327 60.8669L861.726 62.7746C874.808 66.8939 887.726 71.608 900.462 76.8803L901.227 75.0324ZM862.327 60.867C857.47 59.3364 852.42 60.6781 848.67 63.8251L849.955 65.3572C853.253 62.5906 857.603 61.4753 861.726 62.7745L862.327 60.867ZM848.67 63.8251C847.797 64.5571 846.992 65.3859 846.269 66.3124L847.845 67.5431C848.481 66.7289 849.188 66.0007 849.955 65.3572L848.67 63.8251ZM846.27 66.3112C843.987 69.2257 841.406 71.8913 838.586 74.2572L839.872 75.7893C842.798 73.3344 845.476 70.5687 847.844 67.5443L846.27 66.3112ZM838.586 74.2572C826.999 83.9802 811.338 88.691 795.262 85.8563L794.915 87.8259C811.596 90.7673 827.85 85.8771 839.872 75.7893L838.586 74.2572ZM795.262 85.8563C775.356 82.3456 760.089 68.1254 754.219 50.1638L752.318 50.7851C758.408 69.417 774.25 84.1813 794.915 87.8259L795.262 85.8563ZM754.219 50.1633C752.306 44.3198 747.279 39.8705 741.006 39.5828L740.914 41.5807C746.235 41.8247 750.624 45.6096 752.318 50.7855L754.219 50.1633ZM741.005 39.5828C727.183 38.9638 713.331 38.9184 699.486 39.5069L699.57 41.5051C713.355 40.9192 727.149 40.9643 740.915 41.5808L741.005 39.5828ZM699.486 39.5069C696.301 39.6421 693.411 40.861 691.101 42.7996L692.386 44.3316C694.381 42.6577 696.855 41.6204 699.57 41.5051L699.486 39.5069ZM691.101 42.7996C688.875 44.6667 687.181 47.2072 686.236 50.0802L688.135 50.7051C688.97 48.1689 690.46 45.9484 692.386 44.3316L691.101 42.7996ZM686.235 50.0813C683.156 59.481 677.476 67.8604 669.904 74.2138L671.19 75.7459C679.046 69.1535 684.94 60.4596 688.136 50.704L686.235 50.0813ZM669.904 74.2138C663.011 79.9982 654.543 84.106 645.031 85.7824L645.379 87.752C655.245 86.0132 664.034 81.7502 671.19 75.7459L669.904 74.2138ZM645.031 85.7824C625.102 89.2977 605.865 81.1389 594.216 66.2329L592.64 67.4644C604.725 82.9278 624.69 91.4012 645.379 87.752L645.031 85.7824ZM594.216 66.2327C590.425 61.3854 584.169 58.9002 578.17 60.7962L578.773 62.7033C583.855 61.097 589.281 63.1687 592.64 67.4647L594.216 66.2327ZM578.171 60.7958C565.027 64.931 552.016 69.6611 539.166 74.9885L539.932 76.836C552.727 71.5311 565.683 66.8212 578.772 62.7037L578.171 60.7958ZM539.166 74.9885C537.841 75.5378 536.65 76.2685 535.6 77.1497L536.886 78.6818C537.782 77.9302 538.797 77.3065 539.932 76.836L539.166 74.9885ZM535.6 77.1497C532.071 80.1112 530.197 84.7064 530.348 89.4439L532.347 89.3804C532.214 85.1921 533.873 81.2096 536.886 78.6818L535.6 77.1497ZM530.348 89.4447C530.868 105.396 524.126 121.136 511.481 131.746L512.767 133.278C525.892 122.265 532.887 105.931 532.347 89.3795L530.348 89.4447ZM511.481 131.746C509.136 133.714 506.589 135.505 503.844 137.091L504.844 138.823C507.691 137.179 510.333 135.321 512.767 133.278L511.481 131.746ZM503.844 137.091C486.333 147.198 465.481 146.122 449.432 136.112L448.374 137.809C465.023 148.193 486.666 149.315 504.844 138.823L503.844 137.091ZM449.433 136.113C444.245 132.87 437.601 132.717 432.64 136.484L433.85 138.077C438.059 134.881 443.789 134.944 448.373 137.809L449.433 136.113ZM432.64 136.484C427.058 140.723 421.518 145.084 416.079 149.648L417.364 151.18C422.772 146.642 428.286 142.302 433.85 138.077L432.64 136.484Z"
       fill="#777777"
       mask="url(#path-2-inside-1_580_1599)"
       id="path3" />
    <path
       d="M987.495 830.681C1163.49 683 1186.45 420.606 1038.77 244.607C891.089 68.608 628.695 45.6515 452.696 193.332C276.697 341.013 253.74 603.407 401.421 779.406C549.102 955.406 811.496 978.362 987.495 830.681Z"
       stroke="#777777"
       stroke-width="2"
       stroke-miterlimit="10"
       id="path4" />
    <path
       opacity="0.6"
       d="M583.577 458.134C576.314 476.578 572.894 496.275 573.415 515.953C573.624 523.872 567.998 530.733 560.212 532.111L341.267 570.705C332.133 572.312 323.599 565.845 322.574 556.627C314.055 480.216 327.693 402.784 361.755 334.088C365.868 325.781 376.102 322.623 384.129 327.258L576.69 438.445C583.534 442.401 586.479 450.765 583.585 458.128L583.577 458.134Z"
       fill="#191919"
       id="path5" />
    <path
       opacity="0.6"
       d="M395.818 491.877L386.954 490.321C385.283 490.025 383.978 489.201 383.046 487.842C382.115 486.483 381.797 485 382.083 483.364L383.788 473.683C383.967 472.697 384.371 471.81 385.024 471.001C385.669 470.199 386.466 469.608 387.395 469.207C389.563 468.119 391.376 466.624 392.835 464.721C394.285 462.825 395.218 460.685 395.637 458.323C396.057 455.96 395.92 453.556 395.204 451.272C394.488 448.987 393.293 446.988 391.619 445.273C390.893 444.485 390.358 443.615 390.022 442.67C389.686 441.725 389.599 440.78 389.758 439.85L391.464 430.169C391.759 428.498 392.569 427.192 393.9 426.258C395.231 425.324 396.736 425.001 398.413 425.304L407.277 426.86C408.116 427.005 408.761 427.416 409.228 428.081C409.695 428.747 409.857 429.499 409.706 430.331L407.101 445.101C406.956 445.94 406.545 446.586 405.879 447.053C405.214 447.52 404.461 447.681 403.63 447.53L399.862 446.867C400.786 448.807 401.397 450.827 401.68 452.939C401.972 455.044 401.927 457.184 401.538 459.35C401.161 461.468 400.468 463.473 399.442 465.377C398.424 467.276 397.14 468.981 395.61 470.486L399.454 471.163C400.293 471.308 400.939 471.719 401.406 472.385C401.873 473.05 402.034 473.802 401.883 474.634L399.278 489.404C399.134 490.243 398.722 490.889 398.057 491.356C397.391 491.823 396.639 491.984 395.807 491.833L395.818 491.877ZM392.679 457.815C392.345 459.688 391.601 461.384 390.452 462.909C389.297 464.426 387.851 465.627 386.129 466.484C384.755 467.102 383.599 467.98 382.655 469.112C381.719 470.236 381.122 471.547 380.858 473.022C379.227 471.623 378.187 469.076 377.749 465.396C377.305 461.709 377.36 458.321 377.901 455.216C378.449 452.12 379.553 448.909 381.241 445.6C382.915 442.289 384.761 440.258 386.772 439.497C386.52 440.923 386.637 442.338 387.125 443.744C387.612 445.149 388.399 446.382 389.478 447.435C390.864 448.791 391.824 450.387 392.361 452.208C392.897 454.03 393.003 455.899 392.672 457.822L392.679 457.815ZM379.647 479.886C379.211 482.353 377.977 484.29 375.957 485.71C373.938 487.13 371.688 487.622 369.22 487.186C366.753 486.75 364.76 485.511 363.361 483.487C361.963 481.462 361.492 479.22 361.92 476.759C362.348 474.298 363.588 472.291 365.585 470.89C367.581 469.489 369.837 469.019 372.347 469.459C374.814 469.895 376.752 471.115 378.181 473.114C379.61 475.113 380.094 477.37 379.655 479.88L379.647 479.886ZM387.984 432.618C387.549 435.086 386.314 437.022 384.295 438.442C382.275 439.863 380.025 440.354 377.557 439.918C375.09 439.483 373.097 438.243 371.699 436.219C370.3 434.194 369.829 431.953 370.257 429.491C370.686 427.03 371.926 425.024 373.922 423.623C375.919 422.221 378.174 421.752 380.684 422.191C383.194 422.631 385.089 423.847 386.518 425.846C387.94 427.851 388.432 430.102 387.992 432.612L387.984 432.618ZM374.952 454.689C374.516 457.156 373.282 459.092 371.263 460.513C369.243 461.933 366.993 462.425 364.525 461.989C362.015 461.549 360.065 460.314 358.666 458.289C357.268 456.265 356.797 454.023 357.225 451.562C357.653 449.101 358.893 447.094 360.89 445.693C362.886 444.292 365.142 443.822 367.652 444.262C370.119 444.698 372.057 445.918 373.486 447.917C374.908 449.922 375.399 452.173 374.96 454.682L374.952 454.689Z"
       fill="#777777"
       id="path6" />
    <path
       opacity="0.6"
       d="M607.685 606.328C608.514 607.316 609.358 608.292 610.211 609.261C615.467 615.214 615.635 624.095 610.524 630.185L467.575 800.56C461.616 807.662 450.923 808.189 444.214 801.796C388.714 748.893 349.429 680.793 331.293 606.082C329.107 597.068 334.913 588.071 344.047 586.464L562.951 547.852C570.809 546.466 578.411 551.092 580.944 558.653C586.615 575.603 595.513 591.791 607.7 606.315L607.685 606.328Z"
       fill="#191919"
       id="path7" />
    <path
       opacity="0.6"
       d="M396.283 656.87C399.273 655.144 402.423 654.029 405.739 653.531C409.055 653.033 412.346 653.051 415.607 653.592C416.515 653.757 417.212 654.229 417.708 654.975C418.202 655.735 418.319 656.59 418.058 657.54C417.824 658.428 417.299 659.078 416.49 659.483C415.681 659.887 414.822 660.046 413.895 659.937C411.498 659.585 409.08 659.643 406.633 660.104C404.187 660.564 401.86 661.432 399.648 662.701C397.443 663.977 395.546 665.543 393.969 667.414C392.387 669.277 391.149 671.334 390.257 673.584C389.909 674.476 389.352 675.166 388.58 675.631C387.815 676.103 386.966 676.228 386.033 676.018C385.1 675.809 384.415 675.288 383.974 674.482C383.534 673.677 383.466 672.834 383.776 671.959C384.935 668.86 386.561 666.007 388.657 663.386C390.754 660.766 393.286 658.588 396.277 656.862L396.283 656.87ZM403.113 668.697C404.503 667.896 405.957 667.341 407.481 667.042C409.013 666.736 410.539 666.656 412.072 666.819C412.993 666.921 413.706 667.366 414.184 668.153C414.668 668.948 414.784 669.817 414.523 670.767C414.289 671.655 413.768 672.34 412.987 672.826C412.192 673.31 411.325 673.568 410.364 673.604C409.738 673.62 409.098 673.713 408.451 673.891C407.803 674.069 407.17 674.326 406.565 674.677C405.959 675.029 405.419 675.443 404.944 675.92C404.469 676.396 404.041 676.912 403.679 677.477C403.167 678.298 402.518 678.908 401.72 679.343C400.93 679.77 400.084 679.867 399.204 679.626C398.247 679.372 397.548 678.836 397.109 678.016C396.67 677.197 396.628 676.37 397.008 675.516C397.642 674.11 398.472 672.826 399.497 671.653C400.522 670.479 401.73 669.491 403.113 668.697ZM427.682 687.243C429.335 690.099 429.729 693.136 428.867 696.34C428.011 699.551 426.145 701.979 423.289 703.631C420.433 705.284 417.396 705.678 414.192 704.816C410.98 703.96 408.553 702.094 406.9 699.237C405.248 696.381 404.853 693.344 405.716 690.141C406.572 686.929 408.438 684.502 411.294 682.849C414.15 681.197 417.187 680.802 420.391 681.665C423.602 682.521 426.03 684.387 427.682 687.243ZM455.271 699.026L453.193 700.221C451.766 701.04 450.21 701.458 448.529 701.446C446.848 701.433 445.306 700.965 443.91 700.048C441.505 698.489 439.12 696.548 436.739 694.225C434.359 691.901 432.207 689.072 430.284 685.739C428.361 682.405 426.986 679.133 426.169 675.903C425.344 672.679 424.857 669.641 424.717 666.782C424.615 665.105 424.986 663.541 425.81 662.08C426.641 660.612 427.776 659.476 429.197 658.649L431.275 657.454C432.703 656.635 434.218 656.434 435.827 656.859C437.437 657.283 438.648 658.213 439.473 659.648L457.472 690.822C458.291 692.249 458.492 693.764 458.068 695.374C457.636 696.976 456.714 698.194 455.279 699.02L455.271 699.026Z"
       fill="#777777"
       id="path8" />
    <path
       opacity="0.6"
       d="M712.11 672.966L712.105 895.398C712.103 904.668 704.261 911.953 695.022 911.365C657.008 908.969 619.536 901.12 583.303 887.934C547.065 874.741 513.312 856.669 482.659 834.078C475.204 828.584 473.876 817.963 479.835 810.861L622.768 640.498C627.854 634.442 636.606 632.986 643.342 637.124C660.358 647.57 679.148 654.282 698.466 657.158C706.307 658.319 712.114 665.052 712.108 672.98L712.11 672.966Z"
       fill="#191919"
       id="path9" />
    <path
       opacity="0.6"
       d="M598.452 841.909C598.967 842.103 599.282 842.478 599.395 843.049C599.509 843.62 599.332 844.094 598.881 844.459L585.422 855.753C584.84 856.241 584.227 856.429 583.624 856.348C583.021 856.267 582.439 855.932 581.907 855.36C579.199 852.724 577.07 849.642 575.524 846.135C573.986 842.622 573.127 838.969 572.968 835.186C572.958 834.49 573.181 833.977 573.651 833.635C574.121 833.293 574.685 833.25 575.345 833.492L598.459 841.902L598.452 841.909ZM609.782 842.126L612.901 859.861C613.056 860.605 612.921 861.254 612.512 861.793C612.103 862.332 611.546 862.695 610.85 862.861C608.014 863.635 605.051 863.993 601.962 863.936C598.872 863.879 595.773 863.281 592.67 862.151C591.969 861.891 591.201 861.582 590.383 861.198C589.557 860.821 588.891 860.479 588.356 860.183C587.733 859.845 587.402 859.404 587.365 858.862C587.327 858.319 587.57 857.815 588.105 857.379L607.313 841.222C607.758 840.849 608.262 840.765 608.805 840.962C609.349 841.159 609.67 841.542 609.776 842.119L609.782 842.126ZM630.781 837.717C631.304 837.905 631.699 838.252 631.996 838.76C632.292 839.269 632.395 839.796 632.297 840.348C632.199 840.901 632.063 841.485 631.852 842.105C631.642 842.726 631.41 843.429 631.119 844.235C630.044 847.2 628.488 849.967 626.452 852.55C624.416 855.133 621.913 857.377 618.936 859.274C618.179 859.74 617.466 859.855 616.777 859.611C616.089 859.366 615.697 858.82 615.579 857.98L611.253 833.021C611.14 832.45 611.323 831.983 611.802 831.62C612.281 831.258 612.777 831.181 613.294 831.361L630.773 837.724L630.781 837.717ZM623.974 812.569C626.525 815.206 628.627 818.286 630.271 821.801C631.914 825.331 632.795 828.978 632.912 832.743C632.923 833.44 632.686 833.952 632.189 834.277C631.692 834.603 631.128 834.646 630.467 834.403L607.499 826.041C606.983 825.847 606.668 825.472 606.555 824.901C606.442 824.33 606.618 823.856 607.069 823.491L620.33 812.272C620.925 811.799 621.541 811.569 622.171 811.588C622.801 811.608 623.398 811.93 623.967 812.562L623.974 812.569ZM613.19 805.77C613.85 806.012 614.576 806.317 615.367 806.685C616.165 807.06 616.853 807.397 617.428 807.71C618.052 808.048 618.397 808.49 618.455 809.042C618.513 809.593 618.284 810.098 617.756 810.542L598.74 826.602C598.296 826.975 597.73 827.032 597.076 826.797C596.423 826.563 596.04 826.153 595.926 825.582L592.87 808.109C592.727 807.472 592.822 806.87 593.17 806.304C593.511 805.731 594.101 805.314 594.949 805.033C597.689 804.222 600.68 803.866 603.913 803.986C607.14 804.098 610.239 804.696 613.204 805.771L613.19 805.77ZM590.121 809.75L594.529 834.901C594.642 835.471 594.46 835.938 593.981 836.301C593.502 836.663 593.005 836.74 592.489 836.56L575.085 830.225C574.569 830.031 574.166 829.691 573.87 829.182C573.574 828.673 573.471 828.146 573.569 827.594C573.667 827.042 573.803 826.458 574.014 825.837C574.224 825.217 574.456 824.513 574.746 823.708C575.822 820.743 577.386 817.955 579.441 815.317C581.489 812.685 583.992 810.441 586.957 808.593C587.523 808.209 588.161 808.144 588.872 808.37C589.59 808.603 590.004 809.065 590.129 809.743L590.121 809.75Z"
       fill="#777777"
       id="path10" />
    <path
       opacity="0.6"
       d="M817.443 640.452L960.36 810.775C966.319 817.876 964.977 828.505 957.512 833.999C895.596 879.582 821.722 906.494 745.206 911.341C735.956 911.923 728.111 904.642 728.105 895.379L728.107 672.975C728.106 665.039 733.925 658.315 741.778 657.157C760.921 654.317 779.682 647.661 796.854 637.09C803.584 632.944 812.35 634.4 817.435 640.459L817.443 640.452Z"
       fill="#191919"
       id="path11" />
    <path
       opacity="0.6"
       d="M864.811 802.941L867.889 811.401C868.473 813 868.41 814.541 867.691 816.019C866.979 817.504 865.853 818.527 864.3 819.087L855.069 822.446C854.131 822.789 853.15 822.881 852.136 822.714C851.121 822.547 850.203 822.169 849.398 821.552C847.364 820.217 845.172 819.394 842.8 819.087C840.427 818.78 838.112 819.039 835.861 819.857C833.611 820.675 831.6 821.996 829.977 823.75C828.361 825.511 827.224 827.548 826.575 829.855C826.259 830.877 825.769 831.771 825.12 832.538C824.471 833.305 823.691 833.854 822.804 834.181L813.574 837.54C811.975 838.124 810.44 838.068 808.966 837.385C807.493 836.703 806.465 835.555 805.88 833.957L802.802 825.496C802.51 824.697 802.534 823.932 802.882 823.196C803.231 822.46 803.794 821.949 804.593 821.657L818.692 816.523C819.491 816.231 820.255 816.255 820.991 816.604C821.728 816.952 822.239 817.515 822.531 818.314L823.835 821.906C825.048 820.131 826.503 818.598 828.186 817.29C829.869 815.982 831.74 814.96 833.808 814.204C835.831 813.473 837.918 813.066 840.074 813.006C842.237 812.94 844.344 813.195 846.416 813.767L845.083 810.109C844.791 809.309 844.815 808.545 845.163 807.809C845.512 807.073 846.075 806.561 846.874 806.269L860.972 801.136C861.772 800.843 862.536 800.868 863.272 801.216C864.008 801.564 864.52 802.127 864.812 802.927L864.811 802.941ZM836.877 822.685C838.666 822.033 840.508 821.832 842.404 822.069C844.3 822.306 846.052 822.963 847.663 824.026C848.891 824.915 850.226 825.479 851.667 825.718C853.115 825.966 854.539 825.828 855.954 825.32C855.548 827.435 853.868 829.602 850.905 831.827C847.942 834.052 844.972 835.709 842.011 836.784C839.049 837.859 835.721 838.498 832.019 838.707C828.317 838.915 825.635 838.333 823.966 836.966C825.329 836.475 826.5 835.661 827.472 834.533C828.444 833.404 829.118 832.107 829.487 830.649C829.971 828.768 830.873 827.136 832.172 825.759C833.478 824.375 835.045 823.348 836.877 822.685ZM862.507 822.94C864.86 822.088 867.153 822.175 869.396 823.231C871.64 824.272 873.187 825.976 874.046 828.322C874.923 830.72 874.827 833.033 873.774 835.247C872.722 837.462 871.018 839.01 868.665 839.861C866.312 840.713 863.967 840.657 861.757 839.626C859.548 838.595 858.008 836.885 857.132 834.487C856.28 832.134 856.359 829.848 857.379 827.609C858.404 825.378 860.11 823.816 862.506 822.954L862.507 822.94ZM817.404 839.352C819.757 838.5 822.049 838.587 824.292 839.642C826.537 840.683 828.084 842.387 828.943 844.733C829.82 847.131 829.724 849.444 828.671 851.659C827.618 853.873 825.914 855.421 823.561 856.273C821.208 857.124 818.864 857.068 816.654 856.037C814.445 855.006 812.905 853.296 812.029 850.898C811.152 848.501 811.256 846.26 812.276 844.021C813.301 841.789 815.006 840.228 817.403 839.366L817.404 839.352ZM843.034 839.606C845.387 838.755 847.68 838.842 849.923 839.897C852.167 840.938 853.714 842.642 854.573 844.988C855.45 847.386 855.354 849.699 854.301 851.914C853.249 854.128 851.545 855.676 849.192 856.527C846.839 857.379 844.494 857.323 842.284 856.292C840.075 855.261 838.535 853.551 837.659 851.153C836.783 848.755 836.886 846.514 837.906 844.275C838.931 842.044 840.637 840.483 843.033 839.62L843.034 839.606Z"
       fill="#777777"
       id="path12" />
    <path
       opacity="0.6"
       d="M1109.01 606.06C1090.94 680.578 1051.62 748.651 995.976 801.71C989.27 808.108 978.569 807.583 972.61 800.482L829.699 630.167C824.615 624.108 824.696 615.228 829.948 609.321C843.348 594.239 853.154 576.911 859.275 558.552C861.786 551.027 869.412 546.456 877.227 547.836L1096.25 586.454C1105.38 588.061 1111.2 597.059 1109 606.067L1109.01 606.06Z"
       fill="#191919"
       id="path13" />
    <path
       opacity="0.6"
       d="M1007.46 720.029C1004.47 718.306 1001.93 716.131 999.831 713.506C997.733 710.881 996.108 708.027 994.96 704.931C994.652 704.067 994.704 703.227 995.108 702.417C995.519 701.616 996.197 701.086 997.157 700.829C998.043 700.594 998.863 700.716 999.622 701.215C1000.37 701.707 1000.94 702.381 1001.31 703.23C1002.21 705.48 1003.46 707.549 1005.08 709.437C1006.71 711.325 1008.62 712.905 1010.83 714.185C1013.04 715.464 1015.34 716.311 1017.75 716.749C1020.15 717.186 1022.55 717.225 1024.95 716.882C1025.9 716.738 1026.77 716.878 1027.56 717.309C1028.36 717.741 1028.89 718.412 1029.18 719.324C1029.46 720.236 1029.36 721.093 1028.88 721.875C1028.4 722.656 1027.69 723.141 1026.79 723.311C1023.53 723.856 1020.24 723.873 1016.93 723.377C1013.61 722.874 1010.45 721.76 1007.47 720.037L1007.46 720.029ZM1014.29 708.205C1012.9 707.409 1011.69 706.424 1010.67 705.248C1009.64 704.072 1008.81 702.786 1008.18 701.382C1007.81 700.533 1007.84 699.698 1008.28 698.885C1008.72 698.072 1009.42 697.537 1010.38 697.28C1011.27 697.045 1012.12 697.141 1012.93 697.581C1013.74 698.021 1014.4 698.654 1014.91 699.465C1015.24 699.998 1015.64 700.501 1016.12 700.984C1016.61 701.466 1017.14 701.868 1017.75 702.219C1018.36 702.57 1018.98 702.831 1019.63 703.001C1020.28 703.172 1020.94 703.286 1021.61 703.324C1022.57 703.358 1023.43 703.611 1024.21 704.083C1024.97 704.554 1025.48 705.237 1025.71 706.124C1025.97 707.083 1025.85 707.953 1025.37 708.742C1024.89 709.53 1024.19 709.973 1023.26 710.076C1021.72 710.226 1020.19 710.155 1018.67 709.852C1017.14 709.541 1015.68 709.002 1014.3 708.192L1014.29 708.205ZM1018.06 677.659C1019.71 674.801 1022.15 672.941 1025.35 672.079C1028.56 671.216 1031.6 671.617 1034.46 673.265C1037.31 674.914 1039.17 677.348 1040.04 680.554C1040.9 683.759 1040.5 686.798 1038.85 689.656C1037.2 692.514 1034.77 694.374 1031.56 695.236C1028.36 696.099 1025.32 695.698 1022.46 694.05C1019.6 692.401 1017.74 689.967 1016.88 686.761C1016.02 683.556 1016.42 680.517 1018.06 677.659ZM1014.47 647.867L1016.56 649.071C1017.98 649.898 1019.12 651.034 1019.95 652.505C1020.78 653.962 1021.14 655.534 1021.05 657.208C1020.9 660.062 1020.41 663.107 1019.59 666.329C1018.77 669.551 1017.39 672.83 1015.47 676.168C1013.54 679.507 1011.4 682.328 1009.01 684.654C1006.64 686.973 1004.25 688.914 1001.85 690.472C1000.44 691.4 998.906 691.868 997.224 691.87C995.548 691.88 993.993 691.474 992.56 690.653L990.479 689.449C989.054 688.621 988.117 687.411 987.696 685.805C987.276 684.2 987.466 682.683 988.286 681.25L1006.29 650.075C1007.12 648.649 1008.33 647.712 1009.93 647.292C1011.54 646.857 1013.05 647.061 1014.49 647.882L1014.47 647.867Z"
       fill="#777777"
       id="path14" />
    <path
       opacity="0.6"
       d="M1056.11 327.255C1064.13 322.626 1074.37 325.771 1078.48 334.067C1095.41 368.178 1107.35 404.564 1114.05 442.535C1120.74 480.52 1121.98 518.788 1117.73 556.632C1116.69 565.84 1108.16 572.298 1099.04 570.684L879.983 532.063C872.183 530.685 866.567 523.806 866.77 515.881C867.293 496.357 863.952 476.694 856.619 458.123C853.713 450.77 856.661 442.397 863.509 438.439L1056.1 327.247L1056.11 327.255Z"
       fill="#191919"
       id="path15" />
    <path
       opacity="0.6"
       d="M1066.62 452.433C1066.52 451.892 1066.7 451.432 1067.14 451.045C1067.59 450.672 1068.08 450.573 1068.62 450.784L1085.14 456.779C1085.85 457.06 1086.32 457.485 1086.55 458.052C1086.77 458.618 1086.78 459.279 1086.55 460.032C1085.62 463.699 1084.02 467.079 1081.75 470.167C1079.48 473.262 1076.74 475.819 1073.55 477.861C1072.95 478.22 1072.39 478.285 1071.86 478.047C1071.34 477.809 1071.02 477.348 1070.89 476.656L1066.62 452.433ZM1061.14 442.506L1074.94 430.929C1075.51 430.425 1076.13 430.211 1076.81 430.298C1077.48 430.385 1078.07 430.685 1078.57 431.211C1080.66 433.282 1082.45 435.668 1083.94 438.375C1085.43 441.081 1086.46 444.061 1087.04 447.313C1087.17 448.055 1087.28 448.874 1087.36 449.769C1087.45 450.663 1087.49 451.426 1087.5 452.031C1087.52 452.742 1087.31 453.249 1086.86 453.55C1086.4 453.858 1085.85 453.895 1085.19 453.653L1061.6 445.094C1061.06 444.884 1060.74 444.501 1060.63 443.938C1060.52 443.375 1060.7 442.9 1061.15 442.513L1061.14 442.506ZM1046.83 426.525C1046.74 425.978 1046.83 425.454 1047.12 424.947C1047.42 424.44 1047.82 424.085 1048.34 423.897C1048.86 423.708 1049.45 423.532 1050.08 423.403C1050.72 423.274 1051.46 423.126 1052.29 422.972C1055.4 422.427 1058.58 422.386 1061.83 422.855C1065.08 423.324 1068.28 424.371 1071.41 426C1072.2 426.424 1072.66 426.982 1072.78 427.702C1072.9 428.423 1072.63 429.038 1071.96 429.562L1052.51 445.782C1052.06 446.155 1051.57 446.24 1051.02 446.007C1050.48 445.775 1050.15 445.384 1050.05 444.851L1046.82 426.532L1046.83 426.525ZM1028.45 444.998C1029.46 441.466 1031.07 438.115 1033.3 434.924C1035.54 431.734 1038.25 429.154 1041.46 427.17C1042.06 426.81 1042.61 426.76 1043.15 427.019C1043.68 427.279 1044 427.754 1044.12 428.446L1048.37 452.518C1048.47 453.059 1048.29 453.52 1047.85 453.906C1047.4 454.279 1046.91 454.378 1046.37 454.168L1030.03 448.287C1029.32 448.005 1028.81 447.585 1028.51 447.026C1028.21 446.468 1028.19 445.792 1028.46 444.984L1028.45 444.998ZM1027.96 457.724C1027.84 457.032 1027.74 456.25 1027.66 455.377C1027.58 454.504 1027.53 453.733 1027.52 453.079C1027.5 452.367 1027.71 451.853 1028.16 451.524C1028.62 451.195 1029.16 451.143 1029.81 451.384L1053.23 459.821C1053.77 460.032 1054.11 460.481 1054.23 461.165C1054.34 461.85 1054.18 462.389 1053.75 462.77L1040.14 474.157C1039.66 474.598 1039.09 474.818 1038.43 474.802C1037.77 474.794 1037.1 474.488 1036.44 473.897C1034.37 471.927 1032.57 469.52 1031.05 466.661C1029.53 463.81 1028.49 460.83 1027.94 457.723L1027.96 457.724ZM1042.94 475.729L1062.51 459.328C1062.96 458.955 1063.45 458.87 1064 459.103C1064.54 459.335 1064.87 459.726 1064.97 460.259L1068.18 478.499C1068.29 479.04 1068.18 479.571 1067.89 480.077C1067.6 480.584 1067.19 480.939 1066.67 481.127C1066.14 481.323 1065.56 481.492 1064.93 481.621C1064.29 481.75 1063.56 481.899 1062.72 482.052C1059.61 482.597 1056.41 482.644 1053.1 482.184C1049.79 481.724 1046.61 480.678 1043.52 479.038C1042.91 478.743 1042.53 478.227 1042.37 477.483C1042.22 476.752 1042.41 476.159 1042.93 475.708L1042.94 475.729Z"
       fill="#777777"
       id="path16" />
    <path
       opacity="0.6"
       d="M1048.1 313.402L855.486 424.599C848.608 428.569 839.884 426.868 834.934 420.657C834.134 419.658 833.326 418.664 832.497 417.676C820.304 403.144 805.898 391.577 790.199 383.042C783.193 379.235 779.951 370.937 782.686 363.447L858.725 154.559C861.894 145.843 871.762 141.688 880.26 145.406C950.693 176.248 1010.93 226.754 1053.39 290.597C1058.52 298.314 1056.15 308.753 1048.12 313.389L1048.1 313.402Z"
       fill="#191919"
       id="path17" />
    <path
       opacity="0.6"
       d="M899.701 241.241L905.485 234.351C906.572 233.048 907.947 232.338 909.584 232.204C911.228 232.078 912.677 232.546 913.933 233.607L921.465 239.923C922.225 240.564 922.794 241.366 923.171 242.329C923.534 243.291 923.662 244.267 923.531 245.278C923.389 247.707 923.776 250.02 924.704 252.23C925.626 254.433 927.009 256.315 928.84 257.859C930.718 259.429 932.819 260.486 935.159 261.003C937.491 261.526 939.822 261.489 942.145 260.897C943.188 260.662 944.212 260.638 945.198 260.816C946.183 260.995 947.05 261.39 947.776 262.007L955.309 268.323C956.612 269.41 957.337 270.772 957.472 272.395C957.615 274.012 957.138 275.482 956.045 276.778L950.261 283.668C949.714 284.323 949.036 284.682 948.229 284.746C947.413 284.817 946.689 284.576 946.034 284.029L934.549 274.386C933.894 273.839 933.534 273.161 933.47 272.354C933.406 271.546 933.64 270.814 934.187 270.159L936.651 267.23C934.508 267.057 932.449 266.579 930.482 265.775C928.516 264.971 926.682 263.86 925.003 262.449C923.356 261.063 921.963 259.465 920.825 257.626C919.687 255.788 918.857 253.834 918.315 251.756L915.81 254.746C915.263 255.401 914.586 255.76 913.778 255.824C912.963 255.895 912.239 255.654 911.584 255.107L900.098 245.464C899.443 244.917 899.084 244.239 899.019 243.432C898.955 242.624 899.19 241.892 899.737 241.237L899.701 241.241ZM930.765 255.564C929.31 254.344 928.213 252.85 927.466 251.088C926.726 249.32 926.411 247.482 926.53 245.555C926.683 244.056 926.504 242.614 925.992 241.242C925.48 239.869 924.653 238.697 923.503 237.73C925.531 237.021 928.259 237.394 931.666 238.856C935.081 240.312 937.995 242.057 940.401 244.085C942.815 246.106 945.032 248.671 947.067 251.781C949.095 254.882 949.938 257.504 949.589 259.625C948.478 258.69 947.19 258.087 945.73 257.811C944.271 257.534 942.81 257.598 941.355 258.01C939.478 258.527 937.622 258.57 935.773 258.125C933.923 257.679 932.251 256.837 930.756 255.585L930.765 255.564ZM918.167 233.239C916.257 231.631 915.186 229.592 914.975 227.132C914.758 224.664 915.454 222.475 917.062 220.564C918.67 218.654 920.748 217.537 923.193 217.339C925.638 217.141 927.826 217.851 929.744 219.452C931.694 221.092 932.779 223.132 932.994 225.55C933.207 227.982 932.497 230.17 930.85 232.127C929.242 234.037 927.217 235.11 924.769 235.35C922.32 235.59 920.118 234.879 918.167 233.239ZM954.941 264.089C953.03 262.481 951.959 260.442 951.749 257.982C951.532 255.514 952.227 253.325 953.835 251.414C955.443 249.504 957.521 248.387 959.966 248.189C962.411 247.991 964.599 248.701 966.517 250.302C968.468 251.942 969.553 253.982 969.767 256.4C969.98 258.832 969.271 261.02 967.623 262.977C965.975 264.934 963.99 265.96 961.542 266.2C959.101 266.433 956.891 265.729 954.941 264.089ZM942.335 241.77C940.425 240.162 939.354 238.123 939.143 235.663C938.932 233.203 939.622 231.006 941.23 229.095C942.87 227.145 944.916 226.068 947.361 225.87C949.805 225.672 951.993 226.382 953.912 227.983C955.83 229.585 956.947 231.663 957.162 234.081C957.375 236.513 956.665 238.701 955.018 240.658C953.37 242.615 951.385 243.641 948.936 243.881C946.496 244.114 944.286 243.41 942.335 241.77Z"
       fill="#777777"
       id="path18" />
    <g
       filter="url(#filter0_d_580_1599)"
       id="g19">
      <path
         d="M860.187 105.043L773.924 342.087C770.849 350.532 762.067 355.458 753.268 353.657C731.382 349.197 708.698 349.154 686.659 353.62C677.862 355.403 669.096 350.465 666.024 342.037L579.724 104.964C576.126 95.0818 581.671 84.2675 591.764 81.3088C675.236 56.7834 764.437 56.8076 848.148 81.3744C858.246 84.3357 863.791 95.1458 860.196 105.035L860.187 105.043Z"
         fill="#614589"
         id="path19" />
    </g>
    <path
       d="m 767.693,119.82294 c -0.004,3.85155 -0.6614,7.52555 -1.99472,11.01117 -1.33257,3.48639 -3.12286,6.65337 -5.39342,9.50792 -0.65013,0.78147 -1.4626,1.20787 -2.43516,1.26214 -0.97331,0.055 -1.84215,-0.30081 -2.59674,-1.09003 -0.7065,-0.72953 -1.02592,-1.59086 -0.97106,-2.60026 0.0549,-1.0094 0.37956,-1.9312 0.97256,-2.76539 1.62419,-2.12037 2.88611,-4.49502 3.77675,-7.11776 0.89138,-2.62196 1.33858,-5.35634 1.34159,-8.20081 0.003,-2.84524 -0.45096,-5.55714 -1.33934,-8.12638 -0.88913,-2.56925 -2.14955,-4.91755 -3.77524,-7.03791 -0.65163,-0.83574 -0.98834,-1.75366 -1.01841,-2.76306 -0.0293,-1.00941 0.3074,-1.89864 1.01164,-2.682983 0.70425,-0.784496 1.55805,-1.159262 2.55466,-1.13267 0.99661,0.02651 1.82261,0.433919 2.47123,1.213764 2.27131,2.844549 4.07663,6.019279 5.40244,9.507219 1.32506,3.48794 1.99021,7.1542 1.99322,11.01504 z m -14.77553,-0.0101 c 10e-4,1.79165 -0.27358,3.50268 -0.81322,5.15013 -0.53964,1.64745 -1.298,3.16387 -2.27732,4.56556 -0.59376,0.83419 -1.39871,1.26912 -2.39232,1.29781 -1.00036,0.0209 -1.88348,-0.35198 -2.64034,-1.1257 -0.70649,-0.72953 -1.06951,-1.61023 -1.09807,-2.63514 -0.0195,-1.03266 0.20293,-2.02733 0.69071,-2.97394 0.32093,-0.61246 0.57798,-1.28695 0.76963,-2.00717 0.19166,-0.71945 0.27884,-1.48077 0.28335,-2.25682 0.005,-0.77604 -0.0924,-1.53813 -0.28485,-2.26068 -0.19241,-0.72256 -0.44795,-1.41952 -0.76738,-2.09091 -0.48853,-0.94738 -0.72002,-1.92732 -0.68921,-2.9313 0.0316,-1.0032 0.38933,-1.86685 1.09658,-2.5956 0.75835,-0.78768 1.64222,-1.15981 2.63883,-1.13267 0.99736,0.0264 1.79781,0.45508 2.39532,1.29392 0.98083,1.39627 1.73543,2.91502 2.27206,4.56402 0.53589,1.64978 0.81322,3.36312 0.81473,5.154 z m -30.68897,13.39978 c -3.57306,0.002 -6.63504,-1.31253 -9.17843,-3.93527 -2.54413,-2.62352 -3.81282,-5.78197 -3.81507,-9.46761 -0.002,-3.68563 1.27169,-6.84408 3.81507,-9.4676 2.54339,-2.62429 5.60462,-3.93295 9.17768,-3.93527 3.57382,-0.003 6.63505,1.31175 9.17918,3.93527 2.54339,2.62274 3.81283,5.78119 3.81508,9.46683 0.002,3.68563 -1.27244,6.84409 -3.81508,9.46838 -2.54338,2.62351 -5.60461,3.93217 -9.17843,3.93527 z m -25.98551,20.10121 -0.004,-2.67933 c 0.002,-1.83894 0.45696,-3.57322 1.38593,-5.19354 0.9207,-1.61334 2.19314,-2.84524 3.81583,-3.68176 2.75909,-1.45518 5.87519,-2.68011 9.34152,-3.68331 3.46559,-1.00242 7.28142,-1.50635 11.44598,-1.511 4.16532,-0.005 7.98716,0.50703 11.44448,1.50867 3.46408,1.01018 6.57943,2.23433 9.33852,3.68021 1.6272,0.83652 2.89814,2.06843 3.81433,3.68099 0.92295,1.62109 1.38292,3.35072 1.38067,5.18888 l 0.003,2.67934 c -0.002,1.83894 -0.63584,3.42204 -1.90678,4.72682 -1.27094,1.30401 -2.80269,1.97384 -4.58546,1.97151 l -38.973,0.002 c -1.78203,-0.002 -3.31753,-0.65665 -4.5817,-1.96764 -1.27094,-1.31951 -1.91355,-2.89098 -1.9113,-4.72992 z"
       fill="#ddc4f7"
       id="path20"
       style="stroke-width:0.763339" />
    <path
       opacity="0.6"
       d="M581.471 154.514L657.53 363.471C660.236 370.912 657.089 379.219 650.129 382.996C641.633 387.619 633.462 393.143 625.771 399.597C618.08 406.051 611.214 413.13 605.193 420.702C600.264 426.901 591.537 428.558 584.679 424.6L392.104 313.411C384.077 308.777 381.696 298.347 386.822 290.626C407.904 258.903 433.44 230.374 462.979 205.589C492.517 180.803 525.048 160.594 559.948 145.356C568.443 141.649 578.293 145.811 581.471 154.514Z"
       fill="#191919"
       id="path21" />
    <path
       opacity="0.6"
       d="M495.251 241.716C494.83 242.07 494.348 242.148 493.789 241.964C493.237 241.774 492.916 241.391 492.824 240.815L489.767 223.512C489.656 222.757 489.788 222.137 490.171 221.66C490.553 221.182 491.122 220.849 491.883 220.667C495.522 219.636 499.247 219.331 503.064 219.757C506.874 220.175 510.463 221.263 513.824 223.012C514.433 223.349 514.762 223.804 514.826 224.377C514.889 224.951 514.639 225.461 514.102 225.911L495.258 241.724L495.251 241.716ZM489.397 251.432L472.475 245.267C471.751 245.026 471.257 244.593 470.992 243.966C470.727 243.34 470.693 242.677 470.902 241.992C471.648 239.147 472.818 236.403 474.419 233.754C476.013 231.111 478.082 228.722 480.61 226.601C481.185 226.119 481.846 225.616 482.573 225.098C483.307 224.573 483.94 224.16 484.464 223.851C485.064 223.477 485.609 223.411 486.107 223.647C486.605 223.882 486.904 224.348 487.022 225.033L491.412 249.742C491.503 250.318 491.327 250.792 490.89 251.158C490.454 251.525 489.956 251.616 489.405 251.426L489.397 251.432ZM482.716 271.816C482.295 272.169 481.79 272.345 481.207 272.351C480.625 272.357 480.108 272.176 479.678 271.819C479.248 271.462 478.816 271.041 478.375 270.563C477.934 270.084 477.445 269.516 476.898 268.865C474.874 266.452 473.246 263.719 472.029 260.666C470.806 257.607 470.114 254.324 469.961 250.797C469.933 249.907 470.198 249.227 470.75 248.765C471.301 248.302 471.982 248.226 472.764 248.536L496.545 257.275C497.096 257.465 497.41 257.854 497.478 258.45C497.555 259.038 497.378 259.513 496.957 259.866L482.708 271.822L482.716 271.816ZM507.898 278.49C504.342 279.386 500.633 279.665 496.759 279.326C492.885 278.987 489.294 277.927 485.971 276.146C485.362 275.809 485.04 275.348 485 274.755C484.96 274.163 485.218 273.646 485.754 273.196L504.484 257.48C504.905 257.126 505.395 257.041 505.946 257.231C506.498 257.421 506.819 257.804 506.911 258.38L509.993 275.48C510.104 276.235 509.998 276.885 509.66 277.417C509.329 277.956 508.744 278.316 507.912 278.492L507.898 278.49ZM519.171 272.556C518.635 273.006 518.004 273.483 517.292 273.989C516.573 274.501 515.933 274.92 515.371 275.262C514.77 275.635 514.21 275.714 513.697 275.491C513.184 275.269 512.869 274.816 512.751 274.131L508.343 249.633C508.252 249.057 508.474 248.544 509.01 248.094C509.546 247.644 510.09 247.515 510.641 247.705L527.3 253.79C527.922 253.987 528.392 254.375 528.718 254.95C529.044 255.526 529.108 256.255 528.925 257.126C528.256 259.907 527.063 262.67 525.354 265.41C523.637 268.156 521.576 270.538 519.163 272.562L519.171 272.556ZM527.268 250.593L503.276 241.836C502.725 241.646 502.411 241.257 502.342 240.661C502.274 240.066 502.442 239.598 502.864 239.245L517.058 227.334C517.48 226.98 517.985 226.805 518.568 226.799C519.15 226.793 519.667 226.973 520.097 227.33C520.527 227.687 520.959 228.108 521.399 228.587C521.84 229.065 522.33 229.634 522.876 230.285C524.901 232.698 526.542 235.446 527.797 238.544C529.045 241.635 529.744 244.926 529.865 248.414C529.912 249.093 529.654 249.688 529.092 250.185C528.537 250.69 527.929 250.821 527.275 250.587L527.268 250.593Z"
       fill="#777777"
       id="path22" />
  </g>
  <defs
     id="defs24">
    <filter
       id="filter0_d_580_1599"
       x="574.625"
       y="62.9319"
       width="290.67"
       height="299.095"
       filterUnits="userSpaceOnUse"
       color-interpolation-filters="sRGB">
      <feFlood
         flood-opacity="0"
         result="BackgroundImageFix"
         id="feFlood22" />
      <feColorMatrix
         in="SourceAlpha"
         type="matrix"
         values="0 0 0 0 0 0 0 0 0 0 0 0 0 0 0 0 0 0 127 0"
         result="hardAlpha"
         id="feColorMatrix22" />
      <feOffset
         dy="4"
         id="feOffset22" />
      <feGaussianBlur
         stdDeviation="2"
         id="feGaussianBlur22" />
      <feComposite
         in2="hardAlpha"
         operator="out"
         id="feComposite22" />
      <feColorMatrix
         type="matrix"
         values="0 0 0 0 0 0 0 0 0 0 0 0 0 0 0 0 0 0 0.1 0"
         id="feColorMatrix23" />
      <feBlend
         mode="normal"
         in2="BackgroundImageFix"
         result="effect1_dropShadow_580_1599"
         id="feBlend23" />
      <feBlend
         mode="normal"
         in="SourceGraphic"
         in2="effect1_dropShadow_580_1599"
         result="shape"
         id="feBlend24" />
    </filter>
    <clipPath
       id="clip0_580_1599">
      <rect
         width="1440"
         height="1024"
         fill="white"
         id="rect24" />
    </clipPath>
  </defs>
</svg>
